  0
SECTION
  2
HEADER
  9
$ACADVER
  1
AC1021
  9
$ACADMAINTVER
 70
    50
  9
$DWGCODEPAGE
  3
ANSI_936
  9
$LASTSAVEDBY
  1
Administrator
  9
$INSBASE
 10
0.0
 20
0.0
 30
0.0
  9
$EXTMIN
 10
-1909.983571632428
 20
-672.4991647609039
 30
0.0
  9
$EXTMAX
 10
839.1391567307003
 20
1473.948574317558
 30
0.0
  9
$LIMMIN
 10
0.0
 20
0.0
  9
$LIMMAX
 10
12.0
 20
9.0
  9
$ORTHOMODE
 70
     0
  9
$REGENMODE
 70
     1
  9
$FILLMODE
 70
     1
  9
$QTEXTMODE
 70
     0
  9
$MIRRTEXT
 70
     0
  9
$LTSCALE
 40
1.0
  9
$ATTMODE
 70
     1
  9
$TEXTSIZE
 40
0.2
  9
$TRACEWID
 40
0.05
  9
$TEXTSTYLE
  7
Standard
  9
$CLAYER
  8
0
  9
$CELTYPE
  6
ByLayer
  9
$CECOLOR
 62
   256
  9
$CELTSCALE
 40
1.0
  9
$DISPSILH
 70
     0
  9
$DIMSCALE
 40
1.0
  9
$DIMASZ
 40
0.18
  9
$DIMEXO
 40
0.0625
  9
$DIMDLI
 40
0.38
  9
$DIMRND
 40
0.0
  9
$DIMDLE
 40
0.0
  9
$DIMEXE
 40
0.18
  9
$DIMTP
 40
0.0
  9
$DIMTM
 40
0.0
  9
$DIMTXT
 40
0.18
  9
$DIMCEN
 40
0.09
  9
$DIMTSZ
 40
0.0
  9
$DIMTOL
 70
     0
  9
$DIMLIM
 70
     0
  9
$DIMTIH
 70
     1
  9
$DIMTOH
 70
     1
  9
$DIMSE1
 70
     0
  9
$DIMSE2
 70
     0
  9
$DIMTAD
 70
     0
  9
$DIMZIN
 70
     0
  9
$DIMBLK
  1

  9
$DIMASO
 70
     1
  9
$DIMSHO
 70
     1
  9
$DIMPOST
  1

  9
$DIMAPOST
  1

  9
$DIMALT
 70
     0
  9
$DIMALTD
 70
     2
  9
$DIMALTF
 40
25.4
  9
$DIMLFAC
 40
1.0
  9
$DIMTOFL
 70
     0
  9
$DIMTVP
 40
0.0
  9
$DIMTIX
 70
     0
  9
$DIMSOXD
 70
     0
  9
$DIMSAH
 70
     0
  9
$DIMBLK1
  1

  9
$DIMBLK2
  1

  9
$DIMSTYLE
  2
Standard
  9
$DIMCLRD
 70
     0
  9
$DIMCLRE
 70
     0
  9
$DIMCLRT
 70
     0
  9
$DIMTFAC
 40
1.0
  9
$DIMGAP
 40
0.09
  9
$DIMJUST
 70
     0
  9
$DIMSD1
 70
     0
  9
$DIMSD2
 70
     0
  9
$DIMTOLJ
 70
     1
  9
$DIMTZIN
 70
     0
  9
$DIMALTZ
 70
     0
  9
$DIMALTTZ
 70
     0
  9
$DIMUPT
 70
     0
  9
$DIMDEC
 70
     4
  9
$DIMTDEC
 70
     4
  9
$DIMALTU
 70
     2
  9
$DIMALTTD
 70
     2
  9
$DIMTXSTY
  7
Standard
  9
$DIMAUNIT
 70
     0
  9
$DIMADEC
 70
     0
  9
$DIMALTRND
 40
0.0
  9
$DIMAZIN
 70
     0
  9
$DIMDSEP
 70
    46
  9
$DIMATFIT
 70
     3
  9
$DIMFRAC
 70
     0
  9
$DIMLDRBLK
  1

  9
$DIMLUNIT
 70
     2
  9
$DIMLWD
 70
    -2
  9
$DIMLWE
 70
    -2
  9
$DIMTMOVE
 70
     0
  9
$DIMFXL
 40
1.0
  9
$DIMFXLON
 70
     0
  9
$DIMJOGANG
 40
0.7853981633974483
  9
$DIMTFILL
 70
     0
  9
$DIMTFILLCLR
 70
     0
  9
$DIMARCSYM
 70
     0
  9
$DIMLTYPE
  6

  9
$DIMLTEX1
  6

  9
$DIMLTEX2
  6

  9
$LUNITS
 70
     2
  9
$LUPREC
 70
     4
  9
$SKETCHINC
 40
0.1
  9
$FILLETRAD
 40
0.0
  9
$AUNITS
 70
     0
  9
$AUPREC
 70
     0
  9
$MENU
  1
.
  9
$ELEVATION
 40
0.0
  9
$PELEVATION
 40
0.0
  9
$THICKNESS
 40
0.0
  9
$LIMCHECK
 70
     0
  9
$CHAMFERA
 40
0.0
  9
$CHAMFERB
 40
0.0
  9
$CHAMFERC
 40
0.0
  9
$CHAMFERD
 40
0.0
  9
$SKPOLY
 70
     0
  9
$TDCREATE
 40
2456707.466298577
  9
$TDUCREATE
 40
2456707.132965243
  9
$TDUPDATE
 40
2456707.473049259
  9
$TDUUPDATE
 40
2456707.139715926
  9
$TDINDWG
 40
0.0021706481
  9
$TDUSRTIMER
 40
0.0021706481
  9
$USRTIMER
 70
     1
  9
$ANGBASE
 50
0.0
  9
$ANGDIR
 70
     0
  9
$PDMODE
 70
     0
  9
$PDSIZE
 40
0.0
  9
$PLINEWID
 40
0.0
  9
$SPLFRAME
 70
     0
  9
$SPLINETYPE
 70
     6
  9
$SPLINESEGS
 70
     8
  9
$HANDSEED
  5
251
  9
$SURFTAB1
 70
     6
  9
$SURFTAB2
 70
     6
  9
$SURFTYPE
 70
     6
  9
$SURFU
 70
     6
  9
$SURFV
 70
     6
  9
$UCSBASE
  2

  9
$UCSNAME
  2

  9
$UCSORG
 10
0.0
 20
0.0
 30
0.0
  9
$UCSXDIR
 10
1.0
 20
0.0
 30
0.0
  9
$UCSYDIR
 10
0.0
 20
1.0
 30
0.0
  9
$UCSORTHOREF
  2

  9
$UCSORTHOVIEW
 70
     0
  9
$UCSORGTOP
 10
0.0
 20
0.0
 30
0.0
  9
$UCSORGBOTTOM
 10
0.0
 20
0.0
 30
0.0
  9
$UCSORGLEFT
 10
0.0
 20
0.0
 30
0.0
  9
$UCSORGRIGHT
 10
0.0
 20
0.0
 30
0.0
  9
$UCSORGFRONT
 10
0.0
 20
0.0
 30
0.0
  9
$UCSORGBACK
 10
0.0
 20
0.0
 30
0.0
  9
$PUCSBASE
  2

  9
$PUCSNAME
  2

  9
$PUCSORG
 10
0.0
 20
0.0
 30
0.0
  9
$PUCSXDIR
 10
1.0
 20
0.0
 30
0.0
  9
$PUCSYDIR
 10
0.0
 20
1.0
 30
0.0
  9
$PUCSORTHOREF
  2

  9
$PUCSORTHOVIEW
 70
     0
  9
$PUCSORGTOP
 10
0.0
 20
0.0
 30
0.0
  9
$PUCSORGBOTTOM
 10
0.0
 20
0.0
 30
0.0
  9
$PUCSORGLEFT
 10
0.0
 20
0.0
 30
0.0
  9
$PUCSORGRIGHT
 10
0.0
 20
0.0
 30
0.0
  9
$PUCSORGFRONT
 10
0.0
 20
0.0
 30
0.0
  9
$PUCSORGBACK
 10
0.0
 20
0.0
 30
0.0
  9
$USERI1
 70
     0
  9
$USERI2
 70
     0
  9
$USERI3
 70
     0
  9
$USERI4
 70
     0
  9
$USERI5
 70
     0
  9
$USERR1
 40
0.0
  9
$USERR2
 40
0.0
  9
$USERR3
 40
0.0
  9
$USERR4
 40
0.0
  9
$USERR5
 40
0.0
  9
$WORLDVIEW
 70
     1
  9
$SHADEDGE
 70
     3
  9
$SHADEDIF
 70
    70
  9
$TILEMODE
 70
     1
  9
$MAXACTVP
 70
    64
  9
$PINSBASE
 10
0.0
 20
0.0
 30
0.0
  9
$PLIMCHECK
 70
     0
  9
$PEXTMIN
 10
1.000000000000000E+20
 20
1.000000000000000E+20
 30
1.000000000000000E+20
  9
$PEXTMAX
 10
-1.000000000000000E+20
 20
-1.000000000000000E+20
 30
-1.000000000000000E+20
  9
$PLIMMIN
 10
0.0
 20
0.0
  9
$PLIMMAX
 10
12.0
 20
9.0
  9
$UNITMODE
 70
     0
  9
$VISRETAIN
 70
     1
  9
$PLINEGEN
 70
     0
  9
$PSLTSCALE
 70
     1
  9
$TREEDEPTH
 70
  3020
  9
$CMLSTYLE
  2
Standard
  9
$CMLJUST
 70
     0
  9
$CMLSCALE
 40
1.0
  9
$PROXYGRAPHICS
 70
     1
  9
$MEASUREMENT
 70
     1
  9
$CELWEIGHT
370
    -1
  9
$ENDCAPS
280
     0
  9
$JOINSTYLE
280
     0
  9
$LWDISPLAY
290
     0
  9
$INSUNITS
 70
     4
  9
$HYPERLINKBASE
  1

  9
$STYLESHEET
  1

  9
$XEDIT
290
     1
  9
$CEPSNTYPE
380
     0
  9
$PSTYLEMODE
290
     1
  9
$FINGERPRINTGUID
  2
{92FCC52C-53EC-42D8-8EDD-13DD5073827C}
  9
$VERSIONGUID
  2
{577ACDF5-A4BE-49B1-8312-153DA65D29A7}
  9
$EXTNAMES
290
     1
  9
$PSVPSCALE
 40
0.0
  9
$OLESTARTUP
290
     0
  9
$SORTENTS
280
   127
  9
$INDEXCTL
280
     0
  9
$HIDETEXT
280
     1
  9
$XCLIPFRAME
290
     0
  9
$HALOGAP
280
     0
  9
$OBSCOLOR
 70
   257
  9
$OBSLTYPE
280
     0
  9
$INTERSECTIONDISPLAY
280
     0
  9
$INTERSECTIONCOLOR
 70
   257
  9
$DIMASSOC
280
     2
  9
$PROJECTNAME
  1

  9
$CAMERADISPLAY
290
     0
  9
$LENSLENGTH
 40
50.0
  9
$CAMERAHEIGHT
 40
0.0
  9
$STEPSPERSEC
 40
2.0
  9
$STEPSIZE
 40
6.0
  9
$3DDWFPREC
 40
2.0
  9
$PSOLWIDTH
 40
0.25
  9
$PSOLHEIGHT
 40
4.0
  9
$LOFTANG1
 40
1.570796326794896
  9
$LOFTANG2
 40
1.570796326794896
  9
$LOFTMAG1
 40
0.0
  9
$LOFTMAG2
 40
0.0
  9
$LOFTPARAM
 70
     7
  9
$LOFTNORMALS
280
     1
  9
$LATITUDE
 40
0.0
  9
$LONGITUDE
 40
0.0
  9
$NORTHDIRECTION
 40
0.0
  9
$TIMEZONE
 70
     0
  9
$LIGHTGLYPHDISPLAY
280
     1
  9
$TILEMODELIGHTSYNCH
280
     1
  9
$CMATERIAL
347
11
  9
$SOLIDHIST
280
     1
  9
$SHOWHIST
280
     1
  9
$DWFFRAME
280
     2
  9
$DGNFRAME
280
     0
  9
$REALWORLDSCALE
290
     1
  9
$INTERFERECOLOR
 62
     1
  9
$INTERFEREOBJVS
345
33
  9
$INTERFEREVPVS
346
30
  9
$CSHADOW
280
     0
  9
$SHADOWPLANELOCATION
 40
0.0
  0
ENDSEC
  0
SECTION
  2
CLASSES
  0
CLASS
  1
ACDBDICTIONARYWDFLT
  2
AcDbDictionaryWithDefault
  3
ObjectDBX Classes
 90
        0
 91
        1
280
     0
281
     0
  0
CLASS
  1
MATERIAL
  2
AcDbMaterial
  3
ObjectDBX Classes
 90
     1153
 91
        3
280
     0
281
     0
  0
CLASS
  1
VISUALSTYLE
  2
AcDbVisualStyle
  3
ObjectDBX Classes
 90
     4095
 91
       24
280
     0
281
     0
  0
CLASS
  1
SCALE
  2
AcDbScale
  3
ObjectDBX Classes
 90
     1153
 91
       17
280
     0
281
     0
  0
CLASS
  1
TABLESTYLE
  2
AcDbTableStyle
  3
ObjectDBX Classes
 90
     4095
 91
        1
280
     0
281
     0
  0
CLASS
  1
MLEADERSTYLE
  2
AcDbMLeaderStyle
  3
ACDB_MLEADERSTYLE_CLASS
 90
     4095
 91
        1
280
     0
281
     0
  0
CLASS
  1
RASTERVARIABLES
  2
AcDbRasterVariables
  3
ISM
 90
        0
 91
        1
280
     0
281
     0
  0
CLASS
  1
DICTIONARYVAR
  2
AcDbDictionaryVar
  3
ObjectDBX Classes
 90
        0
 91
        5
280
     0
281
     0
  0
CLASS
  1
SORTENTSTABLE
  2
AcDbSortentsTable
  3
ObjectDBX Classes
 90
        0
 91
        1
280
     0
281
     0
  0
CLASS
  1
SUN
  2
AcDbSun
  3
SCENEOE
 90
     1153
 91
        1
280
     0
281
     0
  0
CLASS
  1
CELLSTYLEMAP
  2
AcDbCellStyleMap
  3
ObjectDBX Classes
 90
     1152
 91
        2
280
     0
281
     0
  0
ENDSEC
  0
SECTION
  2
TABLES
  0
TABLE
  2
VPORT
  5
8
330
0
100
AcDbSymbolTable
 70
     1
  0
VPORT
  5
57
330
8
100
AcDbSymbolTableRecord
100
AcDbViewportTableRecord
  2
*Active
 70
     0
 10
0.0
 20
0.0
 11
1.0
 21
1.0
 12
297.6132748769501
 22
417.3183589393
 13
0.0
 23
0.0
 14
1.0
 24
1.0
 15
0.0
 25
0.0
 16
0.0
 26
0.0
 36
1.0
 17
0.0
 27
0.0
 37
0.0
 40
3437.651089547404
 41
2.133848133848133
 42
50.0
 43
0.0
 44
0.0
 50
0.0
 51
0.0
 71
     0
 72
   100
 73
     1
 74
     1
 75
     0
 76
     0
 77
     0
 78
     0
281
     0
 65
     1
110
0.0
120
0.0
130
0.0
111
1.0
121
0.0
131
0.0
112
0.0
122
1.0
132
0.0
 79
     0
146
0.0
348
2F
 60
     3
 61
     5
292
     1
282
     1
141
0.0
142
0.0
 63
   250
421
  3355443
361
1DE
  0
ENDTAB
  0
TABLE
  2
LTYPE
  5
5
330
0
100
AcDbSymbolTable
 70
     1
  0
LTYPE
  5
5B
330
5
100
AcDbSymbolTableRecord
100
AcDbLinetypeTableRecord
  2
ByBlock
 70
     0
  3

 72
    65
 73
     0
 40
0.0
  0
LTYPE
  5
5C
330
5
100
AcDbSymbolTableRecord
100
AcDbLinetypeTableRecord
  2
ByLayer
 70
     0
  3

 72
    65
 73
     0
 40
0.0
  0
LTYPE
  5
5D
330
5
100
AcDbSymbolTableRecord
100
AcDbLinetypeTableRecord
  2
Continuous
 70
     0
  3
Solid line
 72
    65
 73
     0
 40
0.0
  0
ENDTAB
  0
TABLE
  2
LAYER
  5
2
330
0
100
AcDbSymbolTable
 70
     2
  0
LAYER
  5
54
330
2
100
AcDbSymbolTableRecord
100
AcDbLayerTableRecord
  2
0
 70
     0
 62
     7
  6
Continuous
370
    -3
390
F
347
21
  0
LAYER
  5
7A
330
2
100
AcDbSymbolTableRecord
100
AcDbLayerTableRecord
  2
IKE01012-T1
 70
     0
 62
    37
420
  7756851
  6
Continuous
370
    -3
390
F
347
21
  0
ENDTAB
  0
TABLE
  2
STYLE
  5
3
330
0
100
AcDbSymbolTable
 70
     2
  0
STYLE
  5
55
330
3
100
AcDbSymbolTableRecord
100
AcDbTextStyleTableRecord
  2
Standard
 70
     0
 40
0.0
 41
1.0
 50
0.0
 71
     0
 42
0.2
  3
txt
  4

  0
STYLE
  5
5A
330
3
100
AcDbSymbolTableRecord
100
AcDbTextStyleTableRecord
  2
Annotative
 70
     0
 40
0.0
 41
1.0
 50
0.0
 71
     0
 42
0.2
  3
txt
  4

1001
AcadAnnotative
1000
AnnotativeData
1002
{
1070
     1
1070
     1
1002
}
  0
ENDTAB
  0
TABLE
  2
VIEW
  5
6
330
0
100
AcDbSymbolTable
 70
     0
  0
ENDTAB
  0
TABLE
  2
UCS
  5
7
330
0
100
AcDbSymbolTable
 70
     0
  0
ENDTAB
  0
TABLE
  2
APPID
  5
9
330
0
100
AcDbSymbolTable
 70
     4
  0
APPID
  5
56
330
9
100
AcDbSymbolTableRecord
100
AcDbRegAppTableRecord
  2
ACAD
 70
     0
  0
APPID
  5
5E
330
9
100
AcDbSymbolTableRecord
100
AcDbRegAppTableRecord
  2
AcadAnnotative
 70
     0
  0
APPID
  5
74
330
9
100
AcDbSymbolTableRecord
100
AcDbRegAppTableRecord
  2
REVIT
 70
     0
  0
APPID
  5
250
330
9
100
AcDbSymbolTableRecord
100
AcDbRegAppTableRecord
  2
ACAD_MLEADERVER
 70
     0
  0
ENDTAB
  0
TABLE
  2
DIMSTYLE
  5
A
330
0
100
AcDbSymbolTable
 70
     2
100
AcDbDimStyleTable
 71
     0
  0
DIMSTYLE
105
58
330
A
100
AcDbSymbolTableRecord
100
AcDbDimStyleTableRecord
  2
Standard
 70
     0
340
55
  0
DIMSTYLE
105
59
330
A
100
AcDbSymbolTableRecord
100
AcDbDimStyleTableRecord
  2
Annotative
 70
     0
340
55
1001
AcadAnnotative
1000
AnnotativeData
1002
{
1070
     1
1070
     1
1002
}
  0
ENDTAB
  0
TABLE
  2
BLOCK_RECORD
  5
1
330
0
100
AcDbSymbolTable
 70
     1
  0
BLOCK_RECORD
  5
6C
102
{ACAD_XDICTIONARY
360
1DC
102
}
330
1
100
AcDbSymbolTableRecord
100
AcDbBlockTableRecord
  2
*Model_Space
340
6F
 70
     0
280
     1
281
     0
  0
BLOCK_RECORD
  5
68
330
1
100
AcDbSymbolTableRecord
100
AcDbBlockTableRecord
  2
*Paper_Space
340
6B
 70
     0
280
     1
281
     0
  0
BLOCK_RECORD
  5
70
330
1
100
AcDbSymbolTableRecord
100
AcDbBlockTableRecord
  2
*Paper_Space0
340
73
 70
     0
280
     1
281
     0
  0
ENDTAB
  0
ENDSEC
  0
SECTION
  2
BLOCKS
  0
BLOCK
  5
6D
330
6C
100
AcDbEntity
  8
0
100
AcDbBlockBegin
  2
*Model_Space
 70
     0
 10
0.0
 20
0.0
 30
0.0
  3
*Model_Space
  1

  0
ENDBLK
  5
6E
330
6C
100
AcDbEntity
  8
0
100
AcDbBlockEnd
  0
BLOCK
  5
69
330
68
100
AcDbEntity
 67
     1
  8
0
100
AcDbBlockBegin
  2
*Paper_Space
 70
     0
 10
0.0
 20
0.0
 30
0.0
  3
*Paper_Space
  1

  0
ENDBLK
  5
6A
330
68
100
AcDbEntity
 67
     1
  8
0
100
AcDbBlockEnd
  0
BLOCK
  5
71
330
70
100
AcDbEntity
 67
     1
  8
0
100
AcDbBlockBegin
  2
*Paper_Space0
 70
     0
 10
0.0
 20
0.0
 30
0.0
  3
*Paper_Space0
  1

  0
ENDBLK
  5
72
330
70
100
AcDbEntity
 67
     1
  8
0
100
AcDbBlockEnd
  0
ENDSEC
  0
SECTION
  2
ENTITIES
  0
LINE
  5
7B
330
6C
100
AcDbEntity
  8
IKE01012-T1
100
AcDbLine
 10
-532.3259314460271
 20
789.8981884361636
 30
0.0
 11
-1042.09379834361
 21
789.8981884361636
 31
0.0
1001
REVIT
1002
{
1070
     1
1000
1960
1002
}
1002
{
1070
     2
1000
-2000080
1002
}
  0
LINE
  5
7C
330
6C
100
AcDbEntity
  8
IKE01012-T1
100
AcDbLine
 10
-1042.09379834361
 20
789.8981884361636
 30
0.0
 11
-1042.09379834361
 21
7.775870168341302
 31
0.0
1001
REVIT
1002
{
1070
     1
1000
1960
1002
}
1002
{
1070
     2
1000
-2000080
1002
}
  0
LINE
  5
7D
330
6C
100
AcDbEntity
  8
IKE01012-T1
100
AcDbLine
 10
-1042.09379834361
 20
7.775870168341302
 30
0.0
 11
-532.3259314460271
 21
7.775870168341302
 31
0.0
1001
REVIT
1002
{
1070
     1
1000
1960
1002
}
1002
{
1070
     2
1000
-2000080
1002
}
  0
LINE
  5
7E
330
6C
100
AcDbEntity
  8
IKE01012-T1
100
AcDbLine
 10
-532.3259314460271
 20
7.775870168341302
 30
0.0
 11
-532.3259314460271
 21
789.8981884361636
 31
0.0
1001
REVIT
1002
{
1070
     1
1000
1960
1002
}
1002
{
1070
     2
1000
-2000080
1002
}
  0
LINE
  5
7F
330
6C
100
AcDbEntity
  8
IKE01012-T1
100
AcDbLine
 10
839.1391567307003
 20
9.868765676153802
 30
0.0
 11
839.1391567307003
 21
791.5806438804995
 31
0.0
1001
REVIT
1002
{
1070
     1
1000
2085
1002
}
1002
{
1070
     2
1000
-2000080
1002
}
  0
LINE
  5
80
330
6C
100
AcDbEntity
  8
IKE01012-T1
100
AcDbLine
 10
839.1391567307003
 20
791.5806438804995
 30
0.0
 11
-529.1479277534001
 21
791.5806438804995
 31
0.0
1001
REVIT
1002
{
1070
     1
1000
2085
1002
}
1002
{
1070
     2
1000
-2000080
1002
}
  0
LINE
  5
81
330
6C
100
AcDbEntity
  8
IKE01012-T1
100
AcDbLine
 10
-529.1479277534001
 20
791.5806438804995
 30
0.0
 11
-529.1479277534001
 21
9.868765676153802
 31
0.0
1001
REVIT
1002
{
1070
     1
1000
2085
1002
}
1002
{
1070
     2
1000
-2000080
1002
}
  0
LINE
  5
82
330
6C
100
AcDbEntity
  8
IKE01012-T1
100
AcDbLine
 10
-529.1479277534001
 20
9.868765676153802
 30
0.0
 11
839.1391567307003
 21
9.868765676153802
 31
0.0
1001
REVIT
1002
{
1070
     1
1000
2085
1002
}
1002
{
1070
     2
1000
-2000080
1002
}
  0
LINE
  5
83
330
6C
100
AcDbEntity
  8
IKE01012-T1
100
AcDbLine
 10
219.6575140894897
 20
1375.211629493641
 30
0.0
 11
219.6575140894897
 21
960.1348787914373
 31
0.0
1001
REVIT
1002
{
1070
     1
1000
5306
1002
}
1002
{
1070
     2
1000
-2000080
1002
}
  0
LINE
  5
84
330
6C
100
AcDbEntity
  8
IKE01012-T1
100
AcDbLine
 10
194.1580609595599
 20
960.1348787914373
 30
0.0
 11
194.1580609595599
 21
1375.211629493641
 31
0.0
1001
REVIT
1002
{
1070
     1
1000
5306
1002
}
1002
{
1070
     2
1000
-2000080
1002
}
  0
LINE
  5
85
330
6C
100
AcDbEntity
  8
IKE01012-T1
100
AcDbLine
 10
219.6575140894897
 20
960.1348787914373
 30
0.0
 11
194.1580609595599
 21
960.1348787914373
 31
0.0
1001
REVIT
1002
{
1070
     1
1000
5306
1002
}
1002
{
1070
     2
1000
-2000080
1002
}
  0
LINE
  5
86
330
6C
100
AcDbEntity
  8
IKE01012-T1
100
AcDbLine
 10
642.3317288947185
 20
1375.211629493641
 30
0.0
 11
642.3317288947185
 21
960.1348787914359
 31
0.0
1001
REVIT
1002
{
1070
     1
1000
5933
1002
}
1002
{
1070
     2
1000
-2000080
1002
}
  0
LINE
  5
87
330
6C
100
AcDbEntity
  8
IKE01012-T1
100
AcDbLine
 10
616.8322757647887
 20
960.1348787914359
 30
0.0
 11
616.8322757647887
 21
1375.211629493641
 31
0.0
1001
REVIT
1002
{
1070
     1
1000
5933
1002
}
1002
{
1070
     2
1000
-2000080
1002
}
  0
LINE
  5
88
330
6C
100
AcDbEntity
  8
IKE01012-T1
100
AcDbLine
 10
642.3317288947185
 20
960.1348787914359
 30
0.0
 11
616.8322757647887
 21
960.1348787914359
 31
0.0
1001
REVIT
1002
{
1070
     1
1000
5933
1002
}
1002
{
1070
     2
1000
-2000080
1002
}
  0
LINE
  5
89
330
6C
100
AcDbEntity
  8
IKE01012-T1
100
AcDbLine
 10
194.1412928022103
 20
1330.108559388383
 30
0.0
 11
194.1580609595604
 21
1330.108559388383
 31
0.0
1001
REVIT
1002
{
1070
     1
1000
5956
1002
}
1002
{
1070
     2
1000
-2000080
1002
}
  0
LINE
  5
8A
330
6C
100
AcDbEntity
  8
IKE01012-T1
100
AcDbLine
 10
219.6575140894899
 20
1330.108559388383
 30
0.0
 11
219.7835095831535
 21
1330.108559388383
 31
0.0
1001
REVIT
1002
{
1070
     1
1000
5956
1002
}
1002
{
1070
     2
1000
-2000080
1002
}
  0
LINE
  5
8B
330
6C
100
AcDbEntity
  8
IKE01012-T1
100
AcDbLine
 10
219.783509583153
 20
1473.948574317558
 30
0.0
 11
219.783509583153
 21
1464.828497449038
 31
0.0
1001
REVIT
1002
{
1070
     1
1000
5956
1002
}
1002
{
1070
     2
1000
-2000080
1002
}
  0
LINE
  5
8C
330
6C
100
AcDbEntity
  8
IKE01012-T1
100
AcDbLine
 10
219.783509583153
 20
1399.653469745252
 30
0.0
 11
219.783509583153
 21
1375.211629493641
 31
0.0
1001
REVIT
1002
{
1070
     1
1000
5956
1002
}
1002
{
1070
     2
1000
-2000080
1002
}
  0
LINE
  5
8D
330
6C
100
AcDbEntity
  8
IKE01012-T1
100
AcDbLine
 10
194.14129280221
 20
1375.211629493641
 30
0.0
 11
194.14129280221
 21
1401.566551509278
 31
0.0
1001
REVIT
1002
{
1070
     1
1000
5956
1002
}
1002
{
1070
     2
1000
-2000080
1002
}
  0
LINE
  5
8E
330
6C
100
AcDbEntity
  8
IKE01012-T1
100
AcDbLine
 10
194.14129280221
 20
1464.828497449038
 30
0.0
 11
194.14129280221
 21
1473.948574317558
 31
0.0
1001
REVIT
1002
{
1070
     1
1000
5956
1002
}
1002
{
1070
     2
1000
-2000080
1002
}
  0
LINE
  5
8F
330
6C
100
AcDbEntity
  8
IKE01012-T1
100
AcDbLine
 10
194.14129280221
 20
1473.948574317558
 30
0.0
 11
219.783509583153
 21
1473.948574317558
 31
0.0
1001
REVIT
1002
{
1070
     1
1000
5956
1002
}
1002
{
1070
     2
1000
-2000080
1002
}
  0
LINE
  5
90
330
6C
100
AcDbEntity
  8
IKE01012-T1
100
AcDbLine
 10
194.14129280221
 20
1334.45771626631
 30
0.0
 11
194.1580609595602
 21
1334.45771626631
 31
0.0
1001
REVIT
1002
{
1070
     1
1000
5956
1002
}
1002
{
1070
     2
1000
-2000080
1002
}
  0
LINE
  5
91
330
6C
100
AcDbEntity
  8
IKE01012-T1
100
AcDbLine
 10
219.6575140894896
 20
1334.45771626631
 30
0.0
 11
219.783509583153
 21
1334.45771626631
 31
0.0
1001
REVIT
1002
{
1070
     1
1000
5956
1002
}
1002
{
1070
     2
1000
-2000080
1002
}
  0
LINE
  5
92
330
6C
100
AcDbEntity
  8
IKE01012-T1
100
AcDbLine
 10
616.6895121137765
 20
1330.108559388383
 30
0.0
 11
616.8322757647899
 21
1330.108559388383
 31
0.0
1001
REVIT
1002
{
1070
     1
1000
6305
1002
}
1002
{
1070
     2
1000
-2000080
1002
}
  0
LINE
  5
93
330
6C
100
AcDbEntity
  8
IKE01012-T1
100
AcDbLine
 10
642.3317288947185
 20
1473.948574317558
 30
0.0
 11
642.3317288947185
 21
1464.828497449032
 31
0.0
1001
REVIT
1002
{
1070
     1
1000
6305
1002
}
1002
{
1070
     2
1000
-2000080
1002
}
  0
LINE
  5
94
330
6C
100
AcDbEntity
  8
IKE01012-T1
100
AcDbLine
 10
642.3317288947185
 20
1399.653469745252
 30
0.0
 11
642.3317288947185
 21
1375.211629493641
 31
0.0
1001
REVIT
1002
{
1070
     1
1000
6305
1002
}
1002
{
1070
     2
1000
-2000080
1002
}
  0
LINE
  5
95
330
6C
100
AcDbEntity
  8
IKE01012-T1
100
AcDbLine
 10
616.6895121137754
 20
1375.211629493641
 30
0.0
 11
616.6895121137754
 21
1399.653469745252
 31
0.0
1001
REVIT
1002
{
1070
     1
1000
6305
1002
}
1002
{
1070
     2
1000
-2000080
1002
}
  0
LINE
  5
96
330
6C
100
AcDbEntity
  8
IKE01012-T1
100
AcDbLine
 10
616.6895121137754
 20
1464.828497449033
 30
0.0
 11
616.6895121137754
 21
1473.948574317558
 31
0.0
1001
REVIT
1002
{
1070
     1
1000
6305
1002
}
1002
{
1070
     2
1000
-2000080
1002
}
  0
LINE
  5
97
330
6C
100
AcDbEntity
  8
IKE01012-T1
100
AcDbLine
 10
616.6895121137754
 20
1473.948574317558
 30
0.0
 11
642.3317288947185
 21
1473.948574317558
 31
0.0
1001
REVIT
1002
{
1070
     1
1000
6305
1002
}
1002
{
1070
     2
1000
-2000080
1002
}
  0
LINE
  5
98
330
6C
100
AcDbEntity
  8
IKE01012-T1
100
AcDbLine
 10
616.6895121137754
 20
1334.45771626631
 30
0.0
 11
616.8322757647887
 21
1334.45771626631
 31
0.0
1001
REVIT
1002
{
1070
     1
1000
6305
1002
}
1002
{
1070
     2
1000
-2000080
1002
}
  0
LINE
  5
99
330
6C
100
AcDbEntity
  8
IKE01012-T1
100
AcDbLine
 10
665.7488954714857
 20
1406.108115621199
 30
0.0
 11
665.7488954714857
 21
1412.830480878928
 31
0.0
1001
REVIT
1002
{
1070
     1
1000
6371
1002
}
1002
{
1070
     2
1000
-2000080
1002
}
  0
LINE
  5
9A
330
6C
100
AcDbEntity
  8
IKE01012-T1
100
AcDbLine
 10
671.4206798656237
 20
1421.335063788133
 30
0.0
 11
671.4206798656237
 21
1460.414695786773
 31
0.0
1001
REVIT
1002
{
1070
     1
1000
6371
1002
}
1002
{
1070
     2
1000
-2000080
1002
}
  0
LINE
  5
9B
330
6C
100
AcDbEntity
  8
IKE01012-T1
100
AcDbLine
 10
166.1748952982244
 20
1460.686948161265
 30
0.0
 11
166.1748952982244
 21
1421.607316162625
 31
0.0
1001
REVIT
1002
{
1070
     1
1000
6371
1002
}
1002
{
1070
     2
1000
-2000080
1002
}
  0
LINE
  5
9C
330
6C
100
AcDbEntity
  8
IKE01012-T1
100
AcDbLine
 10
166.1748952982242
 20
1421.607316162624
 30
0.0
 11
172.6171165344532
 21
1407.622438521399
 31
0.0
1001
REVIT
1002
{
1070
     1
1000
6371
1002
}
1002
{
1070
     2
1000
-2000080
1002
}
  0
ELLIPSE
  5
9D
330
6C
100
AcDbEntity
  8
IKE01012-T1
100
AcDbEllipse
 10
219.7835095831645
 20
1414.242922095164
 30
0.0
 11
52.92988066391751
 21
0.0
 31
0.0
210
0.0
220
0.0
230
1.0
 40
0.2756373558169975
 41
3.612601615011103
 42
4.712388980384666
1001
REVIT
1002
{
1070
     1
1000
6371
1002
}
1002
{
1070
     2
1000
-2000080
1002
}
  0
LINE
  5
9E
330
6C
100
AcDbEntity
  8
IKE01012-T1
100
AcDbLine
 10
219.7835095831639
 20
1399.653469745252
 30
0.0
 11
642.3317288947181
 21
1399.653469745252
 31
0.0
1001
REVIT
1002
{
1070
     1
1000
6371
1002
}
1002
{
1070
     2
1000
-2000080
1002
}
  0
ELLIPSE
  5
9F
330
6C
100
AcDbEntity
  8
IKE01012-T1
100
AcDbEllipse
 10
642.3317288947181
 20
1406.108115621198
 30
0.0
 11
23.41716657676625
 21
0.0
 31
0.0
210
0.0
220
0.0
230
1.0
 40
0.2756373558170051
 41
4.712388980384679
 42
6.520002408222856
1001
REVIT
1002
{
1070
     1
1000
6371
1002
}
1002
{
1070
     2
1000
-2000080
1002
}
  0
LINE
  5
A0
330
6C
100
AcDbEntity
  8
IKE01012-T1
100
AcDbLine
 10
665.0953138468083
 20
1407.622438521399
 30
0.0
 11
671.4206798656227
 21
1421.335063788131
 31
0.0
1001
REVIT
1002
{
1070
     1
1000
6371
1002
}
1002
{
1070
     2
1000
-2000080
1002
}
  0
ELLIPSE
  5
A1
330
6C
100
AcDbEntity
  8
IKE01012-T1
100
AcDbEllipse
 10
652.023328315894
 20
1421.335063788131
 30
0.0
 11
-19.39735154972857
 21
0.0000000000001089
 31
0.0
210
0.0
220
0.0
230
1.0
 40
0.2756373558170001
 41
3.141592653589766
 42
3.40338310512525
1001
REVIT
1002
{
1070
     1
1000
6371
1002
}
1002
{
1070
     2
1000
-2000080
1002
}
  0
ELLIPSE
  5
A2
330
6C
100
AcDbEntity
  8
IKE01012-T1
100
AcDbEllipse
 10
652.023328315894
 20
1421.335063788131
 30
0.0
 11
19.39735154972859
 21
0.0
 31
0.0
210
0.0
220
0.0
230
1.0
 40
0.2756373558169934
 41
0.261802021237121
 42
0.5235987755982663
1001
REVIT
1002
{
1070
     1
1000
6371
1002
}
1002
{
1070
     2
1000
-2000080
1002
}
  0
ELLIPSE
  5
A3
330
6C
100
AcDbEntity
  8
IKE01012-T1
100
AcDbEllipse
 10
652.023328315894
 20
1421.335063788131
 30
0.0
 11
19.39735154972865
 21
0.0
 31
0.0
210
0.0
220
0.0
230
1.0
 40
0.2756373558169877
 41
0.5236016326937064
 42
1.047195435746756
1001
REVIT
1002
{
1070
     1
1000
6371
1002
}
1002
{
1070
     2
1000
-2000080
1002
}
  0
ELLIPSE
  5
A4
330
6C
100
AcDbEntity
  8
IKE01012-T1
100
AcDbEllipse
 10
652.023328315894
 20
1421.335063788131
 30
0.0
 11
19.39735154972862
 21
0.0
 31
0.0
210
0.0
220
0.0
230
1.0
 40
0.2756373558170034
 41
1.047197551196576
 42
1.308995330622979
1001
REVIT
1002
{
1070
     1
1000
6371
1002
}
1002
{
1070
     2
1000
-2000080
1002
}
  0
ELLIPSE
  5
A5
330
6C
100
AcDbEntity
  8
IKE01012-T1
100
AcDbEllipse
 10
652.023328315894
 20
1421.335063788131
 30
0.0
 11
19.39735154972863
 21
0.0
 31
0.0
210
0.0
220
0.0
230
1.0
 40
0.2756373558169897
 41
1.308996938995724
 42
1.570796326794878
1001
REVIT
1002
{
1070
     1
1000
6371
1002
}
1002
{
1070
     2
1000
-2000080
1002
}
  0
LINE
  5
A6
330
6C
100
AcDbEntity
  8
IKE01012-T1
100
AcDbLine
 10
652.023328315894
 20
1426.681698479151
 30
0.0
 11
184.5845362186432
 21
1426.681698479152
 31
0.0
1001
REVIT
1002
{
1070
     1
1000
6371
1002
}
1002
{
1070
     2
1000
-2000080
1002
}
  0
ELLIPSE
  5
A7
330
6C
100
AcDbEntity
  8
IKE01012-T1
100
AcDbEllipse
 10
184.5845274088198
 20
1421.607316162624
 30
0.0
 11
18.40963211059554
 21
0.0
 31
0.0
210
0.0
220
0.0
230
1.0
 40
0.2756373558169989
 41
1.570796326794893
 42
2.09439458293846
1001
REVIT
1002
{
1070
     1
1000
6371
1002
}
1002
{
1070
     2
1000
-2000080
1002
}
  0
ELLIPSE
  5
A8
330
6C
100
AcDbEntity
  8
IKE01012-T1
100
AcDbEllipse
 10
184.5845274088198
 20
1421.607316162624
 30
0.0
 11
18.40963211059557
 21
0.0
 31
0.0
210
0.0
220
0.0
230
0.9999999999999998
 40
0.2756373558169979
 41
2.094395102393186
 42
2.356194490192334
1001
REVIT
1002
{
1070
     1
1000
6371
1002
}
1002
{
1070
     2
1000
-2000080
1002
}
  0
ELLIPSE
  5
A9
330
6C
100
AcDbEntity
  8
IKE01012-T1
100
AcDbEllipse
 10
184.5845274088198
 20
1421.607316162624
 30
0.0
 11
18.40963211059554
 21
0.0
 31
0.0
210
0.0
220
0.0
230
1.0
 40
0.2756373558169957
 41
2.356195164394136
 42
2.617993430451739
1001
REVIT
1002
{
1070
     1
1000
6371
1002
}
1002
{
1070
     2
1000
-2000080
1002
}
  0
ELLIPSE
  5
AA
330
6C
100
AcDbEntity
  8
IKE01012-T1
100
AcDbEllipse
 10
184.5845274088198
 20
1421.607316162624
 30
0.0
 11
18.40963211059554
 21
0.0
 31
0.0
210
0.0
220
0.0
230
1.0
 40
0.2756373558170045
 41
2.617993877991483
 42
2.879792824533599
1001
REVIT
1002
{
1070
     1
1000
6371
1002
}
1002
{
1070
     2
1000
-2000080
1002
}
  0
ELLIPSE
  5
AB
330
6C
100
AcDbEntity
  8
IKE01012-T1
100
AcDbEllipse
 10
184.5845274088198
 20
1421.607316162624
 30
0.0
 11
18.40963211059556
 21
0.0
 31
0.0
210
0.0
220
0.0
230
1.0
 40
0.2756373558170002
 41
2.879793265790648
 42
3.141592653589793
1001
REVIT
1002
{
1070
     1
1000
6371
1002
}
1002
{
1070
     2
1000
-2000080
1002
}
  0
ELLIPSE
  5
AC
330
6C
100
AcDbEntity
  8
IKE01012-T1
100
AcDbEllipse
 10
184.5845274088198
 20
1460.686948161263
 30
0.0
 11
-18.40963211059554
 21
0.000000000000042
 31
0.0
210
0.0
220
0.0
230
1.0
 40
0.2756373558169989
 41
5.235987755982982
 42
6.283185307179596
1001
REVIT
1002
{
1070
     1
1000
6371
1002
}
1002
{
1070
     2
1000
-2000080
1002
}
  0
ELLIPSE
  5
AD
330
6C
100
AcDbEntity
  8
IKE01012-T1
100
AcDbEllipse
 10
184.5845274088198
 20
1460.686948161263
 30
0.0
 11
18.4096321105955
 21
0.0
 31
0.0
210
0.0
220
0.0
230
1.0
 40
0.2756373558169916
 41
1.832595714594041
 42
2.094394582938475
1001
REVIT
1002
{
1070
     1
1000
6371
1002
}
1002
{
1070
     2
1000
-2000080
1002
}
  0
ELLIPSE
  5
AE
330
6C
100
AcDbEntity
  8
IKE01012-T1
100
AcDbEllipse
 10
184.5845274088198
 20
1460.686948161263
 30
0.0
 11
18.40963211059552
 21
0.0
 31
0.0
210
0.0
220
0.0
230
1.0
 40
0.2756373558170018
 41
1.570796326794901
 42
1.832595644461832
1001
REVIT
1002
{
1070
     1
1000
6371
1002
}
1002
{
1070
     2
1000
-2000080
1002
}
  0
LINE
  5
AF
330
6C
100
AcDbEntity
  8
IKE01012-T1
100
AcDbLine
 10
184.5845362186433
 20
1465.761330477791
 30
0.0
 11
652.023328315894
 21
1465.761330477791
 31
0.0
1001
REVIT
1002
{
1070
     1
1000
6371
1002
}
1002
{
1070
     2
1000
-2000080
1002
}
  0
ELLIPSE
  5
B0
330
6C
100
AcDbEntity
  8
IKE01012-T1
100
AcDbEllipse
 10
652.023328315894
 20
1460.414695786771
 30
0.0
 11
19.39735154972857
 21
0.0
 31
0.0
210
0.0
220
0.0
230
1.0
 40
0.2756373558170001
 41
1.308996938995721
 42
1.570796326794884
1001
REVIT
1002
{
1070
     1
1000
6371
1002
}
1002
{
1070
     2
1000
-2000080
1002
}
  0
ELLIPSE
  5
B1
330
6C
100
AcDbEntity
  8
IKE01012-T1
100
AcDbEllipse
 10
652.023328315894
 20
1460.414695786771
 30
0.0
 11
19.3973515497286
 21
0.0
 31
0.0
210
0.0
220
0.0
230
1.0
 40
0.2756373558169987
 41
0.0
 42
1.308995330622989
1001
REVIT
1002
{
1070
     1
1000
6371
1002
}
1002
{
1070
     2
1000
-2000080
1002
}
  0
LINE
  5
B2
330
6C
100
AcDbEntity
  8
IKE01012-T1
100
AcDbLine
 10
166.1748952982242
 20
1421.607316162624
 30
0.0
 11
166.1748952982242
 21
1460.686948161263
 31
0.0
1001
REVIT
1002
{
1070
     1
1000
6371
1002
}
1002
{
1070
     2
1000
-2000080
1002
}
  0
LINE
  5
B3
330
6C
100
AcDbEntity
  8
IKE01012-T1
100
AcDbLine
 10
671.4206798656225
 20
1460.414695786771
 30
0.0
 11
671.4206798656225
 21
1421.335063788131
 31
0.0
1001
REVIT
1002
{
1070
     1
1000
6371
1002
}
1002
{
1070
     2
1000
-2000080
1002
}
  0
LINE
  5
B4
330
6C
100
AcDbEntity
  8
IKE01012-T1
100
AcDbLine
 10
616.8322757647886
 20
1362.056505919973
 30
0.0
 11
219.7835095831528
 21
1362.056505919974
 31
0.0
1001
REVIT
1002
{
1070
     1
1000
7103
1002
}
1002
{
1070
     2
1000
-2000080
1002
}
  0
ELLIPSE
  5
B5
330
6C
100
AcDbEntity
  8
IKE01012-T1
100
AcDbEllipse
 10
219.7835095831528
 20
1356.903014728648
 30
0.0
 11
18.69663557049534
 21
0.0
 31
0.0
210
0.0
220
0.0
230
1.0
 40
0.2756373558169892
 41
1.570796326794893
 42
1.577612866136558
1001
REVIT
1002
{
1070
     1
1000
7103
1002
}
1002
{
1070
     2
1000
-2000080
1002
}
  0
ELLIPSE
  5
B6
330
6C
100
AcDbEntity
  8
IKE01012-T1
100
AcDbEllipse
 10
219.7835095831528
 20
1356.903014728648
 30
0.0
 11
18.69663557049534
 21
0.0
 31
0.0
210
0.0
220
0.0
230
1.0
 40
0.2756373558169989
 41
4.705572441043023
 42
4.712388980384671
1001
REVIT
1002
{
1070
     1
1000
7103
1002
}
1002
{
1070
     2
1000
-2000080
1002
}
  0
LINE
  5
B7
330
6C
100
AcDbEntity
  8
IKE01012-T1
100
AcDbLine
 10
219.7835095831527
 20
1351.749523537323
 30
0.0
 11
616.8322757647886
 21
1351.749523537323
 31
0.0
1001
REVIT
1002
{
1070
     1
1000
7103
1002
}
1002
{
1070
     2
1000
-2000080
1002
}
  0
LINE
  5
B8
330
6C
100
AcDbEntity
  8
IKE01012-T1
100
AcDbLine
 10
219.7835095831528
 20
1379.714358296326
 30
0.0
 11
616.6895121137756
 21
1379.714358296326
 31
0.0
1001
REVIT
1002
{
1070
     1
1000
7103
1002
}
1002
{
1070
     2
1000
-2000080
1002
}
  0
LINE
  5
B9
330
6C
100
AcDbEntity
  8
IKE01012-T1
100
AcDbLine
 10
311.7311189499785
 20
1399.653469745252
 30
0.0
 11
286.6637344715412
 21
1395.972255697595
 31
0.0
1001
REVIT
1002
{
1070
     1
1000
7511
1002
}
1002
{
1070
     2
1000
-2000080
1002
}
  0
LINE
  5
BA
330
6C
100
AcDbEntity
  8
IKE01012-T1
100
AcDbLine
 10
286.6637344715412
 20
1395.972255697595
 30
0.0
 11
220.3272387565898
 21
1386.230564317989
 31
0.0
1001
REVIT
1002
{
1070
     1
1000
7511
1002
}
1002
{
1070
     2
1000
-2000080
1002
}
  0
LINE
  5
BB
330
6C
100
AcDbEntity
  8
IKE01012-T1
100
AcDbLine
 10
220.3272387565898
 20
1386.230564317988
 30
0.0
 11
247.2818443374156
 21
1386.230564317988
 31
0.0
1001
REVIT
1002
{
1070
     1
1000
7511
1002
}
1002
{
1070
     2
1000
-2000080
1002
}
  0
LINE
  5
BC
330
6C
100
AcDbEntity
  8
IKE01012-T1
100
AcDbLine
 10
247.2818443374155
 20
1386.230564317989
 30
0.0
 11
309.3486620364005
 21
1395.315754030122
 31
0.0
1001
REVIT
1002
{
1070
     1
1000
7511
1002
}
1002
{
1070
     2
1000
-2000080
1002
}
  0
LINE
  5
BD
330
6C
100
AcDbEntity
  8
IKE01012-T1
100
AcDbLine
 10
309.3486620364005
 20
1395.315754030122
 30
0.0
 11
338.9823609031535
 21
1399.653469745252
 31
0.0
1001
REVIT
1002
{
1070
     1
1000
7511
1002
}
1002
{
1070
     2
1000
-2000080
1002
}
  0
LINE
  5
BE
330
6C
100
AcDbEntity
  8
IKE01012-T1
100
AcDbLine
 10
503.04830217319
 20
1399.653469745252
 30
0.0
 11
532.6782510874087
 21
1395.315744014841
 31
0.0
1001
REVIT
1002
{
1070
     1
1000
7511
1002
}
1002
{
1070
     2
1000
-2000080
1002
}
  0
LINE
  5
BF
330
6C
100
AcDbEntity
  8
IKE01012-T1
100
AcDbLine
 10
532.6782510874087
 20
1395.315744014841
 30
0.0
 11
594.737446416819
 21
1386.230564317988
 31
0.0
1001
REVIT
1002
{
1070
     1
1000
7511
1002
}
1002
{
1070
     2
1000
-2000080
1002
}
  0
LINE
  5
C0
330
6C
100
AcDbEntity
  8
IKE01012-T1
100
AcDbLine
 10
594.737446416819
 20
1386.230564317988
 30
0.0
 11
616.6895121137756
 21
1386.230564317988
 31
0.0
1001
REVIT
1002
{
1070
     1
1000
7511
1002
}
1002
{
1070
     2
1000
-2000080
1002
}
  0
LINE
  5
C1
330
6C
100
AcDbEntity
  8
IKE01012-T1
100
AcDbLine
 10
616.6895121137754
 20
1386.965238835138
 30
0.0
 11
555.3627312776858
 21
1395.972245682314
 31
0.0
1001
REVIT
1002
{
1070
     1
1000
7511
1002
}
1002
{
1070
     2
1000
-2000080
1002
}
  0
LINE
  5
C2
330
6C
100
AcDbEntity
  8
IKE01012-T1
100
AcDbLine
 10
555.3627312776858
 20
1395.972245682314
 30
0.0
 11
530.2983466645597
 21
1399.653469745252
 31
0.0
1001
REVIT
1002
{
1070
     1
1000
7511
1002
}
1002
{
1070
     2
1000
-2000080
1002
}
  0
LINE
  5
C3
330
6C
100
AcDbEntity
  8
IKE01012-T1
100
AcDbLine
 10
598.0159266400038
 20
1399.653469745252
 30
0.0
 11
616.6895121137756
 21
1396.910897741136
 31
0.0
1001
REVIT
1002
{
1070
     1
1000
7511
1002
}
1002
{
1070
     2
1000
-2000080
1002
}
  0
LINE
  5
C4
330
6C
100
AcDbEntity
  8
IKE01012-T1
100
AcDbLine
 10
220.5758792434549
 20
1396.176223223987
 30
0.0
 11
220.3272387565898
 21
1396.176223223987
 31
0.0
1001
REVIT
1002
{
1070
     1
1000
7511
1002
}
1002
{
1070
     2
1000
-2000080
1002
}
  0
LINE
  5
C5
330
6C
100
AcDbEntity
  8
IKE01012-T1
100
AcDbLine
 10
220.3272387565898
 20
1396.176223223987
 30
0.0
 11
244.0057089492136
 21
1399.653469745252
 31
0.0
1001
REVIT
1002
{
1070
     1
1000
7511
1002
}
1002
{
1070
     2
1000
-2000080
1002
}
  0
LINE
  5
C6
330
6C
100
AcDbEntity
  8
IKE01012-T1
100
AcDbLine
 10
220.3272387565898
 20
1396.176223223987
 30
0.0
 11
220.3272387565898
 21
1386.230564317988
 31
0.0
1001
REVIT
1002
{
1070
     1
1000
7511
1002
}
1002
{
1070
     2
1000
-2000080
1002
}
  0
LINE
  5
C7
330
6C
100
AcDbEntity
  8
IKE01012-T1
100
AcDbLine
 10
219.6575140894895
 20
974.8789652485065
 30
0.0
 11
616.8322757647888
 21
974.8789652485065
 31
0.0
1001
REVIT
1002
{
1070
     1
1000
8477
1002
}
1002
{
1070
     2
1000
-2000080
1002
}
  0
LINE
  5
C8
330
6C
100
AcDbEntity
  8
IKE01012-T1
100
AcDbLine
 10
-219.6575140894897
 20
960.1348787914373
 30
0.0
 11
-219.6575140894897
 21
1375.211629493641
 31
0.0
1001
REVIT
1002
{
1070
     1
1000
8561
1002
}
1002
{
1070
     2
1000
-2000080
1002
}
  0
LINE
  5
C9
330
6C
100
AcDbEntity
  8
IKE01012-T1
100
AcDbLine
 10
-194.1580609595599
 20
1375.211629493641
 30
0.0
 11
-194.1580609595599
 21
960.1348787914373
 31
0.0
1001
REVIT
1002
{
1070
     1
1000
8561
1002
}
1002
{
1070
     2
1000
-2000080
1002
}
  0
LINE
  5
CA
330
6C
100
AcDbEntity
  8
IKE01012-T1
100
AcDbLine
 10
-194.1580609595599
 20
960.1348787914373
 30
0.0
 11
-219.6575140894897
 21
960.1348787914373
 31
0.0
1001
REVIT
1002
{
1070
     1
1000
8561
1002
}
1002
{
1070
     2
1000
-2000080
1002
}
  0
LINE
  5
CB
330
6C
100
AcDbEntity
  8
IKE01012-T1
100
AcDbLine
 10
-642.3317288947185
 20
960.1348787914359
 30
0.0
 11
-642.3317288947185
 21
1375.211629493641
 31
0.0
1001
REVIT
1002
{
1070
     1
1000
8570
1002
}
1002
{
1070
     2
1000
-2000080
1002
}
  0
LINE
  5
CC
330
6C
100
AcDbEntity
  8
IKE01012-T1
100
AcDbLine
 10
-616.8322757647887
 20
1375.211629493641
 30
0.0
 11
-616.8322757647887
 21
960.1348787914359
 31
0.0
1001
REVIT
1002
{
1070
     1
1000
8570
1002
}
1002
{
1070
     2
1000
-2000080
1002
}
  0
LINE
  5
CD
330
6C
100
AcDbEntity
  8
IKE01012-T1
100
AcDbLine
 10
-616.8322757647887
 20
960.1348787914359
 30
0.0
 11
-642.3317288947185
 21
960.1348787914359
 31
0.0
1001
REVIT
1002
{
1070
     1
1000
8570
1002
}
1002
{
1070
     2
1000
-2000080
1002
}
  0
LINE
  5
CE
330
6C
100
AcDbEntity
  8
IKE01012-T1
100
AcDbLine
 10
-219.7835095831532
 20
1330.108559388383
 30
0.0
 11
-219.6575140894897
 21
1330.108559388383
 31
0.0
1001
REVIT
1002
{
1070
     1
1000
8579
1002
}
1002
{
1070
     2
1000
-2000080
1002
}
  0
LINE
  5
CF
330
6C
100
AcDbEntity
  8
IKE01012-T1
100
AcDbLine
 10
-194.1580609595602
 20
1330.108559388383
 30
0.0
 11
-194.14129280221
 21
1330.108559388383
 31
0.0
1001
REVIT
1002
{
1070
     1
1000
8579
1002
}
1002
{
1070
     2
1000
-2000080
1002
}
  0
LINE
  5
D0
330
6C
100
AcDbEntity
  8
IKE01012-T1
100
AcDbLine
 10
-219.783509583153
 20
1375.211629493641
 30
0.0
 11
-219.783509583153
 21
1399.653469745252
 31
0.0
1001
REVIT
1002
{
1070
     1
1000
8579
1002
}
1002
{
1070
     2
1000
-2000080
1002
}
  0
LINE
  5
D1
330
6C
100
AcDbEntity
  8
IKE01012-T1
100
AcDbLine
 10
-219.783509583153
 20
1464.828497449038
 30
0.0
 11
-219.783509583153
 21
1473.948574317558
 31
0.0
1001
REVIT
1002
{
1070
     1
1000
8579
1002
}
1002
{
1070
     2
1000
-2000080
1002
}
  0
LINE
  5
D2
330
6C
100
AcDbEntity
  8
IKE01012-T1
100
AcDbLine
 10
-194.14129280221
 20
1473.948574317558
 30
0.0
 11
-194.14129280221
 21
1464.828497449039
 31
0.0
1001
REVIT
1002
{
1070
     1
1000
8579
1002
}
1002
{
1070
     2
1000
-2000080
1002
}
  0
LINE
  5
D3
330
6C
100
AcDbEntity
  8
IKE01012-T1
100
AcDbLine
 10
-194.14129280221
 20
1401.566551509278
 30
0.0
 11
-194.14129280221
 21
1375.211629493641
 31
0.0
1001
REVIT
1002
{
1070
     1
1000
8579
1002
}
1002
{
1070
     2
1000
-2000080
1002
}
  0
LINE
  5
D4
330
6C
100
AcDbEntity
  8
IKE01012-T1
100
AcDbLine
 10
-219.783509583153
 20
1473.948574317558
 30
0.0
 11
-194.14129280221
 21
1473.948574317558
 31
0.0
1001
REVIT
1002
{
1070
     1
1000
8579
1002
}
1002
{
1070
     2
1000
-2000080
1002
}
  0
LINE
  5
D5
330
6C
100
AcDbEntity
  8
IKE01012-T1
100
AcDbLine
 10
-219.783509583153
 20
1334.457716266309
 30
0.0
 11
-219.6575140894896
 21
1334.457716266309
 31
0.0
1001
REVIT
1002
{
1070
     1
1000
8579
1002
}
1002
{
1070
     2
1000
-2000080
1002
}
  0
LINE
  5
D6
330
6C
100
AcDbEntity
  8
IKE01012-T1
100
AcDbLine
 10
-194.1580609595602
 20
1334.457716266309
 30
0.0
 11
-194.14129280221
 21
1334.457716266309
 31
0.0
1001
REVIT
1002
{
1070
     1
1000
8579
1002
}
1002
{
1070
     2
1000
-2000080
1002
}
  0
LINE
  5
D7
330
6C
100
AcDbEntity
  8
IKE01012-T1
100
AcDbLine
 10
-616.8322757647894
 20
1330.108559388383
 30
0.0
 11
-616.6895121137762
 21
1330.108559388383
 31
0.0
1001
REVIT
1002
{
1070
     1
1000
8590
1002
}
1002
{
1070
     2
1000
-2000080
1002
}
  0
LINE
  5
D8
330
6C
100
AcDbEntity
  8
IKE01012-T1
100
AcDbLine
 10
-642.3317288947185
 20
1375.211629493641
 30
0.0
 11
-642.3317288947185
 21
1399.653469745252
 31
0.0
1001
REVIT
1002
{
1070
     1
1000
8590
1002
}
1002
{
1070
     2
1000
-2000080
1002
}
  0
LINE
  5
D9
330
6C
100
AcDbEntity
  8
IKE01012-T1
100
AcDbLine
 10
-642.3317288947185
 20
1464.828497449032
 30
0.0
 11
-642.3317288947185
 21
1473.948574317558
 31
0.0
1001
REVIT
1002
{
1070
     1
1000
8590
1002
}
1002
{
1070
     2
1000
-2000080
1002
}
  0
LINE
  5
DA
330
6C
100
AcDbEntity
  8
IKE01012-T1
100
AcDbLine
 10
-616.6895121137754
 20
1473.948574317558
 30
0.0
 11
-616.6895121137754
 21
1464.828497449033
 31
0.0
1001
REVIT
1002
{
1070
     1
1000
8590
1002
}
1002
{
1070
     2
1000
-2000080
1002
}
  0
LINE
  5
DB
330
6C
100
AcDbEntity
  8
IKE01012-T1
100
AcDbLine
 10
-616.6895121137754
 20
1399.653469745252
 30
0.0
 11
-616.6895121137754
 21
1375.211629493641
 31
0.0
1001
REVIT
1002
{
1070
     1
1000
8590
1002
}
1002
{
1070
     2
1000
-2000080
1002
}
  0
LINE
  5
DC
330
6C
100
AcDbEntity
  8
IKE01012-T1
100
AcDbLine
 10
-642.3317288947185
 20
1473.948574317558
 30
0.0
 11
-616.6895121137754
 21
1473.948574317558
 31
0.0
1001
REVIT
1002
{
1070
     1
1000
8590
1002
}
1002
{
1070
     2
1000
-2000080
1002
}
  0
LINE
  5
DD
330
6C
100
AcDbEntity
  8
IKE01012-T1
100
AcDbLine
 10
-616.8322757647887
 20
1334.457716266309
 30
0.0
 11
-616.6895121137754
 21
1334.457716266309
 31
0.0
1001
REVIT
1002
{
1070
     1
1000
8590
1002
}
1002
{
1070
     2
1000
-2000080
1002
}
  0
LINE
  5
DE
330
6C
100
AcDbEntity
  8
IKE01012-T1
100
AcDbLine
 10
-665.7488954714851
 20
1412.830480878928
 30
0.0
 11
-665.7488954714851
 21
1406.108115621199
 31
0.0
1001
REVIT
1002
{
1070
     1
1000
8601
1002
}
1002
{
1070
     2
1000
-2000080
1002
}
  0
LINE
  5
DF
330
6C
100
AcDbEntity
  8
IKE01012-T1
100
AcDbLine
 10
-671.4206798656232
 20
1460.414695786773
 30
0.0
 11
-671.4206798656232
 21
1421.335063788133
 31
0.0
1001
REVIT
1002
{
1070
     1
1000
8601
1002
}
1002
{
1070
     2
1000
-2000080
1002
}
  0
LINE
  5
E0
330
6C
100
AcDbEntity
  8
IKE01012-T1
100
AcDbLine
 10
-166.1748952982244
 20
1421.607316162625
 30
0.0
 11
-166.1748952982244
 21
1460.686948161265
 31
0.0
1001
REVIT
1002
{
1070
     1
1000
8601
1002
}
1002
{
1070
     2
1000
-2000080
1002
}
  0
ELLIPSE
  5
E1
330
6C
100
AcDbEntity
  8
IKE01012-T1
100
AcDbEllipse
 10
-184.5845274088198
 20
1421.607316162624
 30
0.0
 11
18.40963211059554
 21
0.0
 31
0.0
210
0.0
220
0.0
230
1.0
 40
0.2756373558169989
 41
0.0
 42
0.2617993877991458
1001
REVIT
1002
{
1070
     1
1000
8601
1002
}
1002
{
1070
     2
1000
-2000080
1002
}
  0
ELLIPSE
  5
E2
330
6C
100
AcDbEntity
  8
IKE01012-T1
100
AcDbEllipse
 10
-184.5845274088198
 20
1421.607316162624
 30
0.0
 11
18.40963211059554
 21
0.0
 31
0.0
210
0.0
220
0.0
230
1.0
 40
0.275637355817007
 41
0.2617998290561909
 42
0.5235987755983054
1001
REVIT
1002
{
1070
     1
1000
8601
1002
}
1002
{
1070
     2
1000
-2000080
1002
}
  0
ELLIPSE
  5
E3
330
6C
100
AcDbEntity
  8
IKE01012-T1
100
AcDbEllipse
 10
-184.5845274088198
 20
1421.607316162624
 30
0.0
 11
18.40963211059553
 21
0.0
 31
0.0
210
0.0
220
0.0
230
1.0
 40
0.2756373558169998
 41
0.5235992231380453
 42
0.7853974891956451
1001
REVIT
1002
{
1070
     1
1000
8601
1002
}
1002
{
1070
     2
1000
-2000080
1002
}
  0
ELLIPSE
  5
E4
330
6C
100
AcDbEntity
  8
IKE01012-T1
100
AcDbEllipse
 10
-184.5845274088198
 20
1421.607316162624
 30
0.0
 11
18.40963211059552
 21
0.0
 31
0.0
210
0.0
220
0.0
230
1.0
 40
0.2756373558170033
 41
0.7853981633974444
 42
1.04719755119659
1001
REVIT
1002
{
1070
     1
1000
8601
1002
}
1002
{
1070
     2
1000
-2000080
1002
}
  0
ELLIPSE
  5
E5
330
6C
100
AcDbEntity
  8
IKE01012-T1
100
AcDbEllipse
 10
-184.5845274088198
 20
1421.607316162624
 30
0.0
 11
18.40963211059549
 21
0.0
 31
0.0
210
0.0
220
0.0
230
1.0
 40
0.2756373558169917
 41
1.047198070651315
 42
1.570796326794887
1001
REVIT
1002
{
1070
     1
1000
8601
1002
}
1002
{
1070
     2
1000
-2000080
1002
}
  0
LINE
  5
E6
330
6C
100
AcDbEntity
  8
IKE01012-T1
100
AcDbLine
 10
-184.5845362186433
 20
1426.681698479152
 30
0.0
 11
-652.023328315894
 21
1426.681698479151
 31
0.0
1001
REVIT
1002
{
1070
     1
1000
8601
1002
}
1002
{
1070
     2
1000
-2000080
1002
}
  0
ELLIPSE
  5
E7
330
6C
100
AcDbEntity
  8
IKE01012-T1
100
AcDbEllipse
 10
-652.023328315894
 20
1421.335063788131
 30
0.0
 11
19.39735154972857
 21
0.0
 31
0.0
210
0.0
220
0.0
230
1.0
 40
0.2756373558170001
 41
1.570796326794884
 42
1.832595714594038
1001
REVIT
1002
{
1070
     1
1000
8601
1002
}
1002
{
1070
     2
1000
-2000080
1002
}
  0
ELLIPSE
  5
E8
330
6C
100
AcDbEntity
  8
IKE01012-T1
100
AcDbEllipse
 10
-652.023328315894
 20
1421.335063788131
 30
0.0
 11
19.3973515497286
 21
0.0
 31
0.0
210
0.0
220
0.0
230
1.0
 40
0.2756373558169987
 41
1.832597322966803
 42
2.094395102393194
1001
REVIT
1002
{
1070
     1
1000
8601
1002
}
1002
{
1070
     2
1000
-2000080
1002
}
  0
ELLIPSE
  5
E9
330
6C
100
AcDbEntity
  8
IKE01012-T1
100
AcDbEllipse
 10
-652.023328315894
 20
1421.335063788131
 30
0.0
 11
19.39735154972857
 21
0.0
 31
0.0
210
0.0
220
0.0
230
1.0
 40
0.2756373558170087
 41
2.09439721784307
 42
2.617991020896043
1001
REVIT
1002
{
1070
     1
1000
8601
1002
}
1002
{
1070
     2
1000
-2000080
1002
}
  0
ELLIPSE
  5
EA
330
6C
100
AcDbEntity
  8
IKE01012-T1
100
AcDbEllipse
 10
-652.023328315894
 20
1421.335063788131
 30
0.0
 11
19.39735154972865
 21
0.0
 31
0.0
210
0.0
220
0.0
230
1.0
 40
0.2756373558169929
 41
2.617993877991449
 42
2.879790632352669
1001
REVIT
1002
{
1070
     1
1000
8601
1002
}
1002
{
1070
     2
1000
-2000080
1002
}
  0
ELLIPSE
  5
EB
330
6C
100
AcDbEntity
  8
IKE01012-T1
100
AcDbEllipse
 10
-652.023328315894
 20
1421.335063788131
 30
0.0
 11
19.39735154972856
 21
0.0
 31
0.0
210
0.0
220
0.0
230
1.0
 40
0.2756373558169937
 41
2.879802202054342
 42
3.141592653589793
1001
REVIT
1002
{
1070
     1
1000
8601
1002
}
1002
{
1070
     2
1000
-2000080
1002
}
  0
LINE
  5
EC
330
6C
100
AcDbEntity
  8
IKE01012-T1
100
AcDbLine
 10
-671.4206798656225
 20
1421.335063788131
 30
0.0
 11
-665.0953138468082
 21
1407.622438521399
 31
0.0
1001
REVIT
1002
{
1070
     1
1000
8601
1002
}
1002
{
1070
     2
1000
-2000080
1002
}
  0
ELLIPSE
  5
ED
330
6C
100
AcDbEntity
  8
IKE01012-T1
100
AcDbEllipse
 10
-642.3317288947181
 20
1406.108115621198
 30
0.0
 11
23.41716657676627
 21
0.0
 31
0.0
210
0.0
220
0.0
230
1.0
 40
0.2756373558170015
 41
2.904775552546484
 42
4.712388980384679
1001
REVIT
1002
{
1070
     1
1000
8601
1002
}
1002
{
1070
     2
1000
-2000080
1002
}
  0
LINE
  5
EE
330
6C
100
AcDbEntity
  8
IKE01012-T1
100
AcDbLine
 10
-642.3317288947181
 20
1399.653469745252
 30
0.0
 11
-219.7835095831639
 21
1399.653469745252
 31
0.0
1001
REVIT
1002
{
1070
     1
1000
8601
1002
}
1002
{
1070
     2
1000
-2000080
1002
}
  0
ELLIPSE
  5
EF
330
6C
100
AcDbEntity
  8
IKE01012-T1
100
AcDbEllipse
 10
-219.7835095831645
 20
1414.242922095163
 30
0.0
 11
-52.92988066391754
 21
0.0000000000000738
 31
0.0
210
0.0
220
0.0
230
1.0
 40
0.2756373558169969
 41
1.570796326794896
 42
2.670583692168471
1001
REVIT
1002
{
1070
     1
1000
8601
1002
}
1002
{
1070
     2
1000
-2000080
1002
}
  0
LINE
  5
F0
330
6C
100
AcDbEntity
  8
IKE01012-T1
100
AcDbLine
 10
-172.6171165344532
 20
1407.622438521399
 30
0.0
 11
-166.1748952982242
 21
1421.607316162624
 31
0.0
1001
REVIT
1002
{
1070
     1
1000
8601
1002
}
1002
{
1070
     2
1000
-2000080
1002
}
  0
ELLIPSE
  5
F1
330
6C
100
AcDbEntity
  8
IKE01012-T1
100
AcDbEllipse
 10
-652.023328315894
 20
1460.414695786771
 30
0.0
 11
-19.39735154972857
 21
0.0000000000000658
 31
0.0
210
0.0
220
0.0
230
1.0
 40
0.2756373558170001
 41
4.9741899765566
 42
6.2831853071796
1001
REVIT
1002
{
1070
     1
1000
8601
1002
}
1002
{
1070
     2
1000
-2000080
1002
}
  0
ELLIPSE
  5
F2
330
6C
100
AcDbEntity
  8
IKE01012-T1
100
AcDbEllipse
 10
-652.023328315894
 20
1460.414695786771
 30
0.0
 11
19.39735154972873
 21
0.0
 31
0.0
210
0.0
220
0.0
230
1.0
 40
0.2756373558169995
 41
1.570796326794896
 42
1.832595714594043
1001
REVIT
1002
{
1070
     1
1000
8601
1002
}
1002
{
1070
     2
1000
-2000080
1002
}
  0
LINE
  5
F3
330
6C
100
AcDbEntity
  8
IKE01012-T1
100
AcDbLine
 10
-652.023328315894
 20
1465.761330477791
 30
0.0
 11
-184.5845362186432
 21
1465.761330477791
 31
0.0
1001
REVIT
1002
{
1070
     1
1000
8601
1002
}
1002
{
1070
     2
1000
-2000080
1002
}
  0
ELLIPSE
  5
F4
330
6C
100
AcDbEntity
  8
IKE01012-T1
100
AcDbEllipse
 10
-184.5845274088198
 20
1460.686948161263
 30
0.0
 11
18.40963211059554
 21
0.0
 31
0.0
210
0.0
220
0.0
230
1.0
 40
0.2756373558169989
 41
1.308997009127965
 42
1.570796326794891
1001
REVIT
1002
{
1070
     1
1000
8601
1002
}
1002
{
1070
     2
1000
-2000080
1002
}
  0
ELLIPSE
  5
F5
330
6C
100
AcDbEntity
  8
IKE01012-T1
100
AcDbEllipse
 10
-184.5845274088198
 20
1460.686948161263
 30
0.0
 11
18.40963211059555
 21
0.0
 31
0.0
210
0.0
220
0.0
230
1.0
 40
0.2756373558170002
 41
1.047198070651306
 42
1.308996938995745
1001
REVIT
1002
{
1070
     1
1000
8601
1002
}
1002
{
1070
     2
1000
-2000080
1002
}
  0
ELLIPSE
  5
F6
330
6C
100
AcDbEntity
  8
IKE01012-T1
100
AcDbEllipse
 10
-184.5845274088198
 20
1460.686948161263
 30
0.0
 11
18.40963211059555
 21
0.0
 31
0.0
210
0.0
220
0.0
230
1.0
 40
0.2756373558170043
 41
0.0
 42
1.047197551196593
1001
REVIT
1002
{
1070
     1
1000
8601
1002
}
1002
{
1070
     2
1000
-2000080
1002
}
  0
LINE
  5
F7
330
6C
100
AcDbEntity
  8
IKE01012-T1
100
AcDbLine
 10
-671.4206798656225
 20
1421.335063788131
 30
0.0
 11
-671.4206798656225
 21
1460.414695786771
 31
0.0
1001
REVIT
1002
{
1070
     1
1000
8601
1002
}
1002
{
1070
     2
1000
-2000080
1002
}
  0
LINE
  5
F8
330
6C
100
AcDbEntity
  8
IKE01012-T1
100
AcDbLine
 10
-166.1748952982242
 20
1460.686948161263
 30
0.0
 11
-166.1748952982242
 21
1421.607316162624
 31
0.0
1001
REVIT
1002
{
1070
     1
1000
8601
1002
}
1002
{
1070
     2
1000
-2000080
1002
}
  0
LINE
  5
F9
330
6C
100
AcDbEntity
  8
IKE01012-T1
100
AcDbLine
 10
-616.8322757647886
 20
1351.749523537323
 30
0.0
 11
-219.7835095831527
 21
1351.749523537323
 31
0.0
1001
REVIT
1002
{
1070
     1
1000
8612
1002
}
1002
{
1070
     2
1000
-2000080
1002
}
  0
ELLIPSE
  5
FA
330
6C
100
AcDbEntity
  8
IKE01012-T1
100
AcDbEllipse
 10
-219.7835095831528
 20
1356.903014728648
 30
0.0
 11
-18.69663557049534
 21
0.0000000000000178
 31
0.0
210
0.0
220
0.0
230
1.0
 40
0.2756373558170013
 41
1.570796326794894
 42
1.577612866136543
1001
REVIT
1002
{
1070
     1
1000
8612
1002
}
1002
{
1070
     2
1000
-2000080
1002
}
  0
ELLIPSE
  5
FB
330
6C
100
AcDbEntity
  8
IKE01012-T1
100
AcDbEllipse
 10
-219.7835095831528
 20
1356.903014728648
 30
0.0
 11
18.69663557049534
 21
0.0
 31
0.0
210
0.0
220
0.0
230
1.0
 40
0.2756373558169989
 41
1.563979787453241
 42
1.570796326794887
1001
REVIT
1002
{
1070
     1
1000
8612
1002
}
1002
{
1070
     2
1000
-2000080
1002
}
  0
LINE
  5
FC
330
6C
100
AcDbEntity
  8
IKE01012-T1
100
AcDbLine
 10
-219.7835095831528
 20
1362.056505919974
 30
0.0
 11
-616.8322757647886
 21
1362.056505919973
 31
0.0
1001
REVIT
1002
{
1070
     1
1000
8612
1002
}
1002
{
1070
     2
1000
-2000080
1002
}
  0
LINE
  5
FD
330
6C
100
AcDbEntity
  8
IKE01012-T1
100
AcDbLine
 10
-616.6895121137754
 20
1379.714358296326
 30
0.0
 11
-219.7835141658781
 21
1379.714358296326
 31
0.0
1001
REVIT
1002
{
1070
     1
1000
8612
1002
}
1002
{
1070
     2
1000
-2000080
1002
}
  0
LINE
  5
FE
330
6C
100
AcDbEntity
  8
IKE01012-T1
100
AcDbLine
 10
-530.2983466645596
 20
1399.653469745252
 30
0.0
 11
-555.3627312776858
 21
1395.972245682314
 31
0.0
1001
REVIT
1002
{
1070
     1
1000
8619
1002
}
1002
{
1070
     2
1000
-2000080
1002
}
  0
LINE
  5
FF
330
6C
100
AcDbEntity
  8
IKE01012-T1
100
AcDbLine
 10
-555.3627312776858
 20
1395.972245682314
 30
0.0
 11
-616.6895121137754
 21
1386.965238835138
 31
0.0
1001
REVIT
1002
{
1070
     1
1000
8619
1002
}
1002
{
1070
     2
1000
-2000080
1002
}
  0
LINE
  5
100
330
6C
100
AcDbEntity
  8
IKE01012-T1
100
AcDbLine
 10
-616.6895121137754
 20
1386.230564317988
 30
0.0
 11
-594.7374464168189
 21
1386.230564317988
 31
0.0
1001
REVIT
1002
{
1070
     1
1000
8619
1002
}
1002
{
1070
     2
1000
-2000080
1002
}
  0
LINE
  5
101
330
6C
100
AcDbEntity
  8
IKE01012-T1
100
AcDbLine
 10
-594.7374464168189
 20
1386.230564317988
 30
0.0
 11
-532.6782510874087
 21
1395.315744014841
 31
0.0
1001
REVIT
1002
{
1070
     1
1000
8619
1002
}
1002
{
1070
     2
1000
-2000080
1002
}
  0
LINE
  5
102
330
6C
100
AcDbEntity
  8
IKE01012-T1
100
AcDbLine
 10
-532.6782510874087
 20
1395.315744014841
 30
0.0
 11
-503.0483021731903
 21
1399.653469745252
 31
0.0
1001
REVIT
1002
{
1070
     1
1000
8619
1002
}
1002
{
1070
     2
1000
-2000080
1002
}
  0
LINE
  5
103
330
6C
100
AcDbEntity
  8
IKE01012-T1
100
AcDbLine
 10
-338.9823609031542
 20
1399.653469745252
 30
0.0
 11
-309.3486620364005
 21
1395.315754030122
 31
0.0
1001
REVIT
1002
{
1070
     1
1000
8619
1002
}
1002
{
1070
     2
1000
-2000080
1002
}
  0
LINE
  5
104
330
6C
100
AcDbEntity
  8
IKE01012-T1
100
AcDbLine
 10
-309.3486620364005
 20
1395.315754030122
 30
0.0
 11
-247.2818443374155
 21
1386.230564317989
 31
0.0
1001
REVIT
1002
{
1070
     1
1000
8619
1002
}
1002
{
1070
     2
1000
-2000080
1002
}
  0
LINE
  5
105
330
6C
100
AcDbEntity
  8
IKE01012-T1
100
AcDbLine
 10
-247.2818443374157
 20
1386.230564317988
 30
0.0
 11
-220.3272387565896
 21
1386.230564317989
 31
0.0
1001
REVIT
1002
{
1070
     1
1000
8619
1002
}
1002
{
1070
     2
1000
-2000080
1002
}
  0
LINE
  5
106
330
6C
100
AcDbEntity
  8
IKE01012-T1
100
AcDbLine
 10
-220.3272387565896
 20
1386.230564317989
 30
0.0
 11
-286.6637344715412
 21
1395.972255697595
 31
0.0
1001
REVIT
1002
{
1070
     1
1000
8619
1002
}
1002
{
1070
     2
1000
-2000080
1002
}
  0
LINE
  5
107
330
6C
100
AcDbEntity
  8
IKE01012-T1
100
AcDbLine
 10
-286.6637344715412
 20
1395.972255697595
 30
0.0
 11
-311.7311189499789
 21
1399.653469745252
 31
0.0
1001
REVIT
1002
{
1070
     1
1000
8619
1002
}
1002
{
1070
     2
1000
-2000080
1002
}
  0
LINE
  5
108
330
6C
100
AcDbEntity
  8
IKE01012-T1
100
AcDbLine
 10
-244.0057089492133
 20
1399.653469745252
 30
0.0
 11
-220.3272387565896
 21
1396.176223223987
 31
0.0
1001
REVIT
1002
{
1070
     1
1000
8619
1002
}
1002
{
1070
     2
1000
-2000080
1002
}
  0
LINE
  5
109
330
6C
100
AcDbEntity
  8
IKE01012-T1
100
AcDbLine
 10
-616.6895121137754
 20
1396.910897741136
 30
0.0
 11
-598.0159266400041
 21
1399.653469745252
 31
0.0
1001
REVIT
1002
{
1070
     1
1000
8619
1002
}
1002
{
1070
     2
1000
-2000080
1002
}
  0
LINE
  5
10A
330
6C
100
AcDbEntity
  8
IKE01012-T1
100
AcDbLine
 10
-220.3272387565896
 20
1386.230564317989
 30
0.0
 11
-220.3272387565896
 21
1396.176223223987
 31
0.0
1001
REVIT
1002
{
1070
     1
1000
8619
1002
}
1002
{
1070
     2
1000
-2000080
1002
}
  0
LINE
  5
10B
330
6C
100
AcDbEntity
  8
IKE01012-T1
100
AcDbLine
 10
-616.8322757647888
 20
974.8789652485065
 30
0.0
 11
-219.6575140894896
 21
974.8789652485065
 31
0.0
1001
REVIT
1002
{
1070
     1
1000
8650
1002
}
1002
{
1070
     2
1000
-2000080
1002
}
  0
LINE
  5
10C
330
6C
100
AcDbEntity
  8
IKE01012-T1
100
AcDbLine
 10
219.6575140894861
 20
-158.6854692347803
 30
0.0
 11
219.6575140894835
 21
-573.7622199369846
 31
0.0
1001
REVIT
1002
{
1070
     1
1000
8699
1002
}
1002
{
1070
     2
1000
-2000080
1002
}
  0
LINE
  5
10D
330
6C
100
AcDbEntity
  8
IKE01012-T1
100
AcDbLine
 10
194.1580609595536
 20
-573.7622199369842
 30
0.0
 11
194.1580609595563
 21
-158.6854692347802
 31
0.0
1001
REVIT
1002
{
1070
     1
1000
8699
1002
}
1002
{
1070
     2
1000
-2000080
1002
}
  0
LINE
  5
10E
330
6C
100
AcDbEntity
  8
IKE01012-T1
100
AcDbLine
 10
194.1580609595563
 20
-158.6854692347801
 30
0.0
 11
219.6575140894861
 21
-158.6854692347803
 31
0.0
1001
REVIT
1002
{
1070
     1
1000
8699
1002
}
1002
{
1070
     2
1000
-2000080
1002
}
  0
LINE
  5
10F
330
6C
100
AcDbEntity
  8
IKE01012-T1
100
AcDbLine
 10
642.3317288947149
 20
-158.6854692347816
 30
0.0
 11
642.3317288947123
 21
-573.762219936987
 31
0.0
1001
REVIT
1002
{
1070
     1
1000
8708
1002
}
1002
{
1070
     2
1000
-2000080
1002
}
  0
LINE
  5
110
330
6C
100
AcDbEntity
  8
IKE01012-T1
100
AcDbLine
 10
616.8322757647825
 20
-573.7622199369869
 30
0.0
 11
616.8322757647851
 21
-158.6854692347815
 31
0.0
1001
REVIT
1002
{
1070
     1
1000
8708
1002
}
1002
{
1070
     2
1000
-2000080
1002
}
  0
LINE
  5
111
330
6C
100
AcDbEntity
  8
IKE01012-T1
100
AcDbLine
 10
616.8322757647851
 20
-158.6854692347815
 30
0.0
 11
642.3317288947149
 21
-158.6854692347816
 31
0.0
1001
REVIT
1002
{
1070
     1
1000
8708
1002
}
1002
{
1070
     2
1000
-2000080
1002
}
  0
LINE
  5
112
330
6C
100
AcDbEntity
  8
IKE01012-T1
100
AcDbLine
 10
219.7835095831475
 20
-528.6591498317251
 30
0.0
 11
219.6575140894843
 21
-528.6591498317251
 31
0.0
1001
REVIT
1002
{
1070
     1
1000
8717
1002
}
1002
{
1070
     2
1000
-2000080
1002
}
  0
LINE
  5
113
330
6C
100
AcDbEntity
  8
IKE01012-T1
100
AcDbLine
 10
194.1580609595542
 20
-528.6591498317251
 30
0.0
 11
194.1412928022043
 21
-528.6591498317251
 31
0.0
1001
REVIT
1002
{
1070
     1
1000
8717
1002
}
1002
{
1070
     2
1000
-2000080
1002
}
  0
LINE
  5
114
330
6C
100
AcDbEntity
  8
IKE01012-T1
100
AcDbLine
 10
219.7835095831468
 20
-573.7622199369842
 30
0.0
 11
219.7835095831466
 21
-598.2040601885948
 31
0.0
1001
REVIT
1002
{
1070
     1
1000
8717
1002
}
1002
{
1070
     2
1000
-2000080
1002
}
  0
LINE
  5
115
330
6C
100
AcDbEntity
  8
IKE01012-T1
100
AcDbLine
 10
219.7835095831462
 20
-663.3790878923821
 30
0.0
 11
219.7835095831462
 21
-672.4991647609011
 31
0.0
1001
REVIT
1002
{
1070
     1
1000
8717
1002
}
1002
{
1070
     2
1000
-2000080
1002
}
  0
LINE
  5
116
330
6C
100
AcDbEntity
  8
IKE01012-T1
100
AcDbLine
 10
194.1412928022031
 20
-672.4991647609011
 30
0.0
 11
194.1412928022032
 21
-663.3790878923823
 31
0.0
1001
REVIT
1002
{
1070
     1
1000
8717
1002
}
1002
{
1070
     2
1000
-2000080
1002
}
  0
LINE
  5
117
330
6C
100
AcDbEntity
  8
IKE01012-T1
100
AcDbLine
 10
194.1412928022036
 20
-600.1171419526212
 30
0.0
 11
194.1412928022037
 21
-573.7622199369841
 31
0.0
1001
REVIT
1002
{
1070
     1
1000
8717
1002
}
1002
{
1070
     2
1000
-2000080
1002
}
  0
LINE
  5
118
330
6C
100
AcDbEntity
  8
IKE01012-T1
100
AcDbLine
 10
219.7835095831462
 20
-672.4991647609011
 30
0.0
 11
194.1412928022031
 21
-672.4991647609011
 31
0.0
1001
REVIT
1002
{
1070
     1
1000
8717
1002
}
1002
{
1070
     2
1000
-2000080
1002
}
  0
LINE
  5
119
330
6C
100
AcDbEntity
  8
IKE01012-T1
100
AcDbLine
 10
219.783509583147
 20
-533.0083067096522
 30
0.0
 11
219.6575140894837
 21
-533.0083067096522
 31
0.0
1001
REVIT
1002
{
1070
     1
1000
8717
1002
}
1002
{
1070
     2
1000
-2000080
1002
}
  0
LINE
  5
11A
330
6C
100
AcDbEntity
  8
IKE01012-T1
100
AcDbLine
 10
194.1580609595538
 20
-533.008306709652
 30
0.0
 11
194.141292802204
 21
-533.008306709652
 31
0.0
1001
REVIT
1002
{
1070
     1
1000
8717
1002
}
1002
{
1070
     2
1000
-2000080
1002
}
  0
LINE
  5
11B
330
6C
100
AcDbEntity
  8
IKE01012-T1
100
AcDbLine
 10
616.8322757647834
 20
-528.6591498317278
 30
0.0
 11
616.6895121137705
 21
-528.6591498317278
 31
0.0
1001
REVIT
1002
{
1070
     1
1000
8728
1002
}
1002
{
1070
     2
1000
-2000080
1002
}
  0
LINE
  5
11C
330
6C
100
AcDbEntity
  8
IKE01012-T1
100
AcDbLine
 10
642.3317288947123
 20
-573.7622199369869
 30
0.0
 11
642.3317288947121
 21
-598.2040601885976
 31
0.0
1001
REVIT
1002
{
1070
     1
1000
8728
1002
}
1002
{
1070
     2
1000
-2000080
1002
}
  0
LINE
  5
11D
330
6C
100
AcDbEntity
  8
IKE01012-T1
100
AcDbLine
 10
642.3317288947116
 20
-663.3790878923792
 30
0.0
 11
642.3317288947116
 21
-672.4991647609039
 31
0.0
1001
REVIT
1002
{
1070
     1
1000
8728
1002
}
1002
{
1070
     2
1000
-2000080
1002
}
  0
LINE
  5
11E
330
6C
100
AcDbEntity
  8
IKE01012-T1
100
AcDbLine
 10
616.6895121137685
 20
-672.4991647609037
 30
0.0
 11
616.6895121137685
 21
-663.3790878923791
 31
0.0
1001
REVIT
1002
{
1070
     1
1000
8728
1002
}
1002
{
1070
     2
1000
-2000080
1002
}
  0
LINE
  5
11F
330
6C
100
AcDbEntity
  8
IKE01012-T1
100
AcDbLine
 10
616.6895121137691
 20
-598.2040601885976
 30
0.0
 11
616.6895121137692
 21
-573.7622199369867
 31
0.0
1001
REVIT
1002
{
1070
     1
1000
8728
1002
}
1002
{
1070
     2
1000
-2000080
1002
}
  0
LINE
  5
120
330
6C
100
AcDbEntity
  8
IKE01012-T1
100
AcDbLine
 10
642.3317288947116
 20
-672.4991647609039
 30
0.0
 11
616.6895121137685
 21
-672.4991647609037
 31
0.0
1001
REVIT
1002
{
1070
     1
1000
8728
1002
}
1002
{
1070
     2
1000
-2000080
1002
}
  0
LINE
  5
121
330
6C
100
AcDbEntity
  8
IKE01012-T1
100
AcDbLine
 10
616.8322757647828
 20
-533.0083067096547
 30
0.0
 11
616.6895121137695
 21
-533.0083067096547
 31
0.0
1001
REVIT
1002
{
1070
     1
1000
8728
1002
}
1002
{
1070
     2
1000
-2000080
1002
}
  0
LINE
  5
122
330
6C
100
AcDbEntity
  8
IKE01012-T1
100
AcDbLine
 10
665.7488954714793
 20
-611.3810713222726
 30
0.0
 11
665.7488954714793
 21
-604.6587060645443
 31
0.0
1001
REVIT
1002
{
1070
     1
1000
8739
1002
}
1002
{
1070
     2
1000
-2000080
1002
}
  0
LINE
  5
123
330
6C
100
AcDbEntity
  8
IKE01012-T1
100
AcDbLine
 10
671.4206798656167
 20
-658.9652862301179
 30
0.0
 11
671.4206798656173
 21
-619.8856542314785
 31
0.0
1001
REVIT
1002
{
1070
     1
1000
8739
1002
}
1002
{
1070
     2
1000
-2000080
1002
}
  0
LINE
  5
124
330
6C
100
AcDbEntity
  8
IKE01012-T1
100
AcDbLine
 10
166.1748952982182
 20
-620.1579066059673
 30
0.0
 11
166.1748952982176
 21
-659.2375386046069
 31
0.0
1001
REVIT
1002
{
1070
     1
1000
8739
1002
}
1002
{
1070
     2
1000
-2000080
1002
}
  0
ELLIPSE
  5
125
330
6C
100
AcDbEntity
  8
IKE01012-T1
100
AcDbEllipse
 10
184.5845274088132
 20
-620.1579066059665
 30
0.0
 11
-18.40963211059554
 21
0.0000000000002219
 31
0.0
210
0.0
220
0.0
230
1.0
 40
0.2756373558169989
 41
0.0000000000000004
 42
0.2617933432099728
1001
REVIT
1002
{
1070
     1
1000
8739
1002
}
1002
{
1070
     2
1000
-2000080
1002
}
  0
ELLIPSE
  5
126
330
6C
100
AcDbEntity
  8
IKE01012-T1
100
AcDbEllipse
 10
184.5845274088132
 20
-620.1579066059665
 30
0.0
 11
18.40963211059552
 21
0.0
 31
0.0
210
0.0
220
0.0
230
1.0
 40
0.275637355816992
 41
3.403392482646899
 42
3.665191429188055
1001
REVIT
1002
{
1070
     1
1000
8739
1002
}
1002
{
1070
     2
1000
-2000080
1002
}
  0
ELLIPSE
  5
127
330
6C
100
AcDbEntity
  8
IKE01012-T1
100
AcDbEllipse
 10
184.5845274088132
 20
-620.1579066059665
 30
0.0
 11
18.40963211059553
 21
0.0
 31
0.0
210
0.0
220
0.0
230
1.0
 40
0.2756373558169983
 41
3.665191876728405
 42
3.926990142786038
1001
REVIT
1002
{
1070
     1
1000
8739
1002
}
1002
{
1070
     2
1000
-2000080
1002
}
  0
ELLIPSE
  5
128
330
6C
100
AcDbEntity
  8
IKE01012-T1
100
AcDbEllipse
 10
184.5845274088132
 20
-620.1579066059665
 30
0.0
 11
18.40963211059552
 21
0.0
 31
0.0
210
0.0
220
0.0
230
1.0
 40
0.2756373558169946
 41
3.926990816987215
 42
4.188790204786368
1001
REVIT
1002
{
1070
     1
1000
8739
1002
}
1002
{
1070
     2
1000
-2000080
1002
}
  0
ELLIPSE
  5
129
330
6C
100
AcDbEntity
  8
IKE01012-T1
100
AcDbEllipse
 10
184.5845274088132
 20
-620.1579066059665
 30
0.0
 11
18.40963211059551
 21
0.0
 31
0.0
210
0.0
220
0.0
230
1.0
 40
0.2756373558169933
 41
4.188790724241497
 42
4.712388980384672
1001
REVIT
1002
{
1070
     1
1000
8739
1002
}
1002
{
1070
     2
1000
-2000080
1002
}
  0
LINE
  5
12A
330
6C
100
AcDbEntity
  8
IKE01012-T1
100
AcDbLine
 10
184.5845362186431
 20
-625.2322889224947
 30
0.0
 11
652.0233283158873
 21
-625.2322889224972
 31
0.0
1001
REVIT
1002
{
1070
     1
1000
8739
1002
}
1002
{
1070
     2
1000
-2000080
1002
}
  0
ELLIPSE
  5
12B
330
6C
100
AcDbEntity
  8
IKE01012-T1
100
AcDbEllipse
 10
652.0233283158875
 20
-619.8856542314773
 30
0.0
 11
-19.39735154972857
 21
0.0000000000000227
 31
0.0
210
0.0
220
0.0
230
1.0
 40
0.2756373558169942
 41
1.57079632679488
 42
1.832595714594023
1001
REVIT
1002
{
1070
     1
1000
8739
1002
}
1002
{
1070
     2
1000
-2000080
1002
}
  0
ELLIPSE
  5
12C
330
6C
100
AcDbEntity
  8
IKE01012-T1
100
AcDbEllipse
 10
652.0233283158875
 20
-619.8856542314773
 30
0.0
 11
19.39735154972855
 21
0.0
 31
0.0
210
0.0
220
0.0
230
1.0
 40
0.2756373558169995
 41
4.974189976556941
 42
5.235987755982982
1001
REVIT
1002
{
1070
     1
1000
8739
1002
}
1002
{
1070
     2
1000
-2000080
1002
}
  0
ELLIPSE
  5
12D
330
6C
100
AcDbEntity
  8
IKE01012-T1
100
AcDbEllipse
 10
652.0233283158875
 20
-619.8856542314773
 30
0.0
 11
19.39735154972849
 21
0.0
 31
0.0
210
0.0
220
0.0
230
1.0
 40
0.2756373558169958
 41
5.235989871433273
 42
5.75958367448637
1001
REVIT
1002
{
1070
     1
1000
8739
1002
}
1002
{
1070
     2
1000
-2000080
1002
}
  0
ELLIPSE
  5
12E
330
6C
100
AcDbEntity
  8
IKE01012-T1
100
AcDbEllipse
 10
652.0233283158875
 20
-619.8856542314773
 30
0.0
 11
19.39735154972851
 21
0.0
 31
0.0
210
0.0
220
0.0
230
1.0
 40
0.275637355816997
 41
5.759586531581255
 42
6.021383285943278
1001
REVIT
1002
{
1070
     1
1000
8739
1002
}
1002
{
1070
     2
1000
-2000080
1002
}
  0
ELLIPSE
  5
12F
330
6C
100
AcDbEntity
  8
IKE01012-T1
100
AcDbEllipse
 10
652.0233283158875
 20
-619.8856542314773
 30
0.0
 11
19.39735154972862
 21
0.0
 31
0.0
210
0.0
220
0.0
230
1.0
 40
0.2756373558169996
 41
6.021385919380428
 42
6.283185307179558
1001
REVIT
1002
{
1070
     1
1000
8739
1002
}
1002
{
1070
     2
1000
-2000080
1002
}
  0
LINE
  5
130
330
6C
100
AcDbEntity
  8
IKE01012-T1
100
AcDbLine
 10
671.420679865616
 20
-619.8856542314773
 30
0.0
 11
665.0953138468018
 21
-606.1730289647447
 31
0.0
1001
REVIT
1002
{
1070
     1
1000
8739
1002
}
1002
{
1070
     2
1000
-2000080
1002
}
  0
ELLIPSE
  5
131
330
6C
100
AcDbEntity
  8
IKE01012-T1
100
AcDbEllipse
 10
642.3317288947117
 20
-604.6587060645435
 30
0.0
 11
23.41716657676627
 21
0.0
 31
0.0
210
0.0
220
0.0
230
1.0
 40
0.2756373558169991
 41
6.046368206136235
 42
7.853981633974477
1001
REVIT
1002
{
1070
     1
1000
8739
1002
}
1002
{
1070
     2
1000
-2000080
1002
}
  0
LINE
  5
132
330
6C
100
AcDbEntity
  8
IKE01012-T1
100
AcDbLine
 10
642.3317288947117
 20
-598.2040601885975
 30
0.0
 11
219.7835095831575
 21
-598.2040601885952
 31
0.0
1001
REVIT
1002
{
1070
     1
1000
8739
1002
}
1002
{
1070
     2
1000
-2000080
1002
}
  0
ELLIPSE
  5
133
330
6C
100
AcDbEntity
  8
IKE01012-T1
100
AcDbEllipse
 10
219.783509583158
 20
-612.7935125385065
 30
0.0
 11
-52.92988066391754
 21
0.0000000000002853
 31
0.0
210
0.0
220
0.0
230
1.0
 40
0.2756373558169969
 41
4.712388980384688
 42
5.812176345758249
1001
REVIT
1002
{
1070
     1
1000
8739
1002
}
1002
{
1070
     2
1000
-2000080
1002
}
  0
LINE
  5
134
330
6C
100
AcDbEntity
  8
IKE01012-T1
100
AcDbLine
 10
172.6171165344467
 20
-606.1730289647414
 30
0.0
 11
166.1748952982177
 21
-620.1579066059665
 31
0.0
1001
REVIT
1002
{
1070
     1
1000
8739
1002
}
1002
{
1070
     2
1000
-2000080
1002
}
  0
ELLIPSE
  5
135
330
6C
100
AcDbEntity
  8
IKE01012-T1
100
AcDbEllipse
 10
652.0233283158871
 20
-658.9652862301169
 30
0.0
 11
-19.39735154972868
 21
0.0000000000001003
 31
0.0
210
0.0
220
0.0
230
1.0
 40
0.2756373558169926
 41
1.832597322967179
 42
3.141592653589807
1001
REVIT
1002
{
1070
     1
1000
8739
1002
}
1002
{
1070
     2
1000
-2000080
1002
}
  0
ELLIPSE
  5
136
330
6C
100
AcDbEntity
  8
IKE01012-T1
100
AcDbEllipse
 10
652.0233283158871
 20
-658.9652862301169
 30
0.0
 11
19.39735154972862
 21
0.0
 31
0.0
210
0.0
220
0.0
230
1.0
 40
0.2756373558169924
 41
4.712388980384677
 42
4.974188368183829
1001
REVIT
1002
{
1070
     1
1000
8739
1002
}
1002
{
1070
     2
1000
-2000080
1002
}
  0
LINE
  5
137
330
6C
100
AcDbEntity
  8
IKE01012-T1
100
AcDbLine
 10
652.023328315887
 20
-664.3119209211367
 30
0.0
 11
184.5845362186433
 21
-664.3119209211342
 31
0.0
1001
REVIT
1002
{
1070
     1
1000
8739
1002
}
1002
{
1070
     2
1000
-2000080
1002
}
  0
ELLIPSE
  5
138
330
6C
100
AcDbEntity
  8
IKE01012-T1
100
AcDbEllipse
 10
184.584527408813
 20
-659.2375386046058
 30
0.0
 11
-18.40963211059551
 21
0.0000000000000992
 31
0.0
210
0.0
220
0.0
230
1.0
 40
0.2756373558170055
 41
1.308997009128349
 42
1.570796326794894
1001
REVIT
1002
{
1070
     1
1000
8739
1002
}
1002
{
1070
     2
1000
-2000080
1002
}
  0
ELLIPSE
  5
139
330
6C
100
AcDbEntity
  8
IKE01012-T1
100
AcDbEllipse
 10
184.584527408813
 20
-659.2375386046058
 30
0.0
 11
18.40963211059552
 21
0.0
 31
0.0
210
0.0
220
0.0
230
1.0
 40
0.2756373558169947
 41
4.188790724241512
 42
4.450589592585531
1001
REVIT
1002
{
1070
     1
1000
8739
1002
}
1002
{
1070
     2
1000
-2000080
1002
}
  0
ELLIPSE
  5
13A
330
6C
100
AcDbEntity
  8
IKE01012-T1
100
AcDbEllipse
 10
184.584527408813
 20
-659.2375386046058
 30
0.0
 11
18.40963211059555
 21
0.0
 31
0.0
210
0.0
220
0.0
230
1.0
 40
0.2756373558169991
 41
3.14159265358977
 42
4.188790204786377
1001
REVIT
1002
{
1070
     1
1000
8739
1002
}
1002
{
1070
     2
1000
-2000080
1002
}
  0
LINE
  5
13B
330
6C
100
AcDbEntity
  8
IKE01012-T1
100
AcDbLine
 10
671.420679865616
 20
-619.8856542314773
 30
0.0
 11
671.4206798656158
 21
-658.9652862301169
 31
0.0
1001
REVIT
1002
{
1070
     1
1000
8739
1002
}
1002
{
1070
     2
1000
-2000080
1002
}
  0
LINE
  5
13C
330
6C
100
AcDbEntity
  8
IKE01012-T1
100
AcDbLine
 10
166.1748952982174
 20
-659.2375386046058
 30
0.0
 11
166.1748952982177
 21
-620.1579066059665
 31
0.0
1001
REVIT
1002
{
1070
     1
1000
8739
1002
}
1002
{
1070
     2
1000
-2000080
1002
}
  0
LINE
  5
13D
330
6C
100
AcDbEntity
  8
IKE01012-T1
100
AcDbLine
 10
616.8322757647828
 20
-550.3001139806682
 30
0.0
 11
219.7835095831464
 21
-550.300113980666
 31
0.0
1001
REVIT
1002
{
1070
     1
1000
8750
1002
}
1002
{
1070
     2
1000
-2000080
1002
}
  0
ELLIPSE
  5
13E
330
6C
100
AcDbEntity
  8
IKE01012-T1
100
AcDbEllipse
 10
219.7835095831467
 20
-555.4536051719915
 30
0.0
 11
-18.69663557049534
 21
0.0000000000001298
 31
0.0
210
0.0
220
0.0
230
1.0
 40
0.2756373558170013
 41
4.712388980384687
 42
4.719205519726335
1001
REVIT
1002
{
1070
     1
1000
8750
1002
}
1002
{
1070
     2
1000
-2000080
1002
}
  0
ELLIPSE
  5
13F
330
6C
100
AcDbEntity
  8
IKE01012-T1
100
AcDbEllipse
 10
219.7835095831467
 20
-555.4536051719915
 30
0.0
 11
18.69663557049534
 21
0.0
 31
0.0
210
0.0
220
0.0
230
1.0
 40
0.275637355817005
 41
4.705572441043027
 42
4.712388980384674
1001
REVIT
1002
{
1070
     1
1000
8750
1002
}
1002
{
1070
     2
1000
-2000080
1002
}
  0
LINE
  5
140
330
6C
100
AcDbEntity
  8
IKE01012-T1
100
AcDbLine
 10
219.7835095831467
 20
-560.6070963633169
 30
0.0
 11
616.8322757647825
 21
-560.607096363319
 31
0.0
1001
REVIT
1002
{
1070
     1
1000
8750
1002
}
1002
{
1070
     2
1000
-2000080
1002
}
  0
LINE
  5
141
330
6C
100
AcDbEntity
  8
IKE01012-T1
100
AcDbLine
 10
616.6895121137691
 20
-578.2649487396713
 30
0.0
 11
219.7835095831466
 21
-578.2649487396692
 31
0.0
1001
REVIT
1002
{
1070
     1
1000
8750
1002
}
1002
{
1070
     2
1000
-2000080
1002
}
  0
LINE
  5
142
330
6C
100
AcDbEntity
  8
IKE01012-T1
100
AcDbLine
 10
530.2983466645848
 20
-598.2040601885968
 30
0.0
 11
555.3627312776796
 21
-594.5228361256638
 31
0.0
1001
REVIT
1002
{
1070
     1
1000
8757
1002
}
1002
{
1070
     2
1000
-2000080
1002
}
  0
LINE
  5
143
330
6C
100
AcDbEntity
  8
IKE01012-T1
100
AcDbLine
 10
555.3627312776796
 20
-594.5228361256638
 30
0.0
 11
616.6895121137689
 21
-585.515829278488
 31
0.0
1001
REVIT
1002
{
1070
     1
1000
8757
1002
}
1002
{
1070
     2
1000
-2000080
1002
}
  0
LINE
  5
144
330
6C
100
AcDbEntity
  8
IKE01012-T1
100
AcDbLine
 10
616.6895121137689
 20
-584.7811547613384
 30
0.0
 11
594.7374464168126
 21
-584.7811547613382
 31
0.0
1001
REVIT
1002
{
1070
     1
1000
8757
1002
}
1002
{
1070
     2
1000
-2000080
1002
}
  0
LINE
  5
145
330
6C
100
AcDbEntity
  8
IKE01012-T1
100
AcDbLine
 10
594.7374464168126
 20
-584.7811547613382
 30
0.0
 11
532.6782510874024
 21
-593.8663344581909
 31
0.0
1001
REVIT
1002
{
1070
     1
1000
8757
1002
}
1002
{
1070
     2
1000
-2000080
1002
}
  0
LINE
  5
146
330
6C
100
AcDbEntity
  8
IKE01012-T1
100
AcDbLine
 10
532.6782510874024
 20
-593.8663344581909
 30
0.0
 11
503.0483021732151
 21
-598.2040601885967
 31
0.0
1001
REVIT
1002
{
1070
     1
1000
8757
1002
}
1002
{
1070
     2
1000
-2000080
1002
}
  0
LINE
  5
147
330
6C
100
AcDbEntity
  8
IKE01012-T1
100
AcDbLine
 10
338.9823609031153
 20
-598.2040601885958
 30
0.0
 11
309.3486620363943
 21
-593.8663444734705
 31
0.0
1001
REVIT
1002
{
1070
     1
1000
8757
1002
}
1002
{
1070
     2
1000
-2000080
1002
}
  0
LINE
  5
148
330
6C
100
AcDbEntity
  8
IKE01012-T1
100
AcDbLine
 10
309.3486620363943
 20
-593.8663444734705
 30
0.0
 11
247.2818443374092
 21
-584.7811547613363
 31
0.0
1001
REVIT
1002
{
1070
     1
1000
8757
1002
}
1002
{
1070
     2
1000
-2000080
1002
}
  0
LINE
  5
149
330
6C
100
AcDbEntity
  8
IKE01012-T1
100
AcDbLine
 10
247.2818443374092
 20
-584.7811547613363
 30
0.0
 11
220.3272387565835
 21
-584.7811547613361
 31
0.0
1001
REVIT
1002
{
1070
     1
1000
8757
1002
}
1002
{
1070
     2
1000
-2000080
1002
}
  0
LINE
  5
14A
330
6C
100
AcDbEntity
  8
IKE01012-T1
100
AcDbLine
 10
220.3272387565835
 20
-584.7811547613361
 30
0.0
 11
286.6637344715349
 21
-594.522846140943
 31
0.0
1001
REVIT
1002
{
1070
     1
1000
8757
1002
}
1002
{
1070
     2
1000
-2000080
1002
}
  0
LINE
  5
14B
330
6C
100
AcDbEntity
  8
IKE01012-T1
100
AcDbLine
 10
286.6637344715349
 20
-594.522846140943
 30
0.0
 11
311.7311189499391
 21
-598.2040601885953
 31
0.0
1001
REVIT
1002
{
1070
     1
1000
8757
1002
}
1002
{
1070
     2
1000
-2000080
1002
}
  0
LINE
  5
14C
330
6C
100
AcDbEntity
  8
IKE01012-T1
100
AcDbLine
 10
244.0057089491723
 20
-598.2040601885948
 30
0.0
 11
220.3272387565834
 21
-594.7268136673344
 31
0.0
1001
REVIT
1002
{
1070
     1
1000
8757
1002
}
1002
{
1070
     2
1000
-2000080
1002
}
  0
LINE
  5
14D
330
6C
100
AcDbEntity
  8
IKE01012-T1
100
AcDbLine
 10
220.3272387565834
 20
-594.7268136673343
 30
0.0
 11
220.5758792434549
 21
-594.7268136673343
 31
0.0
1001
REVIT
1002
{
1070
     1
1000
8757
1002
}
1002
{
1070
     2
1000
-2000080
1002
}
  0
LINE
  5
14E
330
6C
100
AcDbEntity
  8
IKE01012-T1
100
AcDbLine
 10
616.6895121137689
 20
-595.4614881844862
 30
0.0
 11
598.015926640026
 21
-598.2040601885975
 31
0.0
1001
REVIT
1002
{
1070
     1
1000
8757
1002
}
1002
{
1070
     2
1000
-2000080
1002
}
  0
LINE
  5
14F
330
6C
100
AcDbEntity
  8
IKE01012-T1
100
AcDbLine
 10
220.3272387565835
 20
-584.7811547613361
 30
0.0
 11
220.3272387565834
 21
-594.7268136673344
 31
0.0
1001
REVIT
1002
{
1070
     1
1000
8757
1002
}
1002
{
1070
     2
1000
-2000080
1002
}
  0
LINE
  5
150
330
6C
100
AcDbEntity
  8
IKE01012-T1
100
AcDbLine
 10
616.8322757647847
 20
-173.4295556918521
 30
0.0
 11
219.6575140894862
 21
-173.4295556918495
 31
0.0
1001
REVIT
1002
{
1070
     1
1000
8788
1002
}
1002
{
1070
     2
1000
-2000080
1002
}
  0
LINE
  5
151
330
6C
100
AcDbEntity
  8
IKE01012-T1
100
AcDbLine
 10
-219.6575140894959
 20
-573.7622199369809
 30
0.0
 11
-219.6575140894933
 21
-158.6854692347774
 31
0.0
1001
REVIT
1002
{
1070
     1
1000
8795
1002
}
1002
{
1070
     2
1000
-2000080
1002
}
  0
LINE
  5
152
330
6C
100
AcDbEntity
  8
IKE01012-T1
100
AcDbLine
 10
-194.1580609595634
 20
-158.6854692347776
 30
0.0
 11
-194.1580609595662
 21
-573.7622199369815
 31
0.0
1001
REVIT
1002
{
1070
     1
1000
8795
1002
}
1002
{
1070
     2
1000
-2000080
1002
}
  0
LINE
  5
153
330
6C
100
AcDbEntity
  8
IKE01012-T1
100
AcDbLine
 10
-219.6575140894933
 20
-158.6854692347774
 30
0.0
 11
-194.1580609595634
 21
-158.6854692347776
 31
0.0
1001
REVIT
1002
{
1070
     1
1000
8795
1002
}
1002
{
1070
     2
1000
-2000080
1002
}
  0
LINE
  5
154
330
6C
100
AcDbEntity
  8
IKE01012-T1
100
AcDbLine
 10
-642.3317288947248
 20
-573.7622199369782
 30
0.0
 11
-642.3317288947221
 21
-158.6854692347734
 31
0.0
1001
REVIT
1002
{
1070
     1
1000
8804
1002
}
1002
{
1070
     2
1000
-2000080
1002
}
  0
LINE
  5
155
330
6C
100
AcDbEntity
  8
IKE01012-T1
100
AcDbLine
 10
-616.8322757647923
 20
-158.6854692347735
 30
0.0
 11
-616.8322757647951
 21
-573.7622199369788
 31
0.0
1001
REVIT
1002
{
1070
     1
1000
8804
1002
}
1002
{
1070
     2
1000
-2000080
1002
}
  0
LINE
  5
156
330
6C
100
AcDbEntity
  8
IKE01012-T1
100
AcDbLine
 10
-642.3317288947221
 20
-158.6854692347734
 30
0.0
 11
-616.8322757647923
 21
-158.6854692347735
 31
0.0
1001
REVIT
1002
{
1070
     1
1000
8804
1002
}
1002
{
1070
     2
1000
-2000080
1002
}
  0
LINE
  5
157
330
6C
100
AcDbEntity
  8
IKE01012-T1
100
AcDbLine
 10
-194.1412928022159
 20
-528.6591498317224
 30
0.0
 11
-194.1580609595659
 21
-528.6591498317224
 31
0.0
1001
REVIT
1002
{
1070
     1
1000
8813
1002
}
1002
{
1070
     2
1000
-2000080
1002
}
  0
LINE
  5
158
330
6C
100
AcDbEntity
  8
IKE01012-T1
100
AcDbLine
 10
-219.6575140894959
 20
-528.6591498317224
 30
0.0
 11
-219.7835095831592
 21
-528.6591498317224
 31
0.0
1001
REVIT
1002
{
1070
     1
1000
8813
1002
}
1002
{
1070
     2
1000
-2000080
1002
}
  0
LINE
  5
159
330
6C
100
AcDbEntity
  8
IKE01012-T1
100
AcDbLine
 10
-219.7835095831599
 20
-672.4991647608984
 30
0.0
 11
-219.7835095831599
 21
-663.3790878923771
 31
0.0
1001
REVIT
1002
{
1070
     1
1000
8813
1002
}
1002
{
1070
     2
1000
-2000080
1002
}
  0
LINE
  5
15A
330
6C
100
AcDbEntity
  8
IKE01012-T1
100
AcDbLine
 10
-219.7835095831594
 20
-598.2040601885922
 30
0.0
 11
-219.7835095831593
 21
-573.7622199369813
 31
0.0
1001
REVIT
1002
{
1070
     1
1000
8813
1002
}
1002
{
1070
     2
1000
-2000080
1002
}
  0
LINE
  5
15B
330
6C
100
AcDbEntity
  8
IKE01012-T1
100
AcDbLine
 10
-194.1412928022162
 20
-573.7622199369816
 30
0.0
 11
-194.1412928022164
 21
-600.1171419526183
 31
0.0
1001
REVIT
1002
{
1070
     1
1000
8813
1002
}
1002
{
1070
     2
1000
-2000080
1002
}
  0
LINE
  5
15C
330
6C
100
AcDbEntity
  8
IKE01012-T1
100
AcDbLine
 10
-194.1412928022168
 20
-663.3790878923778
 30
0.0
 11
-194.1412928022168
 21
-672.4991647608987
 31
0.0
1001
REVIT
1002
{
1070
     1
1000
8813
1002
}
1002
{
1070
     2
1000
-2000080
1002
}
  0
LINE
  5
15D
330
6C
100
AcDbEntity
  8
IKE01012-T1
100
AcDbLine
 10
-194.1412928022168
 20
-672.4991647608987
 30
0.0
 11
-219.7835095831599
 21
-672.4991647608984
 31
0.0
1001
REVIT
1002
{
1070
     1
1000
8813
1002
}
1002
{
1070
     2
1000
-2000080
1002
}
  0
LINE
  5
15E
330
6C
100
AcDbEntity
  8
IKE01012-T1
100
AcDbLine
 10
-194.1412928022159
 20
-533.0083067096502
 30
0.0
 11
-194.1580609595658
 21
-533.0083067096502
 31
0.0
1001
REVIT
1002
{
1070
     1
1000
8813
1002
}
1002
{
1070
     2
1000
-2000080
1002
}
  0
LINE
  5
15F
330
6C
100
AcDbEntity
  8
IKE01012-T1
100
AcDbLine
 10
-219.6575140894956
 20
-533.00830670965
 30
0.0
 11
-219.783509583159
 21
-533.00830670965
 31
0.0
1001
REVIT
1002
{
1070
     1
1000
8813
1002
}
1002
{
1070
     2
1000
-2000080
1002
}
  0
LINE
  5
160
330
6C
100
AcDbEntity
  8
IKE01012-T1
100
AcDbLine
 10
-616.6895121137819
 20
-528.6591498317196
 30
0.0
 11
-616.8322757647953
 21
-528.6591498317196
 31
0.0
1001
REVIT
1002
{
1070
     1
1000
8824
1002
}
1002
{
1070
     2
1000
-2000080
1002
}
  0
LINE
  5
161
330
6C
100
AcDbEntity
  8
IKE01012-T1
100
AcDbLine
 10
-642.3317288947254
 20
-672.4991647608958
 30
0.0
 11
-642.3317288947254
 21
-663.3790878923696
 31
0.0
1001
REVIT
1002
{
1070
     1
1000
8824
1002
}
1002
{
1070
     2
1000
-2000080
1002
}
  0
LINE
  5
162
330
6C
100
AcDbEntity
  8
IKE01012-T1
100
AcDbLine
 10
-642.3317288947248
 20
-598.2040601885891
 30
0.0
 11
-642.3317288947247
 21
-573.7622199369788
 31
0.0
1001
REVIT
1002
{
1070
     1
1000
8824
1002
}
1002
{
1070
     2
1000
-2000080
1002
}
  0
LINE
  5
163
330
6C
100
AcDbEntity
  8
IKE01012-T1
100
AcDbLine
 10
-616.6895121137817
 20
-573.7622199369789
 30
0.0
 11
-616.6895121137818
 21
-598.2040601885894
 31
0.0
1001
REVIT
1002
{
1070
     1
1000
8824
1002
}
1002
{
1070
     2
1000
-2000080
1002
}
  0
LINE
  5
164
330
6C
100
AcDbEntity
  8
IKE01012-T1
100
AcDbLine
 10
-616.6895121137823
 20
-663.3790878923695
 30
0.0
 11
-616.6895121137823
 21
-672.4991647608959
 31
0.0
1001
REVIT
1002
{
1070
     1
1000
8824
1002
}
1002
{
1070
     2
1000
-2000080
1002
}
  0
LINE
  5
165
330
6C
100
AcDbEntity
  8
IKE01012-T1
100
AcDbLine
 10
-616.6895121137823
 20
-672.4991647608959
 30
0.0
 11
-642.3317288947254
 21
-672.4991647608958
 31
0.0
1001
REVIT
1002
{
1070
     1
1000
8824
1002
}
1002
{
1070
     2
1000
-2000080
1002
}
  0
LINE
  5
166
330
6C
100
AcDbEntity
  8
IKE01012-T1
100
AcDbLine
 10
-616.6895121137813
 20
-533.0083067096475
 30
0.0
 11
-616.8322757647948
 21
-533.0083067096475
 31
0.0
1001
REVIT
1002
{
1070
     1
1000
8824
1002
}
1002
{
1070
     2
1000
-2000080
1002
}
  0
LINE
  5
167
330
6C
100
AcDbEntity
  8
IKE01012-T1
100
AcDbLine
 10
-665.7488954714914
 20
-604.6587060645359
 30
0.0
 11
-665.7488954714914
 21
-611.3810713222642
 31
0.0
1001
REVIT
1002
{
1070
     1
1000
8835
1002
}
1002
{
1070
     2
1000
-2000080
1002
}
  0
LINE
  5
168
330
6C
100
AcDbEntity
  8
IKE01012-T1
100
AcDbLine
 10
-671.4206798656297
 20
-619.8856542314697
 30
0.0
 11
-671.42067986563
 21
-658.9652862301093
 31
0.0
1001
REVIT
1002
{
1070
     1
1000
8835
1002
}
1002
{
1070
     2
1000
-2000080
1002
}
  0
LINE
  5
169
330
6C
100
AcDbEntity
  8
IKE01012-T1
100
AcDbLine
 10
-166.1748952982311
 20
-659.2375386046044
 30
0.0
 11
-166.1748952982311
 21
-620.1579066059649
 31
0.0
1001
REVIT
1002
{
1070
     1
1000
8835
1002
}
1002
{
1070
     2
1000
-2000080
1002
}
  0
LINE
  5
16A
330
6C
100
AcDbEntity
  8
IKE01012-T1
100
AcDbLine
 10
-166.1748952982308
 20
-620.1579066059641
 30
0.0
 11
-172.6171165344597
 21
-606.1730289647392
 31
0.0
1001
REVIT
1002
{
1070
     1
1000
8835
1002
}
1002
{
1070
     2
1000
-2000080
1002
}
  0
ELLIPSE
  5
16B
330
6C
100
AcDbEntity
  8
IKE01012-T1
100
AcDbEllipse
 10
-219.783509583171
 20
-612.7935125385037
 30
0.0
 11
52.92988066391753
 21
0.0
 31
0.0
210
0.0
220
0.0
230
1.0
 40
0.2756373558169965
 41
0.4710089614212975
 42
1.570796326794878
1001
REVIT
1002
{
1070
     1
1000
8835
1002
}
1002
{
1070
     2
1000
-2000080
1002
}
  0
LINE
  5
16C
330
6C
100
AcDbEntity
  8
IKE01012-T1
100
AcDbLine
 10
-219.7835095831704
 20
-598.2040601885922
 30
0.0
 11
-642.3317288947242
 21
-598.2040601885891
 31
0.0
1001
REVIT
1002
{
1070
     1
1000
8835
1002
}
1002
{
1070
     2
1000
-2000080
1002
}
  0
ELLIPSE
  5
16D
330
6C
100
AcDbEntity
  8
IKE01012-T1
100
AcDbEllipse
 10
-642.3317288947245
 20
-604.6587060645351
 30
0.0
 11
-23.41716657676625
 21
0.0000000000001418
 31
0.0
210
0.0
220
0.0
230
1.0
 40
0.2756373558169954
 41
4.712388980384671
 42
6.520002408222886
1001
REVIT
1002
{
1070
     1
1000
8835
1002
}
1002
{
1070
     2
1000
-2000080
1002
}
  0
LINE
  5
16E
330
6C
100
AcDbEntity
  8
IKE01012-T1
100
AcDbLine
 10
-665.0953138468146
 20
-606.1730289647361
 30
0.0
 11
-671.420679865629
 21
-619.8856542314687
 31
0.0
1001
REVIT
1002
{
1070
     1
1000
8835
1002
}
1002
{
1070
     2
1000
-2000080
1002
}
  0
ELLIPSE
  5
16F
330
6C
100
AcDbEntity
  8
IKE01012-T1
100
AcDbEllipse
 10
-652.0233283159004
 20
-619.8856542314689
 30
0.0
 11
-19.39735154972857
 21
0.0000000000000443
 31
0.0
210
0.0
220
0.0
230
1.0
 40
0.2756373558170001
 41
0.0
 42
0.261799387799118
1001
REVIT
1002
{
1070
     1
1000
8835
1002
}
1002
{
1070
     2
1000
-2000080
1002
}
  0
ELLIPSE
  5
170
330
6C
100
AcDbEntity
  8
IKE01012-T1
100
AcDbEllipse
 10
-652.0233283159004
 20
-619.8856542314689
 30
0.0
 11
19.39735154972863
 21
0.0
 31
0.0
210
0.0
220
0.0
230
1.0
 40
0.2756373558169996
 41
3.40339467482774
 42
3.665191429188043
1001
REVIT
1002
{
1070
     1
1000
8835
1002
}
1002
{
1070
     2
1000
-2000080
1002
}
  0
ELLIPSE
  5
171
330
6C
100
AcDbEntity
  8
IKE01012-T1
100
AcDbEllipse
 10
-652.0233283159004
 20
-619.8856542314689
 30
0.0
 11
19.39735154972861
 21
0.0
 31
0.0
210
0.0
220
0.0
230
1.0
 40
0.2756373558170027
 41
3.665194286284046
 42
4.188788089336902
1001
REVIT
1002
{
1070
     1
1000
8835
1002
}
1002
{
1070
     2
1000
-2000080
1002
}
  0
ELLIPSE
  5
172
330
6C
100
AcDbEntity
  8
IKE01012-T1
100
AcDbEllipse
 10
-652.0233283159004
 20
-619.8856542314689
 30
0.0
 11
19.39735154972864
 21
0.0
 31
0.0
210
0.0
220
0.0
230
1.0
 40
0.2756373558169981
 41
4.18879020478635
 42
4.450587984213127
1001
REVIT
1002
{
1070
     1
1000
8835
1002
}
1002
{
1070
     2
1000
-2000080
1002
}
  0
ELLIPSE
  5
173
330
6C
100
AcDbEntity
  8
IKE01012-T1
100
AcDbEllipse
 10
-652.0233283159004
 20
-619.8856542314689
 30
0.0
 11
19.39735154972863
 21
0.0
 31
0.0
210
0.0
220
0.0
230
1.0
 40
0.2756373558170026
 41
4.45058959258551
 42
4.712388980384665
1001
REVIT
1002
{
1070
     1
1000
8835
1002
}
1002
{
1070
     2
1000
-2000080
1002
}
  0
LINE
  5
174
330
6C
100
AcDbEntity
  8
IKE01012-T1
100
AcDbLine
 10
-652.0233283159004
 20
-625.2322889224889
 30
0.0
 11
-184.5845362186432
 21
-625.2322889224922
 31
0.0
1001
REVIT
1002
{
1070
     1
1000
8835
1002
}
1002
{
1070
     2
1000
-2000080
1002
}
  0
ELLIPSE
  5
175
330
6C
100
AcDbEntity
  8
IKE01012-T1
100
AcDbEllipse
 10
-184.5845274088263
 20
-620.1579066059639
 30
0.0
 11
-18.40963211059554
 21
0.0000000000000992
 31
0.0
210
0.0
220
0.0
230
1.0
 40
0.2756373558169989
 41
1.570796326794894
 42
2.094394582938845
1001
REVIT
1002
{
1070
     1
1000
8835
1002
}
1002
{
1070
     2
1000
-2000080
1002
}
  0
ELLIPSE
  5
176
330
6C
100
AcDbEntity
  8
IKE01012-T1
100
AcDbEllipse
 10
-184.5845274088263
 20
-620.1579066059639
 30
0.0
 11
18.40963211059556
 21
0.0
 31
0.0
210
0.0
220
0.0
230
1.0
 40
0.275637355816998
 41
5.235987755982971
 42
5.497787143782105
1001
REVIT
1002
{
1070
     1
1000
8835
1002
}
1002
{
1070
     2
1000
-2000080
1002
}
  0
ELLIPSE
  5
177
330
6C
100
AcDbEntity
  8
IKE01012-T1
100
AcDbEllipse
 10
-184.5845274088263
 20
-620.1579066059639
 30
0.0
 11
18.40963211059556
 21
0.0
 31
0.0
210
0.0
220
0.0
230
1.0
 40
0.2756373558169998
 41
5.497787817984471
 42
5.759586084042064
1001
REVIT
1002
{
1070
     1
1000
8835
1002
}
1002
{
1070
     2
1000
-2000080
1002
}
  0
ELLIPSE
  5
178
330
6C
100
AcDbEntity
  8
IKE01012-T1
100
AcDbEllipse
 10
-184.5845274088263
 20
-620.1579066059639
 30
0.0
 11
18.40963211059557
 21
0.0
 31
0.0
210
0.0
220
0.0
230
0.9999999999999998
 40
0.2756373558169987
 41
5.75958653158126
 42
6.021385478124286
1001
REVIT
1002
{
1070
     1
1000
8835
1002
}
1002
{
1070
     2
1000
-2000080
1002
}
  0
ELLIPSE
  5
179
330
6C
100
AcDbEntity
  8
IKE01012-T1
100
AcDbEllipse
 10
-184.5845274088263
 20
-620.1579066059639
 30
0.0
 11
18.40963211059556
 21
0.0
 31
0.0
210
0.0
220
0.0
230
1.0
 40
0.2756373558169946
 41
6.021391963969185
 42
6.283185307179557
1001
REVIT
1002
{
1070
     1
1000
8835
1002
}
1002
{
1070
     2
1000
-2000080
1002
}
  0
ELLIPSE
  5
17A
330
6C
100
AcDbEntity
  8
IKE01012-T1
100
AcDbEllipse
 10
-184.5845274088266
 20
-659.2375386046033
 30
0.0
 11
-18.40963211059554
 21
0.0000000000001483
 31
0.0
210
0.0
220
0.0
230
1.0
 40
0.2756373558169989
 41
2.094395102393196
 42
3.141592653589794
1001
REVIT
1002
{
1070
     1
1000
8835
1002
}
1002
{
1070
     2
1000
-2000080
1002
}
  0
ELLIPSE
  5
17B
330
6C
100
AcDbEntity
  8
IKE01012-T1
100
AcDbEllipse
 10
-184.5845274088266
 20
-659.2375386046033
 30
0.0
 11
18.40963211059554
 21
0.0
 31
0.0
210
0.0
220
0.0
230
1.0
 40
0.2756373558169969
 41
4.974188368183829
 42
5.235987236528648
1001
REVIT
1002
{
1070
     1
1000
8835
1002
}
1002
{
1070
     2
1000
-2000080
1002
}
  0
ELLIPSE
  5
17C
330
6C
100
AcDbEntity
  8
IKE01012-T1
100
AcDbEllipse
 10
-184.5845274088266
 20
-659.2375386046033
 30
0.0
 11
18.40963211059552
 21
0.0
 31
0.0
210
0.0
220
0.0
230
1.0
 40
0.2756373558169959
 41
4.712388980384685
 42
4.974188298051988
1001
REVIT
1002
{
1070
     1
1000
8835
1002
}
1002
{
1070
     2
1000
-2000080
1002
}
  0
LINE
  5
17D
330
6C
100
AcDbEntity
  8
IKE01012-T1
100
AcDbLine
 10
-184.584536218643
 20
-664.3119209211318
 30
0.0
 11
-652.0233283159008
 21
-664.3119209211282
 31
0.0
1001
REVIT
1002
{
1070
     1
1000
8835
1002
}
1002
{
1070
     2
1000
-2000080
1002
}
  0
ELLIPSE
  5
17E
330
6C
100
AcDbEntity
  8
IKE01012-T1
100
AcDbEllipse
 10
-652.0233283159007
 20
-658.9652862301083
 30
0.0
 11
-19.39735154972868
 21
0.0000000000000227
 31
0.0
210
0.0
220
0.0
230
1.0
 40
0.2756373558169926
 41
1.308996938995735
 42
1.57079632679488
1001
REVIT
1002
{
1070
     1
1000
8835
1002
}
1002
{
1070
     2
1000
-2000080
1002
}
  0
ELLIPSE
  5
17F
330
6C
100
AcDbEntity
  8
IKE01012-T1
100
AcDbEllipse
 10
-652.0233283159007
 20
-658.9652862301083
 30
0.0
 11
19.3973515497287
 21
0.0
 31
0.0
210
0.0
220
0.0
230
1.0
 40
0.2756373558169956
 41
3.141592653589729
 42
4.45058798421314
1001
REVIT
1002
{
1070
     1
1000
8835
1002
}
1002
{
1070
     2
1000
-2000080
1002
}
  0
LINE
  5
180
330
6C
100
AcDbEntity
  8
IKE01012-T1
100
AcDbLine
 10
-166.1748952982308
 20
-620.1579066059641
 30
0.0
 11
-166.174895298231
 21
-659.2375386046036
 31
0.0
1001
REVIT
1002
{
1070
     1
1000
8835
1002
}
1002
{
1070
     2
1000
-2000080
1002
}
  0
LINE
  5
181
330
6C
100
AcDbEntity
  8
IKE01012-T1
100
AcDbLine
 10
-671.4206798656293
 20
-658.965286230108
 30
0.0
 11
-671.420679865629
 21
-619.8856542314687
 31
0.0
1001
REVIT
1002
{
1070
     1
1000
8835
1002
}
1002
{
1070
     2
1000
-2000080
1002
}
  0
LINE
  5
182
330
6C
100
AcDbEntity
  8
IKE01012-T1
100
AcDbLine
 10
-616.8322757647948
 20
-560.607096363311
 30
0.0
 11
-219.783509583159
 21
-560.6070963633138
 31
0.0
1001
REVIT
1002
{
1070
     1
1000
8846
1002
}
1002
{
1070
     2
1000
-2000080
1002
}
  0
ELLIPSE
  5
183
330
6C
100
AcDbEntity
  8
IKE01012-T1
100
AcDbEllipse
 10
-219.7835095831589
 20
-555.4536051719885
 30
0.0
 11
-18.69663557049534
 21
0.0000000000000883
 31
0.0
210
0.0
220
0.0
230
1.0
 40
0.2756373558170013
 41
1.570796326794893
 42
1.577612866136533
1001
REVIT
1002
{
1070
     1
1000
8846
1002
}
1002
{
1070
     2
1000
-2000080
1002
}
  0
ELLIPSE
  5
184
330
6C
100
AcDbEntity
  8
IKE01012-T1
100
AcDbEllipse
 10
-219.7835095831589
 20
-555.4536051719885
 30
0.0
 11
18.69663557049534
 21
0.0
 31
0.0
210
0.0
220
0.0
230
1.0
 40
0.2756373558170049
 41
1.563979787453251
 42
1.570796326794883
1001
REVIT
1002
{
1070
     1
1000
8846
1002
}
1002
{
1070
     2
1000
-2000080
1002
}
  0
LINE
  5
185
330
6C
100
AcDbEntity
  8
IKE01012-T1
100
AcDbLine
 10
-219.7835095831587
 20
-550.300113980663
 30
0.0
 11
-616.8322757647946
 21
-550.3001139806602
 31
0.0
1001
REVIT
1002
{
1070
     1
1000
8846
1002
}
1002
{
1070
     2
1000
-2000080
1002
}
  0
LINE
  5
186
330
6C
100
AcDbEntity
  8
IKE01012-T1
100
AcDbLine
 10
-219.7835141658782
 20
-578.2649487396662
 30
0.0
 11
-616.6895121137817
 21
-578.2649487396632
 31
0.0
1001
REVIT
1002
{
1070
     1
1000
8846
1002
}
1002
{
1070
     2
1000
-2000080
1002
}
  0
LINE
  5
187
330
6C
100
AcDbEntity
  8
IKE01012-T1
100
AcDbLine
 10
-311.7311189499864
 20
-598.2040601885919
 30
0.0
 11
-286.6637344715476
 21
-594.522846140935
 31
0.0
1001
REVIT
1002
{
1070
     1
1000
8853
1002
}
1002
{
1070
     2
1000
-2000080
1002
}
  0
LINE
  5
188
330
6C
100
AcDbEntity
  8
IKE01012-T1
100
AcDbLine
 10
-286.6637344715476
 20
-594.522846140935
 30
0.0
 11
-220.3272387565962
 21
-584.7811547613289
 31
0.0
1001
REVIT
1002
{
1070
     1
1000
8853
1002
}
1002
{
1070
     2
1000
-2000080
1002
}
  0
LINE
  5
189
330
6C
100
AcDbEntity
  8
IKE01012-T1
100
AcDbLine
 10
-220.3272387565962
 20
-584.7811547613289
 30
0.0
 11
-247.2818443374219
 21
-584.7811547613287
 31
0.0
1001
REVIT
1002
{
1070
     1
1000
8853
1002
}
1002
{
1070
     2
1000
-2000080
1002
}
  0
LINE
  5
18A
330
6C
100
AcDbEntity
  8
IKE01012-T1
100
AcDbLine
 10
-247.2818443374219
 20
-584.7811547613287
 30
0.0
 11
-309.3486620364069
 21
-593.866344473462
 31
0.0
1001
REVIT
1002
{
1070
     1
1000
8853
1002
}
1002
{
1070
     2
1000
-2000080
1002
}
  0
LINE
  5
18B
330
6C
100
AcDbEntity
  8
IKE01012-T1
100
AcDbLine
 10
-309.3486620364069
 20
-593.866344473462
 30
0.0
 11
-338.9823609031558
 21
-598.204060188591
 31
0.0
1001
REVIT
1002
{
1070
     1
1000
8853
1002
}
1002
{
1070
     2
1000
-2000080
1002
}
  0
LINE
  5
18C
330
6C
100
AcDbEntity
  8
IKE01012-T1
100
AcDbLine
 10
-503.0483021731986
 20
-598.2040601885901
 30
0.0
 11
-532.6782510874152
 21
-593.8663344581796
 31
0.0
1001
REVIT
1002
{
1070
     1
1000
8853
1002
}
1002
{
1070
     2
1000
-2000080
1002
}
  0
LINE
  5
18D
330
6C
100
AcDbEntity
  8
IKE01012-T1
100
AcDbLine
 10
-532.6782510874152
 20
-593.8663344581796
 30
0.0
 11
-594.7374464168253
 21
-584.7811547613262
 31
0.0
1001
REVIT
1002
{
1070
     1
1000
8853
1002
}
1002
{
1070
     2
1000
-2000080
1002
}
  0
LINE
  5
18E
330
6C
100
AcDbEntity
  8
IKE01012-T1
100
AcDbLine
 10
-594.7374464168253
 20
-584.7811547613262
 30
0.0
 11
-616.6895121137818
 21
-584.781154761326
 31
0.0
1001
REVIT
1002
{
1070
     1
1000
8853
1002
}
1002
{
1070
     2
1000
-2000080
1002
}
  0
LINE
  5
18F
330
6C
100
AcDbEntity
  8
IKE01012-T1
100
AcDbLine
 10
-616.6895121137818
 20
-585.5158292784756
 30
0.0
 11
-555.3627312776922
 21
-594.5228361256523
 31
0.0
1001
REVIT
1002
{
1070
     1
1000
8853
1002
}
1002
{
1070
     2
1000
-2000080
1002
}
  0
LINE
  5
190
330
6C
100
AcDbEntity
  8
IKE01012-T1
100
AcDbLine
 10
-555.3627312776922
 20
-594.5228361256523
 30
0.0
 11
-530.2983466645646
 21
-598.2040601885903
 31
0.0
1001
REVIT
1002
{
1070
     1
1000
8853
1002
}
1002
{
1070
     2
1000
-2000080
1002
}
  0
LINE
  5
191
330
6C
100
AcDbEntity
  8
IKE01012-T1
100
AcDbLine
 10
-598.015926640011
 20
-598.2040601885894
 30
0.0
 11
-616.6895121137817
 21
-595.4614881844738
 31
0.0
1001
REVIT
1002
{
1070
     1
1000
8853
1002
}
1002
{
1070
     2
1000
-2000080
1002
}
  0
LINE
  5
192
330
6C
100
AcDbEntity
  8
IKE01012-T1
100
AcDbLine
 10
-220.3272387565962
 20
-594.7268136673271
 30
0.0
 11
-244.0057089492186
 21
-598.2040601885922
 31
0.0
1001
REVIT
1002
{
1070
     1
1000
8853
1002
}
1002
{
1070
     2
1000
-2000080
1002
}
  0
LINE
  5
193
330
6C
100
AcDbEntity
  8
IKE01012-T1
100
AcDbLine
 10
-220.3272387565963
 20
-594.7268136673271
 30
0.0
 11
-220.3272387565962
 21
-584.7811547613289
 31
0.0
1001
REVIT
1002
{
1070
     1
1000
8853
1002
}
1002
{
1070
     2
1000
-2000080
1002
}
  0
LINE
  5
194
330
6C
100
AcDbEntity
  8
IKE01012-T1
100
AcDbLine
 10
-219.6575140894932
 20
-173.4295556918467
 30
0.0
 11
-616.8322757647924
 21
-173.4295556918441
 31
0.0
1001
REVIT
1002
{
1070
     1
1000
8884
1002
}
1002
{
1070
     2
1000
-2000080
1002
}
  0
LINE
  5
195
330
6C
100
AcDbEntity
  8
IKE01012-T1
100
AcDbLine
 10
-1529.827360735971
 20
-94.09450526938263
 30
0.0
 11
-1236.323775601562
 21
199.4090798650218
 31
0.0
1001
REVIT
1002
{
1070
     1
1000
8899
1002
}
1002
{
1070
     2
1000
-2000080
1002
}
  0
LINE
  5
196
330
6C
100
AcDbEntity
  8
IKE01012-T1
100
AcDbLine
 10
-1218.29293937684
 20
181.3782436402997
 30
0.0
 11
-1511.796524511249
 21
-112.1253414941045
 31
0.0
1001
REVIT
1002
{
1070
     1
1000
8899
1002
}
1002
{
1070
     2
1000
-2000080
1002
}
  0
LINE
  5
197
330
6C
100
AcDbEntity
  8
IKE01012-T1
100
AcDbLine
 10
-1236.323775601562
 20
199.4090798650218
 30
0.0
 11
-1218.29293937684
 21
181.3782436402997
 31
0.0
1001
REVIT
1002
{
1070
     1
1000
8899
1002
}
1002
{
1070
     2
1000
-2000080
1002
}
  0
LINE
  5
198
330
6C
100
AcDbEntity
  8
IKE01012-T1
100
AcDbLine
 10
-1828.703164257446
 20
204.7812982520958
 30
0.0
 11
-1535.199579123036
 21
498.2848833865013
 31
0.0
1001
REVIT
1002
{
1070
     1
1000
8908
1002
}
1002
{
1070
     2
1000
-2000080
1002
}
  0
LINE
  5
199
330
6C
100
AcDbEntity
  8
IKE01012-T1
100
AcDbLine
 10
-1517.168742898314
 20
480.2540471617792
 30
0.0
 11
-1810.672328032724
 21
186.7504620273735
 31
0.0
1001
REVIT
1002
{
1070
     1
1000
8908
1002
}
1002
{
1070
     2
1000
-2000080
1002
}
  0
LINE
  5
19A
330
6C
100
AcDbEntity
  8
IKE01012-T1
100
AcDbLine
 10
-1535.199579123036
 20
498.2848833865013
 30
0.0
 11
-1517.168742898314
 21
480.2540471617792
 31
0.0
1001
REVIT
1002
{
1070
     1
1000
8908
1002
}
1002
{
1070
     2
1000
-2000080
1002
}
  0
LINE
  5
19B
330
6C
100
AcDbEntity
  8
IKE01012-T1
100
AcDbLine
 10
-1479.891980909719
 20
-80.24451164811379
 30
0.0
 11
-1479.903837787489
 21
-80.23265477034362
 31
0.0
1001
REVIT
1002
{
1070
     1
1000
8917
1002
}
1002
{
1070
     2
1000
-2000080
1002
}
  0
LINE
  5
19C
330
6C
100
AcDbEntity
  8
IKE01012-T1
100
AcDbLine
 10
-1497.934674012211
 20
-62.2018185456218
 30
0.0
 11
-1498.023766280179
 21
-62.11272627765329
 31
0.0
1001
REVIT
1002
{
1070
     1
1000
8917
1002
}
1002
{
1070
     2
1000
-2000080
1002
}
  0
LINE
  5
19D
330
6C
100
AcDbEntity
  8
IKE01012-T1
100
AcDbLine
 10
-1599.734016242573
 20
-163.8229762400479
 30
0.0
 11
-1593.2851480439
 21
-157.3741080413745
 31
0.0
1001
REVIT
1002
{
1070
     1
1000
8917
1002
}
1002
{
1070
     2
1000
-2000080
1002
}
  0
LINE
  5
19E
330
6C
100
AcDbEntity
  8
IKE01012-T1
100
AcDbLine
 10
-1547.19944399054
 20
-111.288403988015
 30
0.0
 11
-1529.916453003939
 21
-94.00541300141448
 31
0.0
1001
REVIT
1002
{
1070
     1
1000
8917
1002
}
1002
{
1070
     2
1000
-2000080
1002
}
  0
LINE
  5
19F
330
6C
100
AcDbEntity
  8
IKE01012-T1
100
AcDbLine
 10
-1511.784667633479
 20
-112.1371983718749
 30
0.0
 11
-1530.420411708379
 21
-130.7729424467749
 31
0.0
1001
REVIT
1002
{
1070
     1
1000
8917
1002
}
1002
{
1070
     2
1000
-2000080
1002
}
  0
LINE
  5
1A0
330
6C
100
AcDbEntity
  8
IKE01012-T1
100
AcDbLine
 10
-1574.975856795905
 20
-175.3283875343003
 30
0.0
 11
-1581.602230872113
 21
-181.9547616105083
 31
0.0
1001
REVIT
1002
{
1070
     1
1000
8917
1002
}
1002
{
1070
     2
1000
-2000080
1002
}
  0
LINE
  5
1A1
330
6C
100
AcDbEntity
  8
IKE01012-T1
100
AcDbLine
 10
-1581.602230872113
 20
-181.9547616105083
 30
0.0
 11
-1599.734016242573
 21
-163.8229762400479
 31
0.0
1001
REVIT
1002
{
1070
     1
1000
8917
1002
}
1002
{
1070
     2
1000
-2000080
1002
}
  0
LINE
  5
1A2
330
6C
100
AcDbEntity
  8
IKE01012-T1
100
AcDbLine
 10
-1482.967299230544
 20
-83.31982996894113
 30
0.0
 11
-1482.979156108315
 21
-83.30797309117096
 31
0.0
1001
REVIT
1002
{
1070
     1
1000
8917
1002
}
1002
{
1070
     2
1000
-2000080
1002
}
  0
LINE
  5
1A3
330
6C
100
AcDbEntity
  8
IKE01012-T1
100
AcDbLine
 10
-1501.009992333037
 20
-65.27713686644898
 30
0.0
 11
-1501.099084601005
 21
-65.18804459848069
 31
0.0
1001
REVIT
1002
{
1070
     1
1000
8917
1002
}
1002
{
1070
     2
1000
-2000080
1002
}
  0
LINE
  5
1A4
330
6C
100
AcDbEntity
  8
IKE01012-T1
100
AcDbLine
 10
-1778.678692163226
 20
218.5421996053968
 30
0.0
 11
-1778.779641308964
 21
218.6431487511349
 31
0.0
1001
REVIT
1002
{
1070
     1
1000
8928
1002
}
1002
{
1070
     2
1000
-2000080
1002
}
  0
LINE
  5
1A5
330
6C
100
AcDbEntity
  8
IKE01012-T1
100
AcDbLine
 10
-1898.52072749608
 20
134.9637350134624
 30
0.0
 11
-1892.071859297403
 21
141.4126032121396
 31
0.0
1001
REVIT
1002
{
1070
     1
1000
8928
1002
}
1002
{
1070
     2
1000
-2000080
1002
}
  0
LINE
  5
1A6
330
6C
100
AcDbEntity
  8
IKE01012-T1
100
AcDbLine
 10
-1845.986155244038
 20
187.4983072655037
 30
0.0
 11
-1828.703164257446
 21
204.781298252096
 31
0.0
1001
REVIT
1002
{
1070
     1
1000
8928
1002
}
1002
{
1070
     2
1000
-2000080
1002
}
  0
LINE
  5
1A7
330
6C
100
AcDbEntity
  8
IKE01012-T1
100
AcDbLine
 10
-1810.571378886985
 20
186.6495128816355
 30
0.0
 11
-1827.854369873578
 21
169.3665218950428
 31
0.0
1001
REVIT
1002
{
1070
     1
1000
8928
1002
}
1002
{
1070
     2
1000
-2000080
1002
}
  0
LINE
  5
1A8
330
6C
100
AcDbEntity
  8
IKE01012-T1
100
AcDbLine
 10
-1873.940073926943
 20
123.280817841679
 30
0.0
 11
-1880.38894212562
 21
116.831949643002
 31
0.0
1001
REVIT
1002
{
1070
     1
1000
8928
1002
}
1002
{
1070
     2
1000
-2000080
1002
}
  0
LINE
  5
1A9
330
6C
100
AcDbEntity
  8
IKE01012-T1
100
AcDbLine
 10
-1880.38894212562
 20
116.831949643002
 30
0.0
 11
-1898.52072749608
 21
134.9637350134624
 31
0.0
1001
REVIT
1002
{
1070
     1
1000
8928
1002
}
1002
{
1070
     2
1000
-2000080
1002
}
  0
LINE
  5
1AA
330
6C
100
AcDbEntity
  8
IKE01012-T1
100
AcDbLine
 10
-1781.754010484052
 20
215.4668812845692
 30
0.0
 11
-1781.854959629789
 21
215.5678304303073
 31
0.0
1001
REVIT
1002
{
1070
     1
1000
8928
1002
}
1002
{
1070
     2
1000
-2000080
1002
}
  0
LINE
  5
1AB
330
6C
100
AcDbEntity
  8
IKE01012-T1
100
AcDbLine
 10
-1867.108716395686
 20
199.4926206790708
 30
0.0
 11
-1871.862146455038
 21
194.7391906197184
 31
0.0
1001
REVIT
1002
{
1070
     1
1000
8939
1002
}
1002
{
1070
     2
1000
-2000080
1002
}
  0
LINE
  5
1AC
330
6C
100
AcDbEntity
  8
IKE01012-T1
100
AcDbLine
 10
-1881.886351907824
 20
192.7360995799791
 30
0.0
 11
-1909.519824700337
 21
165.1026267874667
 31
0.0
1001
REVIT
1002
{
1070
     1
1000
8939
1002
}
1002
{
1070
     2
1000
-2000080
1002
}
  0
LINE
  5
1AD
330
6C
100
AcDbEntity
  8
IKE01012-T1
100
AcDbLine
 10
-1552.449615767011
 20
-192.3526051462588
 30
0.0
 11
-1524.816142974499
 21
-164.7191323537461
 31
0.0
1001
REVIT
1002
{
1070
     1
1000
8939
1002
}
1002
{
1070
     2
1000
-2000080
1002
}
  0
LINE
  5
1AE
330
6C
100
AcDbEntity
  8
IKE01012-T1
100
AcDbLine
 10
-1524.816142974497
 20
-164.7191323537462
 30
0.0
 11
-1519.482679482364
 21
-150.2749922175301
 31
0.0
1001
REVIT
1002
{
1070
     1
1000
8939
1002
}
1002
{
1070
     2
1000
-2000080
1002
}
  0
ELLIPSE
  5
1AF
330
6C
100
AcDbEntity
  8
IKE01012-T1
100
AcDbEllipse
 10
-1557.515744680961
 20
-121.6047046784192
 30
0.0
 11
-37.42707754485036
 21
37.42707754485108
 31
0.0
210
0.0
220
0.0
230
1.0
 40
0.2756373558169947
 41
3.612601615011105
 42
4.712388980384673
1001
REVIT
1002
{
1070
     1
1000
8939
1002
}
1002
{
1070
     2
1000
-2000080
1002
}
  0
LINE
  5
1B0
330
6C
100
AcDbEntity
  8
IKE01012-T1
100
AcDbLine
 10
-1547.19944399054
 20
-111.2884039879995
 30
0.0
 11
-1845.986155244038
 21
187.4983072655031
 31
0.0
1001
REVIT
1002
{
1070
     1
1000
8939
1002
}
1002
{
1070
     2
1000
-2000080
1002
}
  0
ELLIPSE
  5
1B1
330
6C
100
AcDbEntity
  8
IKE01012-T1
100
AcDbEllipse
 10
-1850.550279113077
 20
182.9341833964639
 30
0.0
 11
-16.55843728260653
 21
16.55843728260656
 31
0.0
210
0.0
220
0.0
230
1.0
 40
0.2756373558169859
 41
4.712388980384681
 42
6.520002408222862
1001
REVIT
1002
{
1070
     1
1000
8939
1002
}
1002
{
1070
     2
1000
-2000080
1002
}
  0
LINE
  5
1B2
330
6C
100
AcDbEntity
  8
IKE01012-T1
100
AcDbLine
 10
-1867.717352388455
 20
197.959680688565
 30
0.0
 11
-1881.886351907821
 21
192.7360995799789
 31
0.0
1001
REVIT
1002
{
1070
     1
1000
8939
1002
}
1002
{
1070
     2
1000
-2000080
1002
}
  0
ELLIPSE
  5
1B3
330
6C
100
AcDbEntity
  8
IKE01012-T1
100
AcDbEllipse
 10
-1868.17035308995
 20
179.0201007621064
 30
0.0
 11
-13.71599881787244
 21
13.71599881787257
 31
0.0
210
0.0
220
0.0
230
1.0
 40
0.2756373558169942
 41
0.0
 42
0.2617993877991049
1001
REVIT
1002
{
1070
     1
1000
8939
1002
}
1002
{
1070
     2
1000
-2000080
1002
}
  0
ELLIPSE
  5
1B4
330
6C
100
AcDbEntity
  8
IKE01012-T1
100
AcDbEllipse
 10
-1868.17035308995
 20
179.0201007621064
 30
0.0
 11
-13.71599881787233
 21
13.71599881787253
 31
0.0
210
0.0
220
0.0
230
1.0
 40
0.2756373558170045
 41
0.2617999190887139
 42
0.5235987755982869
1001
REVIT
1002
{
1070
     1
1000
8939
1002
}
1002
{
1070
     2
1000
-2000080
1002
}
  0
ELLIPSE
  5
1B5
330
6C
100
AcDbEntity
  8
IKE01012-T1
100
AcDbEllipse
 10
-1868.17035308995
 20
179.0201007621064
 30
0.0
 11
-13.71599881787241
 21
13.71599881787256
 31
0.0
210
0.0
220
0.0
230
1.0
 40
0.2756373558170035
 41
0.5235994175705699
 42
1.047197408609138
1001
REVIT
1002
{
1070
     1
1000
8939
1002
}
1002
{
1070
     2
1000
-2000080
1002
}
  0
ELLIPSE
  5
1B6
330
6C
100
AcDbEntity
  8
IKE01012-T1
100
AcDbEllipse
 10
-1868.17035308995
 20
179.0201007621064
 30
0.0
 11
-13.71599881787237
 21
13.71599881787262
 31
0.0
210
0.0
220
0.0
230
1.0
 40
0.2756373558169925
 41
1.047197551196589
 42
1.308996938995744
1001
REVIT
1002
{
1070
     1
1000
8939
1002
}
1002
{
1070
     2
1000
-2000080
1002
}
  0
ELLIPSE
  5
1B7
330
6C
100
AcDbEntity
  8
IKE01012-T1
100
AcDbEllipse
 10
-1868.17035308995
 20
179.0201007621064
 30
0.0
 11
-13.71599881787249
 21
13.7159988178726
 31
0.0
210
0.0
220
0.0
230
0.9999999999999998
 40
0.2756373558169906
 41
1.308997183178869
 42
1.570796326794888
1001
REVIT
1002
{
1070
     1
1000
8939
1002
}
1002
{
1070
     2
1000
-2000080
1002
}
  0
LINE
  5
1B8
330
6C
100
AcDbEntity
  8
IKE01012-T1
100
AcDbLine
 10
-1871.950994736497
 20
175.2394591155588
 30
0.0
 11
-1541.421850085512
 21
-155.2896855354311
 31
0.0
1001
REVIT
1002
{
1070
     1
1000
8939
1002
}
1002
{
1070
     2
1000
-2000080
1002
}
  0
ELLIPSE
  5
1B9
330
6C
100
AcDbEntity
  8
IKE01012-T1
100
AcDbEllipse
 10
-1537.833718679048
 20
-151.701556649194
 30
0.0
 11
-13.01757570455172
 21
13.01757570455183
 31
0.0
210
0.0
220
0.0
230
1.0
 40
0.2756373558169908
 41
1.570796326794899
 42
2.094394000648741
1001
REVIT
1002
{
1070
     1
1000
8939
1002
}
1002
{
1070
     2
1000
-2000080
1002
}
  0
ELLIPSE
  5
1BA
330
6C
100
AcDbEntity
  8
IKE01012-T1
100
AcDbEllipse
 10
-1537.833718679048
 20
-151.701556649194
 30
0.0
 11
-13.01757570455168
 21
13.01757570455183
 31
0.0
210
0.0
220
0.0
230
1.0
 40
0.2756373558169938
 41
2.094395102393163
 42
2.356191398476041
1001
REVIT
1002
{
1070
     1
1000
8939
1002
}
1002
{
1070
     2
1000
-2000080
1002
}
  0
ELLIPSE
  5
1BB
330
6C
100
AcDbEntity
  8
IKE01012-T1
100
AcDbEllipse
 10
-1537.833718679048
 20
-151.701556649194
 30
0.0
 11
-13.01757570455192
 21
13.0175757045518
 31
0.0
210
0.0
220
0.0
230
1.0
 40
0.275637355816996
 41
2.356194490192288
 42
2.617993176012692
1001
REVIT
1002
{
1070
     1
1000
8939
1002
}
1002
{
1070
     2
1000
-2000080
1002
}
  0
ELLIPSE
  5
1BC
330
6C
100
AcDbEntity
  8
IKE01012-T1
100
AcDbEllipse
 10
-1537.833718679048
 20
-151.701556649194
 30
0.0
 11
-13.01757570455165
 21
13.01757570455181
 31
0.0
210
0.0
220
0.0
230
1.0
 40
0.2756373558169981
 41
2.617993877991424
 42
2.879793104200407
1001
REVIT
1002
{
1070
     1
1000
8939
1002
}
1002
{
1070
     2
1000
-2000080
1002
}
  0
ELLIPSE
  5
1BD
330
6C
100
AcDbEntity
  8
IKE01012-T1
100
AcDbEllipse
 10
-1537.833718679048
 20
-151.701556649194
 30
0.0
 11
-13.01757570455168
 21
13.01757570455178
 31
0.0
210
0.0
220
0.0
230
0.9999999999999998
 40
0.2756373558169975
 41
2.879793265790557
 42
3.141592653589719
1001
REVIT
1002
{
1070
     1
1000
8939
1002
}
1002
{
1070
     2
1000
-2000080
1002
}
  0
ELLIPSE
  5
1BE
330
6C
100
AcDbEntity
  8
IKE01012-T1
100
AcDbEllipse
 10
-1565.467191471561
 20
-179.3350294417067
 30
0.0
 11
-13.01757570455156
 21
13.01757570455181
 31
0.0
210
0.0
220
0.0
230
1.0
 40
0.2756373558169938
 41
2.094395102393166
 42
3.141592653589711
1001
REVIT
1002
{
1070
     1
1000
8939
1002
}
1002
{
1070
     2
1000
-2000080
1002
}
  0
ELLIPSE
  5
1BF
330
6C
100
AcDbEntity
  8
IKE01012-T1
100
AcDbEllipse
 10
-1565.467191471561
 20
-179.3350294417067
 30
0.0
 11
-13.01757570455189
 21
13.01757570455177
 31
0.0
210
0.0
220
0.0
230
1.0
 40
0.2756373558169906
 41
1.83259571459402
 42
2.0943928848428
1001
REVIT
1002
{
1070
     1
1000
8939
1002
}
1002
{
1070
     2
1000
-2000080
1002
}
  0
ELLIPSE
  5
1C0
330
6C
100
AcDbEntity
  8
IKE01012-T1
100
AcDbEllipse
 10
-1565.467191471561
 20
-179.3350294417067
 30
0.0
 11
-13.01757570455161
 21
13.01757570455176
 31
0.0
210
0.0
220
0.0
230
1.0
 40
0.2756373558170005
 41
1.570796326794893
 42
1.83259384971252
1001
REVIT
1002
{
1070
     1
1000
8939
1002
}
1002
{
1070
     2
1000
-2000080
1002
}
  0
LINE
  5
1C1
330
6C
100
AcDbEntity
  8
IKE01012-T1
100
AcDbLine
 10
-1569.055326136617
 20
-182.9231550693512
 30
0.0
 11
-1899.58446752901
 21
147.6059863230462
 31
0.0
1001
REVIT
1002
{
1070
     1
1000
8939
1002
}
1002
{
1070
     2
1000
-2000080
1002
}
  0
ELLIPSE
  5
1C2
330
6C
100
AcDbEntity
  8
IKE01012-T1
100
AcDbEllipse
 10
-1895.803825882462
 20
151.3866279695938
 30
0.0
 11
-13.71599881787235
 21
13.7159988178726
 31
0.0
210
0.0
220
0.0
230
0.9999999999999998
 40
0.2756373558169999
 41
1.308996951282292
 42
1.570796326794893
1001
REVIT
1002
{
1070
     1
1000
8939
1002
}
1002
{
1070
     2
1000
-2000080
1002
}
  0
ELLIPSE
  5
1C3
330
6C
100
AcDbEntity
  8
IKE01012-T1
100
AcDbEllipse
 10
-1895.803825882462
 20
151.3866279695938
 30
0.0
 11
-13.71599881787229
 21
13.71599881787262
 31
0.0
210
0.0
220
0.0
230
1.0
 40
0.2756373558169945
 41
0.0000000000000009
 42
1.308996938995746
1001
REVIT
1002
{
1070
     1
1000
8939
1002
}
1002
{
1070
     2
1000
-2000080
1002
}
  0
LINE
  5
1C4
330
6C
100
AcDbEntity
  8
IKE01012-T1
100
AcDbLine
 10
-1524.816142974497
 20
-164.7191323537462
 30
0.0
 11
-1552.44961576701
 21
-192.3526051462589
 31
0.0
1001
REVIT
1002
{
1070
     1
1000
8939
1002
}
1002
{
1070
     2
1000
-2000080
1002
}
  0
LINE
  5
1C5
330
6C
100
AcDbEntity
  8
IKE01012-T1
100
AcDbLine
 10
-1909.519824700335
 20
165.1026267874664
 30
0.0
 11
-1881.886351907822
 21
192.7360995799791
 31
0.0
1001
REVIT
1002
{
1070
     1
1000
8939
1002
}
1002
{
1070
     2
1000
-2000080
1002
}
  0
LINE
  5
1C6
330
6C
100
AcDbEntity
  8
IKE01012-T1
100
AcDbLine
 10
-1801.370250946436
 20
196.0525391136614
 30
0.0
 11
-1520.614375917651
 21
-84.70333591512721
 31
0.0
1001
REVIT
1002
{
1070
     1
1000
8950
1002
}
1002
{
1070
     2
1000
-2000080
1002
}
  0
ELLIPSE
  5
1C7
330
6C
100
AcDbEntity
  8
IKE01012-T1
100
AcDbEllipse
 10
-1516.97030734948
 20
-81.05926734695584
 30
0.0
 11
-13.22051779727094
 21
13.220517797271
 31
0.0
210
0.0
220
0.0
230
1.0
 40
0.2756373558169965
 41
1.570796326794902
 42
1.577612866136552
1001
REVIT
1002
{
1070
     1
1000
8950
1002
}
1002
{
1070
     2
1000
-2000080
1002
}
  0
ELLIPSE
  5
1C8
330
6C
100
AcDbEntity
  8
IKE01012-T1
100
AcDbEllipse
 10
-1516.97030734948
 20
-81.05926734695584
 30
0.0
 11
-13.22051779727086
 21
13.22051779727095
 31
0.0
210
0.0
220
0.0
230
1.0
 40
0.2756373558170041
 41
4.705572441042992
 42
4.712388980384675
1001
REVIT
1002
{
1070
     1
1000
8950
1002
}
1002
{
1070
     2
1000
-2000080
1002
}
  0
LINE
  5
1C9
330
6C
100
AcDbEntity
  8
IKE01012-T1
100
AcDbLine
 10
-1513.326238781309
 20
-77.41519877878463
 30
0.0
 11
-1794.082113810094
 21
203.3406762500042
 31
0.0
1001
REVIT
1002
{
1070
     1
1000
8950
1002
}
1002
{
1070
     2
1000
-2000080
1002
}
  0
LINE
  5
1CA
330
6C
100
AcDbEntity
  8
IKE01012-T1
100
AcDbLine
 10
-1533.100363074161
 20
-97.18932307163683
 30
0.0
 11
-1813.755288957207
 21
183.4656028114135
 31
0.0
1001
REVIT
1002
{
1070
     1
1000
8950
1002
}
1002
{
1070
     2
1000
-2000080
1002
}
  0
LINE
  5
1CB
330
6C
100
AcDbEntity
  8
IKE01012-T1
100
AcDbLine
 10
-1612.216222087707
 20
-46.27162589083086
 30
0.0
 11
-1591.887893120295
 21
-61.39393202604878
 31
0.0
1001
REVIT
1002
{
1070
     1
1000
8957
1002
}
1002
{
1070
     2
1000
-2000080
1002
}
  0
LINE
  5
1CC
330
6C
100
AcDbEntity
  8
IKE01012-T1
100
AcDbLine
 10
-1591.887893120295
 20
-61.39393202604878
 30
0.0
 11
-1538.092491125354
 21
-101.4125019514972
 31
0.0
1001
REVIT
1002
{
1070
     1
1000
8957
1002
}
1002
{
1070
     2
1000
-2000080
1002
}
  0
LINE
  5
1CD
330
6C
100
AcDbEntity
  8
IKE01012-T1
100
AcDbLine
 10
-1538.092491125354
 20
-101.4125019514972
 30
0.0
 11
-1557.152275515764
 21
-82.35271756108662
 31
0.0
1001
REVIT
1002
{
1070
     1
1000
8957
1002
}
1002
{
1070
     2
1000
-2000080
1002
}
  0
LINE
  5
1CE
330
6C
100
AcDbEntity
  8
IKE01012-T1
100
AcDbLine
 10
-1557.152275515765
 20
-82.35271756108645
 30
0.0
 11
-1607.464342451202
 21
-44.88904913328064
 31
0.0
1001
REVIT
1002
{
1070
     1
1000
8957
1002
}
1002
{
1070
     2
1000
-2000080
1002
}
  0
LINE
  5
1CF
330
6C
100
AcDbEntity
  8
IKE01012-T1
100
AcDbLine
 10
-1607.464342451202
 20
-44.8890491332806
 30
0.0
 11
-1631.485760068552
 21
-27.00208790998628
 31
0.0
1001
REVIT
1002
{
1070
     1
1000
8957
1002
}
1002
{
1070
     2
1000
-2000080
1002
}
  0
LINE
  5
1D0
330
6C
100
AcDbEntity
  8
IKE01012-T1
100
AcDbLine
 10
-1747.497899702345
 20
89.01005172380905
 30
0.0
 11
-1765.3822022269
 21
113.0288248061664
 31
0.0
1001
REVIT
1002
{
1070
     1
1000
8957
1002
}
1002
{
1070
     2
1000
-2000080
1002
}
  0
LINE
  5
1D1
330
6C
100
AcDbEntity
  8
IKE01012-T1
100
AcDbLine
 10
-1765.3822022269
 20
113.0288248061664
 30
0.0
 11
-1802.840487907363
 21
163.3354948305161
 31
0.0
1001
REVIT
1002
{
1070
     1
1000
8957
1002
}
1002
{
1070
     2
1000
-2000080
1002
}
  0
LINE
  5
1D2
330
6C
100
AcDbEntity
  8
IKE01012-T1
100
AcDbLine
 10
-1802.840487907363
 20
163.3354948305161
 30
0.0
 11
-1818.362942422734
 21
178.8579493458871
 31
0.0
1001
REVIT
1002
{
1070
     1
1000
8957
1002
}
1002
{
1070
     2
1000
-2000080
1002
}
  0
LINE
  5
1D3
330
6C
100
AcDbEntity
  8
IKE01012-T1
100
AcDbLine
 10
-1818.882435755776
 20
178.3384560128456
 30
0.0
 11
-1781.886768778068
 21
128.6049577954729
 31
0.0
1001
REVIT
1002
{
1070
     1
1000
8957
1002
}
1002
{
1070
     2
1000
-2000080
1002
}
  0
LINE
  5
1D4
330
6C
100
AcDbEntity
  8
IKE01012-T1
100
AcDbLine
 10
-1781.886768778068
 20
128.6049577954729
 30
0.0
 11
-1766.766590949827
 21
108.2787429712907
 31
0.0
1001
REVIT
1002
{
1070
     1
1000
8957
1002
}
1002
{
1070
     2
1000
-2000080
1002
}
  0
LINE
  5
1D5
330
6C
100
AcDbEntity
  8
IKE01012-T1
100
AcDbLine
 10
-1814.650150956006
 20
156.1623029774705
 30
0.0
 11
-1825.915078611576
 21
171.3058131570458
 31
0.0
1001
REVIT
1002
{
1070
     1
1000
8957
1002
}
1002
{
1070
     2
1000
-2000080
1002
}
  0
LINE
  5
1D6
330
6C
100
AcDbEntity
  8
IKE01012-T1
100
AcDbLine
 10
-1545.125133981154
 20
-108.4451448072969
 30
0.0
 11
-1564.327125417527
 21
-94.160722561012
 31
0.0
1001
REVIT
1002
{
1070
     1
1000
8957
1002
}
1002
{
1070
     2
1000
-2000080
1002
}
  0
LINE
  5
1D7
330
6C
100
AcDbEntity
  8
IKE01012-T1
100
AcDbLine
 10
-1545.125133981154
 20
-108.4451448072969
 30
0.0
 11
-1538.092491125354
 21
-101.4125019514972
 31
0.0
1001
REVIT
1002
{
1070
     1
1000
8957
1002
}
1002
{
1070
     2
1000
-2000080
1002
}
  0
LINE
  5
1D8
330
6C
100
AcDbEntity
  8
IKE01012-T1
100
AcDbLine
 10
-1246.749419117757
 20
188.9834363488273
 30
0.0
 11
-1527.59438641451
 21
469.828403645584
 31
0.0
1001
REVIT
1002
{
1070
     1
1000
8988
1002
}
1002
{
1070
     2
1000
-2000080
1002
}
  0
ENDSEC
  0
SECTION
  2
OBJECTS
  0
DICTIONARY
  5
C
330
0
100
AcDbDictionary
281
     1
  3
ACAD_COLOR
350
63
  3
ACAD_GROUP
350
D
  3
ACAD_IMAGE_VARS
350
75
  3
ACAD_LAYOUT
350
62
  3
ACAD_MATERIAL
350
10
  3
ACAD_MLEADERSTYLE
350
66
  3
ACAD_MLINESTYLE
350
5F
  3
ACAD_PLOTSETTINGS
350
61
  3
ACAD_PLOTSTYLENAME
350
E
  3
ACAD_SCALELIST
350
42
  3
ACAD_TABLESTYLE
350
64
  3
ACAD_VISUALSTYLE
350
29
  3
ACDB_RECOMPOSE_DATA
350
21F
  3
AcDbVariableDictionary
350
1DF
  3
REVIT_DICTIONARY
350
1D9
  0
SUN
  5
1DE
330
57
100
AcDbSun
 90
        1
290
     1
 63
     7
421
 16777215
 40
0.0
291
     1
 91
  2456370
 92
 40290000
292
     0
 70
     1
 71
   128
280
     1
1001
ACAD
1000
AcDbSavedByObjectVersion
1070
     0
  0
DICTIONARY
  5
1DC
330
6C
100
AcDbDictionary
280
     1
281
     1
  3
ACAD_SORTENTS
360
1DD
  0
DICTIONARY
  5
63
102
{ACAD_REACTORS
330
C
102
}
330
C
100
AcDbDictionary
281
     1
  0
DICTIONARY
  5
D
102
{ACAD_REACTORS
330
C
102
}
330
C
100
AcDbDictionary
281
     1
  0
RASTERVARIABLES
  5
75
102
{ACAD_REACTORS
330
C
102
}
330
C
100
AcDbRasterVariables
 90
        0
 70
     0
 71
     1
 72
     1
  0
DICTIONARY
  5
62
102
{ACAD_REACTORS
330
C
102
}
330
C
100
AcDbDictionary
281
     1
  3
Layout1
350
6B
  3
Layout2
350
73
  3
Model
350
6F
  0
DICTIONARY
  5
10
102
{ACAD_REACTORS
330
C
102
}
330
C
100
AcDbDictionary
281
     1
  3
ByBlock
350
19
  3
ByLayer
350
11
  3
Global
350
21
  0
DICTIONARY
  5
66
102
{ACAD_REACTORS
330
C
102
}
330
C
100
AcDbDictionary
281
     1
  3
Standard
350
67
  0
DICTIONARY
  5
5F
102
{ACAD_REACTORS
330
C
102
}
330
C
100
AcDbDictionary
281
     1
  3
Standard
350
60
  0
DICTIONARY
  5
61
102
{ACAD_REACTORS
330
C
102
}
330
C
100
AcDbDictionary
281
     1
  0
ACDBDICTIONARYWDFLT
  5
E
102
{ACAD_REACTORS
330
C
102
}
330
C
100
AcDbDictionary
281
     1
  3
Normal
350
F
100
AcDbDictionaryWithDefault
340
F
  0
DICTIONARY
  5
42
102
{ACAD_REACTORS
330
C
102
}
330
C
100
AcDbDictionary
281
     1
  3
A0
350
43
  3
A1
350
44
  3
A2
350
45
  3
A3
350
46
  3
A4
350
47
  3
A5
350
48
  3
A6
350
49
  3
A7
350
4A
  3
A8
350
4B
  3
A9
350
4C
  3
B0
350
4D
  3
B1
350
4E
  3
B2
350
4F
  3
B3
350
50
  3
B4
350
51
  3
B5
350
52
  3
B6
350
53
  0
DICTIONARY
  5
64
102
{ACAD_REACTORS
330
C
102
}
330
C
100
AcDbDictionary
281
     1
  3
Standard
350
65
  0
DICTIONARY
  5
29
102
{ACAD_REACTORS
330
C
102
}
330
C
100
AcDbDictionary
281
     1
  3
2dWireframe
350
2F
  3
Basic
350
2E
  3
Brighten
350
35
  3
ColorChange
350
39
  3
Conceptual
350
32
  3
Dim
350
34
  3
EdgeColorOff
350
41
  3
Facepattern
350
38
  3
Flat
350
2A
  3
FlatWithEdges
350
2B
  3
Gouraud
350
2C
  3
GouraudWithEdges
350
2D
  3
Hidden
350
31
  3
JitterOff
350
3F
  3
Linepattern
350
37
  3
OverhangOff
350
40
  3
Realistic
350
33
  3
Shaded
350
3E
  3
Shaded with edges
350
3D
  3
Shades of Gray
350
3A
  3
Sketchy
350
3B
  3
Thicken
350
36
  3
Wireframe
350
30
  3
X-Ray
350
3C
  0
XRECORD
  5
21F
102
{ACAD_REACTORS
330
C
102
}
330
C
100
AcDbXrecord
280
     1
 90
        1
330
65
  0
DICTIONARY
  5
1DF
102
{ACAD_REACTORS
330
C
102
}
330
C
100
AcDbDictionary
281
     1
  3
CANNOSCALE
350
1E2
  3
CMLEADERSTYLE
350
1E1
  3
CTABLESTYLE
350
1E0
  3
XCLIPFRAME
350
21C
  0
DICTIONARY
  5
1D9
102
{ACAD_REACTORS
330
C
102
}
330
C
100
AcDbDictionary
281
     1
  3
DRAWING_TOOL
350
1DB
  3
REVIT_CATEGORY_MAPPING
350
1DA
  0
SORTENTSTABLE
  5
1DD
102
{ACAD_REACTORS
330
1DC
102
}
330
1DC
100
AcDbSortentsTable
330
6C
  0
LAYOUT
  5
6B
102
{ACAD_REACTORS
330
62
102
}
330
62
100
AcDbPlotSettings
  1

  2

  4

  6

 40
0.0
 41
0.0
 42
0.0
 43
0.0
 44
0.0
 45
0.0
 46
0.0
 47
0.0
 48
0.0
 49
0.0
140
0.0
141
0.0
142
1.0
143
1.0
 70
   688
 72
     0
 73
     0
 74
     5
  7

 75
    16
147
1.0
 76
     0
 77
     2
 78
   300
148
0.0
149
0.0
100
AcDbLayout
  1
Layout1
 70
     1
 71
     1
 10
0.0
 20
0.0
 11
12.0
 21
9.0
 12
0.0
 22
0.0
 32
0.0
 14
1.000000000000000E+20
 24
1.000000000000000E+20
 34
1.000000000000000E+20
 15
-1.000000000000000E+20
 25
-1.000000000000000E+20
 35
-1.000000000000000E+20
146
0.0
 13
0.0
 23
0.0
 33
0.0
 16
1.0
 26
0.0
 36
0.0
 17
0.0
 27
1.0
 37
0.0
 76
     0
330
68
  0
LAYOUT
  5
73
102
{ACAD_REACTORS
330
62
102
}
330
62
100
AcDbPlotSettings
  1

  2

  4

  6

 40
0.0
 41
0.0
 42
0.0
 43
0.0
 44
0.0
 45
0.0
 46
0.0
 47
0.0
 48
0.0
 49
0.0
140
0.0
141
0.0
142
1.0
143
1.0
 70
   688
 72
     0
 73
     0
 74
     5
  7

 75
    16
147
1.0
 76
     0
 77
     2
 78
   300
148
0.0
149
0.0
100
AcDbLayout
  1
Layout2
 70
     1
 71
     2
 10
0.0
 20
0.0
 11
12.0
 21
9.0
 12
0.0
 22
0.0
 32
0.0
 14
0.0
 24
0.0
 34
0.0
 15
0.0
 25
0.0
 35
0.0
146
0.0
 13
0.0
 23
0.0
 33
0.0
 16
1.0
 26
0.0
 36
0.0
 17
0.0
 27
1.0
 37
0.0
 76
     0
330
70
  0
LAYOUT
  5
6F
102
{ACAD_REACTORS
330
62
102
}
330
62
100
AcDbPlotSettings
  1

  2

  4

  6

 40
0.0
 41
0.0
 42
0.0
 43
0.0
 44
0.0
 45
0.0
 46
0.0
 47
0.0
 48
0.0
 49
0.0
140
0.0
141
0.0
142
1.0
143
1.0
 70
  1712
 72
     0
 73
     0
 74
     0
  7

 75
     0
147
1.0
 76
     0
 77
     2
 78
   300
148
0.0
149
0.0
100
AcDbLayout
  1
Model
 70
     1
 71
     0
 10
0.0
 20
0.0
 11
12.0
 21
9.0
 12
0.0
 22
0.0
 32
0.0
 14
0.0
 24
0.0
 34
0.0
 15
0.0
 25
0.0
 35
0.0
146
0.0
 13
0.0
 23
0.0
 33
0.0
 16
1.0
 26
0.0
 36
0.0
 17
0.0
 27
1.0
 37
0.0
 76
     0
330
6C
331
57
  0
MATERIAL
  5
19
102
{ACAD_XDICTIONARY
360
1A
102
}
102
{ACAD_REACTORS
330
10
102
}
330
10
100
AcDbMaterial
  1
ByBlock
 72
     0
 43
0.0208333333333333
 43
0.0
 43
0.0
 43
0.0
 43
0.0
 43
0.0208333333333333
 43
0.0
 43
0.0
 43
0.0
 43
0.0
 43
1.0
 43
0.0
 43
0.0
 43
0.0
 43
0.0
 43
1.0
 77
     0
 47
0.0208333333333333
 47
0.0
 47
0.0
 47
0.0
 47
0.0
 47
0.0208333333333333
 47
0.0
 47
0.0
 47
0.0
 47
0.0
 47
1.0
 47
0.0
 47
0.0
 47
0.0
 47
0.0
 47
1.0
171
     0
 49
0.0208333333333333
 49
0.0
 49
0.0
 49
0.0
 49
0.0
 49
0.0208333333333333
 49
0.0
 49
0.0
 49
0.0
 49
0.0
 49
1.0
 49
0.0
 49
0.0
 49
0.0
 49
0.0
 49
1.0
175
     0
142
0.0208333333333333
142
0.0
142
0.0
142
0.0
142
0.0
142
0.0208333333333333
142
0.0
142
0.0
142
0.0
142
0.0
142
1.0
142
0.0
142
0.0
142
0.0
142
0.0
142
1.0
179
     0
144
0.0208333333333333
144
0.0
144
0.0
144
0.0
144
0.0
144
0.0208333333333333
144
0.0
144
0.0
144
0.0
144
0.0
144
1.0
144
0.0
144
0.0
144
0.0
144
0.0
144
1.0
147
0.0208333333333333
147
0.0
147
0.0
147
0.0
147
0.0
147
0.0208333333333333
147
0.0
147
0.0
147
0.0
147
0.0
147
1.0
147
0.0
147
0.0
147
0.0
147
0.0
147
1.0
  0
MATERIAL
  5
11
102
{ACAD_XDICTIONARY
360
12
102
}
102
{ACAD_REACTORS
330
10
102
}
330
10
100
AcDbMaterial
  1
ByLayer
 72
     0
 43
0.0208333333333333
 43
0.0
 43
0.0
 43
0.0
 43
0.0
 43
0.0208333333333333
 43
0.0
 43
0.0
 43
0.0
 43
0.0
 43
1.0
 43
0.0
 43
0.0
 43
0.0
 43
0.0
 43
1.0
 77
     0
 47
0.0208333333333333
 47
0.0
 47
0.0
 47
0.0
 47
0.0
 47
0.0208333333333333
 47
0.0
 47
0.0
 47
0.0
 47
0.0
 47
1.0
 47
0.0
 47
0.0
 47
0.0
 47
0.0
 47
1.0
171
     0
 49
0.0208333333333333
 49
0.0
 49
0.0
 49
0.0
 49
0.0
 49
0.0208333333333333
 49
0.0
 49
0.0
 49
0.0
 49
0.0
 49
1.0
 49
0.0
 49
0.0
 49
0.0
 49
0.0
 49
1.0
175
     0
142
0.0208333333333333
142
0.0
142
0.0
142
0.0
142
0.0
142
0.0208333333333333
142
0.0
142
0.0
142
0.0
142
0.0
142
1.0
142
0.0
142
0.0
142
0.0
142
0.0
142
1.0
179
     0
144
0.0208333333333333
144
0.0
144
0.0
144
0.0
144
0.0
144
0.0208333333333333
144
0.0
144
0.0
144
0.0
144
0.0
144
1.0
144
0.0
144
0.0
144
0.0
144
0.0
144
1.0
147
0.0208333333333333
147
0.0
147
0.0
147
0.0
147
0.0
147
0.0208333333333333
147
0.0
147
0.0
147
0.0
147
0.0
147
1.0
147
0.0
147
0.0
147
0.0
147
0.0
147
1.0
  0
MATERIAL
  5
21
102
{ACAD_XDICTIONARY
360
22
102
}
102
{ACAD_REACTORS
330
10
102
}
330
10
100
AcDbMaterial
  1
Global
 72
     0
 43
0.0208333333333333
 43
0.0
 43
0.0
 43
0.0
 43
0.0
 43
0.0208333333333333
 43
0.0
 43
0.0
 43
0.0
 43
0.0
 43
1.0
 43
0.0
 43
0.0
 43
0.0
 43
0.0
 43
1.0
 77
     0
 47
0.0208333333333333
 47
0.0
 47
0.0
 47
0.0
 47
0.0
 47
0.0208333333333333
 47
0.0
 47
0.0
 47
0.0
 47
0.0
 47
1.0
 47
0.0
 47
0.0
 47
0.0
 47
0.0
 47
1.0
171
     0
 49
0.0208333333333333
 49
0.0
 49
0.0
 49
0.0
 49
0.0
 49
0.0208333333333333
 49
0.0
 49
0.0
 49
0.0
 49
0.0
 49
1.0
 49
0.0
 49
0.0
 49
0.0
 49
0.0
 49
1.0
175
     0
142
0.0208333333333333
142
0.0
142
0.0
142
0.0
142
0.0
142
0.0208333333333333
142
0.0
142
0.0
142
0.0
142
0.0
142
1.0
142
0.0
142
0.0
142
0.0
142
0.0
142
1.0
179
     0
144
0.0208333333333333
144
0.0
144
0.0
144
0.0
144
0.0
144
0.0208333333333333
144
0.0
144
0.0
144
0.0
144
0.0
144
1.0
144
0.0
144
0.0
144
0.0
144
0.0
144
1.0
147
0.0208333333333333
147
0.0
147
0.0
147
0.0
147
0.0
147
0.0208333333333333
147
0.0
147
0.0
147
0.0
147
0.0
147
1.0
147
0.0
147
0.0
147
0.0
147
0.0
147
1.0
  0
MLEADERSTYLE
  5
67
102
{ACAD_REACTORS
330
66
102
}
330
66
100
AcDbMLeaderStyle
170
     2
171
     1
172
     0
 90
        2
 40
0.0
 41
0.0
173
     1
 91
-1056964608
340
5B
 92
       -2
290
     1
 42
0.09
291
     1
 43
0.36
  3
Standard
 44
0.18
300

342
55
174
     1
178
     6
175
     1
176
     0
 93
-1056964608
 45
0.18
292
     0
297
     0
 46
0.18
 94
-1056964608
 47
1.0
 49
1.0
140
1.0
293
     1
141
0.0
294
     1
177
     0
142
1.0
295
     0
296
     0
143
0.125
1001
ACAD_MLEADERVER
1070
     2
  0
MLINESTYLE
  5
60
102
{ACAD_REACTORS
330
5F
102
}
330
5F
100
AcDbMlineStyle
  2
STANDARD
 70
     0
  3

 62
   256
 51
90.0
 52
90.0
 71
     2
 49
0.5
 62
   256
  6
BYLAYER
 49
-0.5
 62
   256
  6
BYLAYER
  0
ACDBPLACEHOLDER
  5
F
102
{ACAD_REACTORS
330
E
102
}
330
E
  0
SCALE
  5
43
102
{ACAD_REACTORS
330
42
102
}
330
42
100
AcDbScale
 70
     0
300
1:1
140
1.0
141
1.0
290
     1
  0
SCALE
  5
44
102
{ACAD_REACTORS
330
42
102
}
330
42
100
AcDbScale
 70
     0
300
1/128" = 1'-0"
140
0.0078125
141
12.0
290
     0
  0
SCALE
  5
45
102
{ACAD_REACTORS
330
42
102
}
330
42
100
AcDbScale
 70
     0
300
1/64" = 1'-0"
140
0.015625
141
12.0
290
     0
  0
SCALE
  5
46
102
{ACAD_REACTORS
330
42
102
}
330
42
100
AcDbScale
 70
     0
300
1/32" = 1'-0"
140
0.03125
141
12.0
290
     0
  0
SCALE
  5
47
102
{ACAD_REACTORS
330
42
102
}
330
42
100
AcDbScale
 70
     0
300
1/16" = 1'-0"
140
0.0625
141
12.0
290
     0
  0
SCALE
  5
48
102
{ACAD_REACTORS
330
42
102
}
330
42
100
AcDbScale
 70
     0
300
3/32" = 1'-0"
140
0.09375
141
12.0
290
     0
  0
SCALE
  5
49
102
{ACAD_REACTORS
330
42
102
}
330
42
100
AcDbScale
 70
     0
300
1/8" = 1'-0"
140
0.125
141
12.0
290
     0
  0
SCALE
  5
4A
102
{ACAD_REACTORS
330
42
102
}
330
42
100
AcDbScale
 70
     0
300
3/16" = 1'-0"
140
0.1875
141
12.0
290
     0
  0
SCALE
  5
4B
102
{ACAD_REACTORS
330
42
102
}
330
42
100
AcDbScale
 70
     0
300
1/4" = 1'-0"
140
0.25
141
12.0
290
     0
  0
SCALE
  5
4C
102
{ACAD_REACTORS
330
42
102
}
330
42
100
AcDbScale
 70
     0
300
3/8" = 1'-0"
140
0.375
141
12.0
290
     0
  0
SCALE
  5
4D
102
{ACAD_REACTORS
330
42
102
}
330
42
100
AcDbScale
 70
     0
300
1/2" = 1'-0"
140
0.5
141
12.0
290
     0
  0
SCALE
  5
4E
102
{ACAD_REACTORS
330
42
102
}
330
42
100
AcDbScale
 70
     0
300
3/4" = 1'-0"
140
0.75
141
12.0
290
     0
  0
SCALE
  5
4F
102
{ACAD_REACTORS
330
42
102
}
330
42
100
AcDbScale
 70
     0
300
1" = 1'-0"
140
1.0
141
12.0
290
     0
  0
SCALE
  5
50
102
{ACAD_REACTORS
330
42
102
}
330
42
100
AcDbScale
 70
     0
300
1-1/2" = 1'-0"
140
1.5
141
12.0
290
     0
  0
SCALE
  5
51
102
{ACAD_REACTORS
330
42
102
}
330
42
100
AcDbScale
 70
     0
300
3" = 1'-0"
140
3.0
141
12.0
290
     0
  0
SCALE
  5
52
102
{ACAD_REACTORS
330
42
102
}
330
42
100
AcDbScale
 70
     0
300
6" = 1'-0"
140
6.0
141
12.0
290
     0
  0
SCALE
  5
53
102
{ACAD_REACTORS
330
42
102
}
330
42
100
AcDbScale
 70
     0
300
1'-0" = 1'-0"
140
12.0
141
12.0
290
     0
  0
TABLESTYLE
  5
65
102
{ACAD_XDICTIONARY
360
21D
102
}
102
{ACAD_REACTORS
330
64
102
}
330
64
100
AcDbTableStyle
  3
Standard
 70
     0
 71
     0
 40
0.06
 41
0.06
280
     0
281
     0
  7
Standard
140
0.18
170
     2
 62
     0
 63
     7
283
     0
 90
      512
 91
        0
  1

274
    -2
284
     1
 64
     0
275
    -2
285
     1
 65
     0
276
    -2
286
     1
 66
     0
277
    -2
287
     1
 67
     0
278
    -2
288
     1
 68
     0
279
    -2
289
     1
 69
     0
  7
Standard
140
0.25
170
     5
 62
     0
 63
     7
283
     0
 90
      512
 91
        0
  1

274
    -2
284
     1
 64
     0
275
    -2
285
     1
 65
     0
276
    -2
286
     1
 66
     0
277
    -2
287
     1
 67
     0
278
    -2
288
     1
 68
     0
279
    -2
289
     1
 69
     0
  7
Standard
140
0.18
170
     5
 62
     0
 63
     7
283
     0
 90
      512
 91
        0
  1

274
    -2
284
     1
 64
     0
275
    -2
285
     1
 65
     0
276
    -2
286
     1
 66
     0
277
    -2
287
     1
 67
     0
278
    -2
288
     1
 68
     0
279
    -2
289
     1
 69
     0
  0
VISUALSTYLE
  5
2F
102
{ACAD_XDICTIONARY
360
22A
102
}
102
{ACAD_REACTORS
330
29
102
}
330
29
100
AcDbVisualStyle
  2
2dWireframe
 70
     4
 71
     0
 72
     2
 73
     0
 90
        0
 40
-0.6
 41
-30.0
 62
     5
 63
     7
421
 16777215
 74
     1
 91
        4
 64
     7
 65
   257
 75
     1
175
     1
 42
1.0
 92
        0
 66
   257
 43
1.0
 76
     1
 77
     6
 78
     2
 67
     7
 79
     5
170
     0
171
     0
290
     0
174
     0
 93
        1
 44
0.0
173
     0
291
     0
 45
0.0
1001
ACAD
1000
AcDbSavedByObjectVersion
1070
     0
  0
VISUALSTYLE
  5
2E
102
{ACAD_XDICTIONARY
360
228
102
}
102
{ACAD_REACTORS
330
29
102
}
330
29
100
AcDbVisualStyle
  2
Basic
 70
     7
 71
     1
 72
     0
 73
     1
 90
        0
 40
-0.6
 41
-30.0
 62
     5
 63
     7
421
 16777215
 74
     0
 91
        4
 64
     7
 65
   257
 75
     1
175
     1
 42
1.0
 92
        8
 66
     7
 43
1.0
 76
     1
 77
     6
 78
     2
 67
     7
 79
     5
170
     0
171
     0
290
     0
174
     0
 93
        1
 44
0.0
173
     0
291
     1
 45
0.0
1001
ACAD
1000
AcDbSavedByObjectVersion
1070
     0
  0
VISUALSTYLE
  5
35
102
{ACAD_XDICTIONARY
360
236
102
}
102
{ACAD_REACTORS
330
29
102
}
330
29
100
AcDbVisualStyle
  2
Brighten
 70
    12
 71
     2
 72
     2
 73
     0
 90
        0
 40
-0.6
 41
-30.0
 62
     5
 63
     7
421
 16777215
 74
     1
 91
        4
 64
     7
 65
   257
 75
     1
175
     1
 42
1.0
 92
        8
 66
     7
 43
1.0
 76
     1
 77
     6
 78
     2
 67
     7
 79
     5
170
     0
171
     0
290
     0
174
     0
 93
        1
 44
50.0
173
     0
291
     1
 45
0.0
1001
ACAD
1000
AcDbSavedByObjectVersion
1070
     0
  0
VISUALSTYLE
  5
39
102
{ACAD_XDICTIONARY
360
23E
102
}
102
{ACAD_REACTORS
330
29
102
}
330
29
100
AcDbVisualStyle
  2
ColorChange
 70
    16
 71
     2
 72
     2
 73
     3
 90
        0
 40
-0.6
 41
-30.0
 62
     5
 63
     8
421
  8421504
 74
     1
 91
        4
 64
     7
 65
   257
 75
     1
175
     1
 42
1.0
 92
        8
 66
     8
424
  8421504
 43
1.0
 76
     1
 77
     6
 78
     2
 67
     7
 79
     5
170
     0
171
     0
290
     0
174
     0
 93
        1
 44
0.0
173
     0
291
     1
 45
0.0
1001
ACAD
1000
AcDbSavedByObjectVersion
1070
     0
  0
VISUALSTYLE
  5
32
102
{ACAD_XDICTIONARY
360
230
102
}
102
{ACAD_REACTORS
330
29
102
}
330
29
100
AcDbVisualStyle
  2
Conceptual
 70
     9
 71
     3
 72
     2
 73
     0
 90
        0
 40
-0.6
 41
-30.0
 62
     5
 63
     7
421
 16777215
 74
     2
 91
        2
 64
     7
 65
   257
 75
     1
175
     1
 42
179.0
 92
        8
 66
     7
 43
1.0
 76
     1
 77
     6
 78
     2
 67
     7
 79
     3
170
     0
171
     0
290
     0
174
     0
 93
        1
 44
0.0
173
     0
291
     0
 45
0.0
1001
ACAD
1000
AcDbSavedByObjectVersion
1070
     0
  0
VISUALSTYLE
  5
34
102
{ACAD_XDICTIONARY
360
234
102
}
102
{ACAD_REACTORS
330
29
102
}
330
29
100
AcDbVisualStyle
  2
Dim
 70
    11
 71
     2
 72
     2
 73
     0
 90
        0
 40
-0.6
 41
-30.0
 62
     5
 63
     7
421
 16777215
 74
     1
 91
        4
 64
     7
 65
   257
 75
     1
175
     1
 42
1.0
 92
        8
 66
     7
 43
1.0
 76
     1
 77
     6
 78
     2
 67
     7
 79
     5
170
     0
171
     0
290
     0
174
     0
 93
        1
 44
-50.0
173
     0
291
     1
 45
0.0
1001
ACAD
1000
AcDbSavedByObjectVersion
1070
     0
  0
VISUALSTYLE
  5
41
102
{ACAD_XDICTIONARY
360
24E
102
}
102
{ACAD_REACTORS
330
29
102
}
330
29
100
AcDbVisualStyle
  2
EdgeColorOff
 70
    22
 71
     2
 72
     2
 73
     0
 90
        0
 40
-0.6
 41
-30.0
 62
     5
 63
     7
421
 16777215
 74
     1
 91
        4
 64
     7
 65
   257
 75
     1
175
     1
 42
1.0
 92
        8
 66
     7
 43
1.0
 76
     1
 77
     6
 78
     2
 67
     7
 79
     5
170
     0
171
     0
290
     0
174
     0
 93
        1
 44
0.0
173
     0
291
     1
 45
0.0
1001
ACAD
1000
AcDbSavedByObjectVersion
1070
     0
  0
VISUALSTYLE
  5
38
102
{ACAD_XDICTIONARY
360
23C
102
}
102
{ACAD_REACTORS
330
29
102
}
330
29
100
AcDbVisualStyle
  2
Facepattern
 70
    15
 71
     2
 72
     2
 73
     0
 90
        0
 40
-0.6
 41
-30.0
 62
     5
 63
     7
421
 16777215
 74
     1
 91
        4
 64
     7
 65
   257
 75
     1
175
     1
 42
1.0
 92
        8
 66
     7
 43
1.0
 76
     1
 77
     6
 78
     2
 67
     7
 79
     5
170
     0
171
     0
290
     0
174
     0
 93
        1
 44
0.0
173
     0
291
     1
 45
0.0
1001
ACAD
1000
AcDbSavedByObjectVersion
1070
     0
  0
VISUALSTYLE
  5
2A
102
{ACAD_XDICTIONARY
360
220
102
}
102
{ACAD_REACTORS
330
29
102
}
330
29
100
AcDbVisualStyle
  2
Flat
 70
     0
 71
     2
 72
     1
 73
     1
 90
        2
 40
-0.6
 41
30.0
 62
     5
 63
     7
421
 16777215
 74
     0
 91
        0
 64
     7
 65
   257
 75
     1
175
     1
 42
1.0
 92
        8
 66
     7
 43
1.0
 76
     1
 77
     6
 78
     2
 67
     7
 79
     5
170
     0
171
     0
290
     0
174
     0
 93
       13
 44
0.0
173
     0
291
     1
 45
0.0
1001
ACAD
1000
AcDbSavedByObjectVersion
1070
     0
  0
VISUALSTYLE
  5
2B
102
{ACAD_XDICTIONARY
360
222
102
}
102
{ACAD_REACTORS
330
29
102
}
330
29
100
AcDbVisualStyle
  2
FlatWithEdges
 70
     1
 71
     2
 72
     1
 73
     1
 90
        2
 40
-0.6
 41
30.0
 62
     5
 63
     7
421
 16777215
 74
     1
 91
        0
 64
     7
 65
   257
 75
     1
175
     1
 42
1.0
 92
        0
 66
   257
 43
1.0
 76
     1
 77
     6
 78
     2
 67
     7
 79
     5
170
     0
171
     0
290
     0
174
     0
 93
       13
 44
0.0
173
     0
291
     1
 45
0.0
1001
ACAD
1000
AcDbSavedByObjectVersion
1070
     0
  0
VISUALSTYLE
  5
2C
102
{ACAD_XDICTIONARY
360
224
102
}
102
{ACAD_REACTORS
330
29
102
}
330
29
100
AcDbVisualStyle
  2
Gouraud
 70
     2
 71
     2
 72
     2
 73
     1
 90
        2
 40
-0.6
 41
30.0
 62
     5
 63
     7
421
 16777215
 74
     0
 91
        0
 64
     7
 65
   257
 75
     1
175
     1
 42
1.0
 92
        0
 66
     7
 43
1.0
 76
     1
 77
     6
 78
     2
 67
     7
 79
     5
170
     0
171
     0
290
     0
174
     0
 93
       13
 44
0.0
173
     0
291
     1
 45
0.0
1001
ACAD
1000
AcDbSavedByObjectVersion
1070
     0
  0
VISUALSTYLE
  5
2D
102
{ACAD_XDICTIONARY
360
226
102
}
102
{ACAD_REACTORS
330
29
102
}
330
29
100
AcDbVisualStyle
  2
GouraudWithEdges
 70
     3
 71
     2
 72
     2
 73
     1
 90
        2
 40
-0.6
 41
30.0
 62
     5
 63
     7
421
 16777215
 74
     1
 91
        0
 64
     7
 65
   257
 75
     1
175
     1
 42
1.0
 92
        0
 66
   257
 43
1.0
 76
     1
 77
     6
 78
     2
 67
     7
 79
     5
170
     0
171
     0
290
     0
174
     0
 93
       13
 44
0.0
173
     0
291
     1
 45
0.0
1001
ACAD
1000
AcDbSavedByObjectVersion
1070
     0
  0
VISUALSTYLE
  5
31
102
{ACAD_XDICTIONARY
360
22E
102
}
102
{ACAD_REACTORS
330
29
102
}
330
29
100
AcDbVisualStyle
  2
Hidden
 70
     6
 71
     1
 72
     2
 73
     2
 90
        0
 40
-0.6
 41
-30.0
 62
     5
 63
     7
421
 16777215
 74
     2
 91
        2
 64
     7
 65
   257
 75
     2
175
     1
 42
40.0
 92
        0
 66
   257
 43
1.0
 76
     1
 77
     6
 78
     2
 67
     7
 79
     3
170
     0
171
     0
290
     0
174
     0
 93
        1
 44
0.0
173
     0
291
     0
 45
0.0
1001
ACAD
1000
AcDbSavedByObjectVersion
1070
     0
  0
VISUALSTYLE
  5
3F
102
{ACAD_XDICTIONARY
360
24A
102
}
102
{ACAD_REACTORS
330
29
102
}
330
29
100
AcDbVisualStyle
  2
JitterOff
 70
    20
 71
     2
 72
     2
 73
     0
 90
        0
 40
-0.6
 41
-30.0
 62
     5
 63
     7
421
 16777215
 74
     1
 91
        4
 64
     7
 65
   257
 75
     1
175
     1
 42
1.0
 92
       10
 66
     7
 43
1.0
 76
     1
 77
     6
 78
     2
 67
     7
 79
     5
170
     0
171
     0
290
     0
174
     0
 93
        1
 44
0.0
173
     0
291
     1
 45
0.0
1001
ACAD
1000
AcDbSavedByObjectVersion
1070
     0
  0
VISUALSTYLE
  5
37
102
{ACAD_XDICTIONARY
360
23A
102
}
102
{ACAD_REACTORS
330
29
102
}
330
29
100
AcDbVisualStyle
  2
Linepattern
 70
    14
 71
     2
 72
     2
 73
     0
 90
        0
 40
-0.6
 41
-30.0
 62
     5
 63
     7
421
 16777215
 74
     1
 91
        4
 64
     7
 65
   257
 75
     7
175
     7
 42
1.0
 92
        8
 66
     7
 43
1.0
 76
     1
 77
     6
 78
     2
 67
     7
 79
     5
170
     0
171
     0
290
     0
174
     0
 93
        1
 44
0.0
173
     0
291
     1
 45
0.0
1001
ACAD
1000
AcDbSavedByObjectVersion
1070
     0
  0
VISUALSTYLE
  5
40
102
{ACAD_XDICTIONARY
360
24C
102
}
102
{ACAD_REACTORS
330
29
102
}
330
29
100
AcDbVisualStyle
  2
OverhangOff
 70
    21
 71
     2
 72
     2
 73
     0
 90
        0
 40
-0.6
 41
-30.0
 62
     5
 63
     7
421
 16777215
 74
     1
 91
        4
 64
     7
 65
   257
 75
     1
175
     1
 42
1.0
 92
        9
 66
     7
 43
1.0
 76
     1
 77
     6
 78
     2
 67
     7
 79
     5
170
     0
171
     0
290
     0
174
     0
 93
        1
 44
0.0
173
     0
291
     1
 45
0.0
1001
ACAD
1000
AcDbSavedByObjectVersion
1070
     0
  0
VISUALSTYLE
  5
33
102
{ACAD_XDICTIONARY
360
232
102
}
102
{ACAD_REACTORS
330
29
102
}
330
29
100
AcDbVisualStyle
  2
Realistic
 70
     8
 71
     2
 72
     3
 73
     0
 90
        2
 40
-0.6
 41
30.0
 62
     5
 63
     7
421
 16777215
 74
     0
 91
        0
 64
     7
 65
   257
 75
     1
175
     1
 42
1.0
 92
        8
 66
   257
 43
1.0
 76
     1
 77
     6
 78
     2
 67
     7
 79
     3
170
     0
171
     0
290
     0
174
     0
 93
       13
 44
0.0
173
     0
291
     0
 45
0.0
1001
ACAD
1000
AcDbSavedByObjectVersion
1070
     0
  0
VISUALSTYLE
  5
3E
102
{ACAD_XDICTIONARY
360
248
102
}
102
{ACAD_REACTORS
330
29
102
}
330
29
100
AcDbVisualStyle
  2
Shaded
 70
    27
 71
     2
 72
     2
 73
     1
 90
        2
 40
-0.6
 41
30.0
 62
     5
 63
     7
421
 16777215
 74
     0
 91
        4
 64
     7
 65
   257
 75
     1
175
     1
 42
1.0
 92
        8
 66
   257
 43
1.0
 76
     1
 77
     6
 78
     2
 67
     8
425
  7895160
 79
     3
170
     0
171
     0
290
     0
174
     0
 93
        5
 44
0.0
173
     0
291
     0
 45
0.0
1001
ACAD
1000
AcDbSavedByObjectVersion
1070
     0
  0
VISUALSTYLE
  5
3D
102
{ACAD_XDICTIONARY
360
246
102
}
102
{ACAD_REACTORS
330
29
102
}
330
29
100
AcDbVisualStyle
  2
Shaded with edges
 70
    26
 71
     2
 72
     2
 73
     1
 90
        2
 40
-0.6
 41
30.0
 62
     5
 63
     7
421
 16777215
 74
     1
 91
       10
 64
     7
 65
   257
 75
     2
175
     1
 42
1.0
 92
        8
 66
   257
 43
1.0
 76
     1
 77
     6
 78
     2
 67
     7
 79
     3
170
     0
171
     0
290
     0
174
     0
 93
        5
 44
0.0
173
     0
291
     0
 45
0.0
1001
ACAD
1000
AcDbSavedByObjectVersion
1070
     0
  0
VISUALSTYLE
  5
3A
102
{ACAD_XDICTIONARY
360
240
102
}
102
{ACAD_REACTORS
330
29
102
}
330
29
100
AcDbVisualStyle
  2
Shades of Gray
 70
    23
 71
     2
 72
     2
 73
     3
 90
        0
 40
-0.6
 41
-30.0
 62
     5
 63
     7
421
 16777215
 74
     2
 91
        2
 64
     7
 65
     7
 75
     1
175
     1
 42
40.0
 92
        8
 66
     7
 43
1.0
 76
     1
 77
     6
 78
     2
 67
     7
 79
     3
170
     0
171
     0
290
     0
174
     0
 93
        1
 44
0.0
173
     0
291
     0
 45
0.0
1001
ACAD
1000
AcDbSavedByObjectVersion
1070
     0
  0
VISUALSTYLE
  5
3B
102
{ACAD_XDICTIONARY
360
242
102
}
102
{ACAD_REACTORS
330
29
102
}
330
29
100
AcDbVisualStyle
  2
Sketchy
 70
    24
 71
     1
 72
     2
 73
     2
 90
        0
 40
-0.6
 41
-30.0
 62
     5
 63
     7
421
 16777215
 74
     2
 91
        2
 64
     7
 65
     7
 75
     1
175
     1
 42
40.0
 92
       11
 66
     7
 43
1.0
 76
     1
 77
     6
 78
     2
 67
     7
 79
     6
170
     0
171
     0
290
     0
174
     0
 93
        1
 44
0.0
173
     0
291
     0
 45
0.0
1001
ACAD
1000
AcDbSavedByObjectVersion
1070
     0
  0
VISUALSTYLE
  5
36
102
{ACAD_XDICTIONARY
360
238
102
}
102
{ACAD_REACTORS
330
29
102
}
330
29
100
AcDbVisualStyle
  2
Thicken
 70
    13
 71
     2
 72
     2
 73
     0
 90
        0
 40
-0.6
 41
-30.0
 62
     5
 63
     7
421
 16777215
 74
     1
 91
        4
 64
     7
 65
   257
 75
     1
175
     1
 42
1.0
 92
       12
 66
     7
 43
1.0
 76
     1
 77
     6
 78
     2
 67
     7
 79
     5
170
     0
171
     0
290
     0
174
     0
 93
        1
 44
0.0
173
     0
291
     1
 45
0.0
1001
ACAD
1000
AcDbSavedByObjectVersion
1070
     0
  0
VISUALSTYLE
  5
30
102
{ACAD_XDICTIONARY
360
22C
102
}
102
{ACAD_REACTORS
330
29
102
}
330
29
100
AcDbVisualStyle
  2
Wireframe
 70
     5
 71
     0
 72
     2
 73
     0
 90
        0
 40
-0.6
 41
-30.0
 62
     5
 63
     7
421
 16777215
 74
     1
 91
        4
 64
     7
 65
   257
 75
     1
175
     1
 42
1.0
 92
        0
 66
   257
 43
1.0
 76
     1
 77
     6
 78
     2
 67
     7
 79
     3
170
     0
171
     0
290
     0
174
     0
 93
        1
 44
0.0
173
     0
291
     0
 45
0.0
1001
ACAD
1000
AcDbSavedByObjectVersion
1070
     0
  0
VISUALSTYLE
  5
3C
102
{ACAD_XDICTIONARY
360
244
102
}
102
{ACAD_REACTORS
330
29
102
}
330
29
100
AcDbVisualStyle
  2
X-Ray
 70
    25
 71
     2
 72
     2
 73
     1
 90
        1
 40
0.5
 41
-30.0
 62
     5
 63
     7
421
 16777215
 74
     1
 91
        0
 64
     7
 65
   257
 75
     1
175
     1
 42
1.0
 92
        8
 66
     7
 43
1.0
 76
     1
 77
     6
 78
     2
 67
     7
 79
     3
170
     0
171
     0
290
     0
174
     0
 93
       13
 44
0.0
173
     0
291
     0
 45
0.0
1001
ACAD
1000
AcDbSavedByObjectVersion
1070
     0
  0
DICTIONARYVAR
  5
1E2
102
{ACAD_REACTORS
330
1DF
102
}
330
1DF
100
DictionaryVariables
280
     0
  1
1:1
  0
DICTIONARYVAR
  5
1E1
102
{ACAD_REACTORS
330
1DF
102
}
330
1DF
100
DictionaryVariables
280
     0
  1
STANDARD
  0
DICTIONARYVAR
  5
1E0
102
{ACAD_REACTORS
330
1DF
102
}
330
1DF
100
DictionaryVariables
280
     0
  1
STANDARD
  0
DICTIONARYVAR
  5
21C
102
{ACAD_REACTORS
330
1DF
102
}
330
1DF
100
DictionaryVariables
280
     0
  1
2
  0
XRECORD
  5
1DB
102
{ACAD_REACTORS
330
1D9
102
}
330
1D9
100
AcDbXrecord
280
     1
  1
BUILDING_ID
  1
IKEA-Leksvik_Dining_Table-3D
  1
FLOOR_ID
  1
23
  0
XRECORD
  5
1DA
102
{ACAD_REACTORS
330
1D9
102
}
330
1D9
100
AcDbXrecord
280
     1
  1
-2000080
  1

  0
DICTIONARY
  5
1A
330
19
100
AcDbDictionary
280
     1
281
     1
  3
BUMPTILE
360
1C
  3
DIFFUSETILE
360
1B
  3
OPACITYTILE
360
1F
  3
REFLECTIONTILE
360
1E
  3
REFRACTIONTILE
360
20
  3
SPECULARTILE
360
1D
  0
DICTIONARY
  5
12
330
11
100
AcDbDictionary
280
     1
281
     1
  3
BUMPTILE
360
14
  3
DIFFUSETILE
360
13
  3
OPACITYTILE
360
17
  3
REFLECTIONTILE
360
16
  3
REFRACTIONTILE
360
18
  3
SPECULARTILE
360
15
  0
DICTIONARY
  5
22
330
21
100
AcDbDictionary
280
     1
281
     1
  3
BUMPTILE
360
24
  3
DIFFUSETILE
360
23
  3
OPACITYTILE
360
27
  3
REFLECTIONTILE
360
26
  3
REFRACTIONTILE
360
28
  3
SPECULARTILE
360
25
  0
DICTIONARY
  5
21D
330
65
100
AcDbDictionary
280
     1
281
     1
  3
ACAD_ROUNDTRIP_2008_TABLESTYLE_CELLSTYLEMAP
360
21E
  0
DICTIONARY
  5
22A
330
2F
100
AcDbDictionary
280
     1
281
     1
  3
ACAD_XREC_ROUNDTRIP
360
22B
  0
DICTIONARY
  5
228
330
2E
100
AcDbDictionary
280
     1
281
     1
  3
ACAD_XREC_ROUNDTRIP
360
229
  0
DICTIONARY
  5
236
330
35
100
AcDbDictionary
280
     1
281
     1
  3
ACAD_XREC_ROUNDTRIP
360
237
  0
DICTIONARY
  5
23E
330
39
100
AcDbDictionary
280
     1
281
     1
  3
ACAD_XREC_ROUNDTRIP
360
23F
  0
DICTIONARY
  5
230
330
32
100
AcDbDictionary
280
     1
281
     1
  3
ACAD_XREC_ROUNDTRIP
360
231
  0
DICTIONARY
  5
234
330
34
100
AcDbDictionary
280
     1
281
     1
  3
ACAD_XREC_ROUNDTRIP
360
235
  0
DICTIONARY
  5
24E
330
41
100
AcDbDictionary
280
     1
281
     1
  3
ACAD_XREC_ROUNDTRIP
360
24F
  0
DICTIONARY
  5
23C
330
38
100
AcDbDictionary
280
     1
281
     1
  3
ACAD_XREC_ROUNDTRIP
360
23D
  0
DICTIONARY
  5
220
330
2A
100
AcDbDictionary
280
     1
281
     1
  3
ACAD_XREC_ROUNDTRIP
360
221
  0
DICTIONARY
  5
222
330
2B
100
AcDbDictionary
280
     1
281
     1
  3
ACAD_XREC_ROUNDTRIP
360
223
  0
DICTIONARY
  5
224
330
2C
100
AcDbDictionary
280
     1
281
     1
  3
ACAD_XREC_ROUNDTRIP
360
225
  0
DICTIONARY
  5
226
330
2D
100
AcDbDictionary
280
     1
281
     1
  3
ACAD_XREC_ROUNDTRIP
360
227
  0
DICTIONARY
  5
22E
330
31
100
AcDbDictionary
280
     1
281
     1
  3
ACAD_XREC_ROUNDTRIP
360
22F
  0
DICTIONARY
  5
24A
330
3F
100
AcDbDictionary
280
     1
281
     1
  3
ACAD_XREC_ROUNDTRIP
360
24B
  0
DICTIONARY
  5
23A
330
37
100
AcDbDictionary
280
     1
281
     1
  3
ACAD_XREC_ROUNDTRIP
360
23B
  0
DICTIONARY
  5
24C
330
40
100
AcDbDictionary
280
     1
281
     1
  3
ACAD_XREC_ROUNDTRIP
360
24D
  0
DICTIONARY
  5
232
330
33
100
AcDbDictionary
280
     1
281
     1
  3
ACAD_XREC_ROUNDTRIP
360
233
  0
DICTIONARY
  5
248
330
3E
100
AcDbDictionary
280
     1
281
     1
  3
ACAD_XREC_ROUNDTRIP
360
249
  0
DICTIONARY
  5
246
330
3D
100
AcDbDictionary
280
     1
281
     1
  3
ACAD_XREC_ROUNDTRIP
360
247
  0
DICTIONARY
  5
240
330
3A
100
AcDbDictionary
280
     1
281
     1
  3
ACAD_XREC_ROUNDTRIP
360
241
  0
DICTIONARY
  5
242
330
3B
100
AcDbDictionary
280
     1
281
     1
  3
ACAD_XREC_ROUNDTRIP
360
243
  0
DICTIONARY
  5
238
330
36
100
AcDbDictionary
280
     1
281
     1
  3
ACAD_XREC_ROUNDTRIP
360
239
  0
DICTIONARY
  5
22C
330
30
100
AcDbDictionary
280
     1
281
     1
  3
ACAD_XREC_ROUNDTRIP
360
22D
  0
DICTIONARY
  5
244
330
3C
100
AcDbDictionary
280
     1
281
     1
  3
ACAD_XREC_ROUNDTRIP
360
245
  0
XRECORD
  5
1C
102
{ACAD_REACTORS
330
1A
102
}
330
1A
100
AcDbXrecord
280
     1
270
     1
271
     1
  0
XRECORD
  5
1B
102
{ACAD_REACTORS
330
1A
102
}
330
1A
100
AcDbXrecord
280
     1
270
     1
271
     1
  0
XRECORD
  5
1F
102
{ACAD_REACTORS
330
1A
102
}
330
1A
100
AcDbXrecord
280
     1
270
     1
271
     1
  0
XRECORD
  5
1E
102
{ACAD_REACTORS
330
1A
102
}
330
1A
100
AcDbXrecord
280
     1
270
     1
271
     1
  0
XRECORD
  5
20
102
{ACAD_REACTORS
330
1A
102
}
330
1A
100
AcDbXrecord
280
     1
270
     1
271
     1
  0
XRECORD
  5
1D
102
{ACAD_REACTORS
330
1A
102
}
330
1A
100
AcDbXrecord
280
     1
270
     1
271
     1
  0
XRECORD
  5
14
102
{ACAD_REACTORS
330
12
102
}
330
12
100
AcDbXrecord
280
     1
270
     1
271
     1
  0
XRECORD
  5
13
102
{ACAD_REACTORS
330
12
102
}
330
12
100
AcDbXrecord
280
     1
270
     1
271
     1
  0
XRECORD
  5
17
102
{ACAD_REACTORS
330
12
102
}
330
12
100
AcDbXrecord
280
     1
270
     1
271
     1
  0
XRECORD
  5
16
102
{ACAD_REACTORS
330
12
102
}
330
12
100
AcDbXrecord
280
     1
270
     1
271
     1
  0
XRECORD
  5
18
102
{ACAD_REACTORS
330
12
102
}
330
12
100
AcDbXrecord
280
     1
270
     1
271
     1
  0
XRECORD
  5
15
102
{ACAD_REACTORS
330
12
102
}
330
12
100
AcDbXrecord
280
     1
270
     1
271
     1
  0
XRECORD
  5
24
102
{ACAD_REACTORS
330
22
102
}
330
22
100
AcDbXrecord
280
     1
270
     1
271
     1
  0
XRECORD
  5
23
102
{ACAD_REACTORS
330
22
102
}
330
22
100
AcDbXrecord
280
     1
270
     1
271
     1
  0
XRECORD
  5
27
102
{ACAD_REACTORS
330
22
102
}
330
22
100
AcDbXrecord
280
     1
270
     1
271
     1
  0
XRECORD
  5
26
102
{ACAD_REACTORS
330
22
102
}
330
22
100
AcDbXrecord
280
     1
270
     1
271
     1
  0
XRECORD
  5
28
102
{ACAD_REACTORS
330
22
102
}
330
22
100
AcDbXrecord
280
     1
270
     1
271
     1
  0
XRECORD
  5
25
102
{ACAD_REACTORS
330
22
102
}
330
22
100
AcDbXrecord
280
     1
270
     1
271
     1
  0
CELLSTYLEMAP
  5
21E
102
{ACAD_REACTORS
330
21D
102
}
330
21D
100
AcDbCellStyleMap
 90
        3
300
CELLSTYLE
  1
TABLEFORMAT_BEGIN
 90
        5
170
     1
 91
        0
 92
    32768
 62
   257
 93
        1
300
CONTENTFORMAT
  1
CONTENTFORMAT_BEGIN
 90
        0
 91
        0
 92
      512
 93
        0
300

 40
0.0
140
1.0
 94
        5
 62
     0
340
55
144
0.25
309
CONTENTFORMAT_END
171
     0
 94
        0
309
TABLEFORMAT_END
  1
CELLSTYLE_BEGIN
 90
        1
 91
        1
300
_TITLE
309
CELLSTYLE_END
300
CELLSTYLE
  1
TABLEFORMAT_BEGIN
 90
        5
170
     1
 91
        0
 92
        0
 62
   257
 93
        1
300
CONTENTFORMAT
  1
CONTENTFORMAT_BEGIN
 90
        0
 91
        0
 92
      512
 93
        0
300

 40
0.0
140
1.0
 94
        5
 62
     0
340
55
144
0.18
309
CONTENTFORMAT_END
171
     0
 94
        0
309
TABLEFORMAT_END
  1
CELLSTYLE_BEGIN
 90
        2
 91
        1
300
_HEADER
309
CELLSTYLE_END
300
CELLSTYLE
  1
TABLEFORMAT_BEGIN
 90
        5
170
     1
 91
        0
 92
        0
 62
   257
 93
        1
300
CONTENTFORMAT
  1
CONTENTFORMAT_BEGIN
 90
        0
 91
        0
 92
      512
 93
        0
300

 40
0.0
140
1.0
 94
        2
 62
     0
340
55
144
0.18
309
CONTENTFORMAT_END
171
     0
 94
        0
309
TABLEFORMAT_END
  1
CELLSTYLE_BEGIN
 90
        3
 91
        2
300
_DATA
309
CELLSTYLE_END
  0
XRECORD
  5
22B
102
{ACAD_REACTORS
330
22A
102
}
330
22A
100
AcDbXrecord
280
     1
102
RTVSPropertyOp0
 70
     1
102
RTVSPropertyOp1
 70
     1
102
RTVSPropertyOp2
 70
     1
102
RTVSPropertyOp3
 70
     1
102
RTVSPropertyOp4
 70
     1
102
RTVSPropertyOp5
 70
     1
102
RTVSPropertyOp6
 70
     1
102
RTVSPropertyOp7
 70
     1
102
RTVSPropertyOp8
 70
     1
102
RTVSPropertyOp9
 70
     1
102
RTVSPropertyOp10
 70
     1
102
RTVSPropertyOp11
 70
     1
102
RTVSPropertyOp12
 70
     1
102
RTVSPropertyOp13
 70
     1
102
RTVSPropertyOp14
 70
     1
102
RTVSPropertyOp15
 70
     1
102
RTVSPropertyOp16
 70
     1
102
RTVSPropertyOp17
 70
     1
102
RTVSPropertyOp18
 70
     1
102
RTVSPropertyOp19
 70
     1
102
RTVSPropertyOp20
 70
     1
102
RTVSPropertyOp21
 70
     1
102
RTVSPropertyOp22
 70
     1
102
RTVSPropertyOp23
 70
     1
102
RTVSPropertyOp24
 70
     1
102
RTVSPropertyOp25
 70
     1
102
RTVSPropertyOp26
 70
     1
102
RTVSPropertyOp27
 70
     1
102
RTVSPropertyOp28
 70
     1
102
RTVSPropertyOp29
 70
     1
102
RTVSPropertyOp30
 70
     1
102
RTVSPropertyOp31
 70
     1
102
RTVSPropertyOp32
 70
     1
  0
XRECORD
  5
229
102
{ACAD_REACTORS
330
228
102
}
330
228
100
AcDbXrecord
280
     1
102
RTVSPropertyOp0
 70
     1
102
RTVSPropertyOp1
 70
     1
102
RTVSPropertyOp2
 70
     1
102
RTVSPropertyOp3
 70
     1
102
RTVSPropertyOp4
 70
     1
102
RTVSPropertyOp5
 70
     1
102
RTVSPropertyOp6
 70
     1
102
RTVSPropertyOp7
 70
     1
102
RTVSPropertyOp8
 70
     1
102
RTVSPropertyOp9
 70
     1
102
RTVSPropertyOp10
 70
     1
102
RTVSPropertyOp11
 70
     1
102
RTVSPropertyOp12
 70
     1
102
RTVSPropertyOp13
 70
     1
102
RTVSPropertyOp14
 70
     1
102
RTVSPropertyOp15
 70
     1
102
RTVSPropertyOp16
 70
     1
102
RTVSPropertyOp17
 70
     1
102
RTVSPropertyOp18
 70
     1
102
RTVSPropertyOp19
 70
     1
102
RTVSPropertyOp20
 70
     1
102
RTVSPropertyOp21
 70
     1
102
RTVSPropertyOp22
 70
     1
102
RTVSPropertyOp23
 70
     1
102
RTVSPropertyOp24
 70
     1
102
RTVSPropertyOp25
 70
     1
102
RTVSPropertyOp26
 70
     1
102
RTVSPropertyOp27
 70
     1
102
RTVSPropertyOp28
 70
     1
102
RTVSPropertyOp29
 70
     1
102
RTVSPropertyOp30
 70
     1
102
RTVSPropertyOp31
 70
     1
102
RTVSPropertyOp32
 70
     1
  0
XRECORD
  5
237
102
{ACAD_REACTORS
330
236
102
}
330
236
100
AcDbXrecord
280
     1
102
RTVSPropertyOp0
 70
     1
102
RTVSPropertyOp1
 70
     1
102
RTVSPropertyOp2
 70
     1
102
RTVSPropertyOp3
 70
     1
102
RTVSPropertyOp4
 70
     1
102
RTVSPropertyOp5
 70
     1
102
RTVSPropertyOp6
 70
     1
102
RTVSPropertyOp7
 70
     1
102
RTVSPropertyOp8
 70
     1
102
RTVSPropertyOp9
 70
     1
102
RTVSPropertyOp10
 70
     1
102
RTVSPropertyOp11
 70
     1
102
RTVSPropertyOp12
 70
     1
102
RTVSPropertyOp13
 70
     1
102
RTVSPropertyOp14
 70
     1
102
RTVSPropertyOp15
 70
     1
102
RTVSPropertyOp16
 70
     1
102
RTVSPropertyOp17
 70
     1
102
RTVSPropertyOp18
 70
     1
102
RTVSPropertyOp19
 70
     1
102
RTVSPropertyOp20
 70
     1
102
RTVSPropertyOp21
 70
     1
102
RTVSPropertyOp22
 70
     1
102
RTVSPropertyOp23
 70
     1
102
RTVSPropertyOp24
 70
     1
102
RTVSPropertyOp25
 70
     1
102
RTVSPropertyOp26
 70
     1
102
RTVSPropertyOp27
 70
     1
102
RTVSPropertyOp28
 70
     1
102
RTVSPropertyOp29
 70
     1
102
RTVSPropertyOp30
 70
     1
102
RTVSPropertyOp31
 70
     1
102
RTVSPropertyOp32
 70
     1
  0
XRECORD
  5
23F
102
{ACAD_REACTORS
330
23E
102
}
330
23E
100
AcDbXrecord
280
     1
102
RTVSPropertyOp0
 70
     1
102
RTVSPropertyOp1
 70
     1
102
RTVSPropertyOp2
 70
     1
102
RTVSPropertyOp3
 70
     1
102
RTVSPropertyOp4
 70
     1
102
RTVSPropertyOp5
 70
     1
102
RTVSPropertyOp6
 70
     1
102
RTVSPropertyOp7
 70
     1
102
RTVSPropertyOp8
 70
     1
102
RTVSPropertyOp9
 70
     1
102
RTVSPropertyOp10
 70
     1
102
RTVSPropertyOp11
 70
     1
102
RTVSPropertyOp12
 70
     1
102
RTVSPropertyOp13
 70
     1
102
RTVSPropertyOp14
 70
     1
102
RTVSPropertyOp15
 70
     1
102
RTVSPropertyOp16
 70
     1
102
RTVSPropertyOp17
 70
     1
102
RTVSPropertyOp18
 70
     1
102
RTVSPropertyOp19
 70
     1
102
RTVSPropertyOp20
 70
     1
102
RTVSPropertyOp21
 70
     1
102
RTVSPropertyOp22
 70
     1
102
RTVSPropertyOp23
 70
     1
102
RTVSPropertyOp24
 70
     1
102
RTVSPropertyOp25
 70
     1
102
RTVSPropertyOp26
 70
     1
102
RTVSPropertyOp27
 70
     1
102
RTVSPropertyOp28
 70
     1
102
RTVSPropertyOp29
 70
     1
102
RTVSPropertyOp30
 70
     1
102
RTVSPropertyOp31
 70
     1
102
RTVSPropertyOp32
 70
     1
  0
XRECORD
  5
231
102
{ACAD_REACTORS
330
230
102
}
330
230
100
AcDbXrecord
280
     1
102
RTVSPropertyOp0
 70
     1
102
RTVSPropertyOp1
 70
     1
102
RTVSPropertyOp2
 70
     1
102
RTVSPropertyOp3
 70
     1
102
RTVSPropertyOp4
 70
     1
102
RTVSPropertyOp5
 70
     1
102
RTVSPropertyOp6
 70
     1
102
RTVSPropertyOp7
 70
     1
102
RTVSPropertyOp8
 70
     1
102
RTVSPropertyOp9
 70
     1
102
RTVSPropertyOp10
 70
     1
102
RTVSPropertyOp11
 70
     1
102
RTVSPropertyOp12
 70
     1
102
RTVSPropertyOp13
 70
     1
102
RTVSPropertyOp14
 70
     1
102
RTVSPropertyOp15
 70
     1
102
RTVSPropertyOp16
 70
     1
102
RTVSPropertyOp17
 70
     1
102
RTVSPropertyOp18
 70
     1
102
RTVSPropertyOp19
 70
     1
102
RTVSPropertyOp20
 70
     1
102
RTVSPropertyOp21
 70
     1
102
RTVSPropertyOp22
 70
     1
102
RTVSPropertyOp23
 70
     1
102
RTVSPropertyOp24
 70
     1
102
RTVSPropertyOp25
 70
     1
102
RTVSPropertyOp26
 70
     1
102
RTVSPropertyOp27
 70
     1
102
RTVSPropertyOp28
 70
     1
102
RTVSPropertyOp29
 70
     1
102
RTVSPropertyOp30
 70
     1
102
RTVSPropertyOp31
 70
     1
102
RTVSPropertyOp32
 70
     1
  0
XRECORD
  5
235
102
{ACAD_REACTORS
330
234
102
}
330
234
100
AcDbXrecord
280
     1
102
RTVSPropertyOp0
 70
     1
102
RTVSPropertyOp1
 70
     1
102
RTVSPropertyOp2
 70
     1
102
RTVSPropertyOp3
 70
     1
102
RTVSPropertyOp4
 70
     1
102
RTVSPropertyOp5
 70
     1
102
RTVSPropertyOp6
 70
     1
102
RTVSPropertyOp7
 70
     1
102
RTVSPropertyOp8
 70
     1
102
RTVSPropertyOp9
 70
     1
102
RTVSPropertyOp10
 70
     1
102
RTVSPropertyOp11
 70
     1
102
RTVSPropertyOp12
 70
     1
102
RTVSPropertyOp13
 70
     1
102
RTVSPropertyOp14
 70
     1
102
RTVSPropertyOp15
 70
     1
102
RTVSPropertyOp16
 70
     1
102
RTVSPropertyOp17
 70
     1
102
RTVSPropertyOp18
 70
     1
102
RTVSPropertyOp19
 70
     1
102
RTVSPropertyOp20
 70
     1
102
RTVSPropertyOp21
 70
     1
102
RTVSPropertyOp22
 70
     1
102
RTVSPropertyOp23
 70
     1
102
RTVSPropertyOp24
 70
     1
102
RTVSPropertyOp25
 70
     1
102
RTVSPropertyOp26
 70
     1
102
RTVSPropertyOp27
 70
     1
102
RTVSPropertyOp28
 70
     1
102
RTVSPropertyOp29
 70
     1
102
RTVSPropertyOp30
 70
     1
102
RTVSPropertyOp31
 70
     1
102
RTVSPropertyOp32
 70
     1
  0
XRECORD
  5
24F
102
{ACAD_REACTORS
330
24E
102
}
330
24E
100
AcDbXrecord
280
     1
102
RTVSPropertyOp0
 70
     0
102
RTVSPropertyOp1
 70
     0
102
RTVSPropertyOp2
 70
     0
102
RTVSPropertyOp3
 70
     0
102
RTVSPropertyOp4
 70
     0
102
RTVSPropertyOp5
 70
     0
102
RTVSPropertyOp6
 70
     0
102
RTVSPropertyOp7
 70
     0
102
RTVSPropertyOp8
 70
     0
102
RTVSPropertyOp9
 70
     0
102
RTVSPropertyOp10
 70
     0
102
RTVSPropertyOp11
 70
     0
102
RTVSPropertyOp12
 70
     0
102
RTVSPropertyOp13
 70
     0
102
RTVSPropertyOp14
 70
     2
102
RTVSPropertyOp15
 70
     0
102
RTVSPropertyOp16
 70
     0
102
RTVSPropertyOp17
 70
     0
102
RTVSPropertyOp18
 70
     0
102
RTVSPropertyOp19
 70
     0
102
RTVSPropertyOp20
 70
     0
102
RTVSPropertyOp21
 70
     0
102
RTVSPropertyOp22
 70
     0
102
RTVSPropertyOp23
 70
     0
102
RTVSPropertyOp24
 70
     0
102
RTVSPropertyOp25
 70
     0
102
RTVSPropertyOp26
 70
     0
102
RTVSPropertyOp27
 70
     0
102
RTVSPropertyOp28
 70
     1
102
RTVSPropertyOp29
 70
     1
102
RTVSPropertyOp30
 70
     1
102
RTVSPropertyOp31
 70
     1
102
RTVSPropertyOp32
 70
     1
  0
XRECORD
  5
23D
102
{ACAD_REACTORS
330
23C
102
}
330
23C
100
AcDbXrecord
280
     1
102
RTVSPropertyOp0
 70
     1
102
RTVSPropertyOp1
 70
     1
102
RTVSPropertyOp2
 70
     1
102
RTVSPropertyOp3
 70
     1
102
RTVSPropertyOp4
 70
     1
102
RTVSPropertyOp5
 70
     1
102
RTVSPropertyOp6
 70
     1
102
RTVSPropertyOp7
 70
     1
102
RTVSPropertyOp8
 70
     1
102
RTVSPropertyOp9
 70
     1
102
RTVSPropertyOp10
 70
     1
102
RTVSPropertyOp11
 70
     1
102
RTVSPropertyOp12
 70
     1
102
RTVSPropertyOp13
 70
     1
102
RTVSPropertyOp14
 70
     1
102
RTVSPropertyOp15
 70
     1
102
RTVSPropertyOp16
 70
     1
102
RTVSPropertyOp17
 70
     1
102
RTVSPropertyOp18
 70
     1
102
RTVSPropertyOp19
 70
     1
102
RTVSPropertyOp20
 70
     1
102
RTVSPropertyOp21
 70
     1
102
RTVSPropertyOp22
 70
     1
102
RTVSPropertyOp23
 70
     1
102
RTVSPropertyOp24
 70
     1
102
RTVSPropertyOp25
 70
     1
102
RTVSPropertyOp26
 70
     1
102
RTVSPropertyOp27
 70
     1
102
RTVSPropertyOp28
 70
     1
102
RTVSPropertyOp29
 70
     1
102
RTVSPropertyOp30
 70
     1
102
RTVSPropertyOp31
 70
     1
102
RTVSPropertyOp32
 70
     1
  0
XRECORD
  5
221
102
{ACAD_REACTORS
330
220
102
}
330
220
100
AcDbXrecord
280
     1
102
RTVSPropertyOp0
 70
     1
102
RTVSPropertyOp1
 70
     1
102
RTVSPropertyOp2
 70
     1
102
RTVSPropertyOp3
 70
     1
102
RTVSPropertyOp4
 70
     1
102
RTVSPropertyOp5
 70
     1
102
RTVSPropertyOp6
 70
     1
102
RTVSPropertyOp7
 70
     1
102
RTVSPropertyOp8
 70
     1
102
RTVSPropertyOp9
 70
     1
102
RTVSPropertyOp10
 70
     1
102
RTVSPropertyOp11
 70
     1
102
RTVSPropertyOp12
 70
     1
102
RTVSPropertyOp13
 70
     1
102
RTVSPropertyOp14
 70
     1
102
RTVSPropertyOp15
 70
     1
102
RTVSPropertyOp16
 70
     1
102
RTVSPropertyOp17
 70
     1
102
RTVSPropertyOp18
 70
     1
102
RTVSPropertyOp19
 70
     1
102
RTVSPropertyOp20
 70
     1
102
RTVSPropertyOp21
 70
     1
102
RTVSPropertyOp22
 70
     1
102
RTVSPropertyOp23
 70
     1
102
RTVSPropertyOp24
 70
     1
102
RTVSPropertyOp25
 70
     1
102
RTVSPropertyOp26
 70
     1
102
RTVSPropertyOp27
 70
     1
102
RTVSPropertyOp28
 70
     1
102
RTVSPropertyOp29
 70
     1
102
RTVSPropertyOp30
 70
     1
102
RTVSPropertyOp31
 70
     1
102
RTVSPropertyOp32
 70
     1
  0
XRECORD
  5
223
102
{ACAD_REACTORS
330
222
102
}
330
222
100
AcDbXrecord
280
     1
102
RTVSPropertyOp0
 70
     1
102
RTVSPropertyOp1
 70
     1
102
RTVSPropertyOp2
 70
     1
102
RTVSPropertyOp3
 70
     1
102
RTVSPropertyOp4
 70
     1
102
RTVSPropertyOp5
 70
     1
102
RTVSPropertyOp6
 70
     1
102
RTVSPropertyOp7
 70
     1
102
RTVSPropertyOp8
 70
     1
102
RTVSPropertyOp9
 70
     1
102
RTVSPropertyOp10
 70
     1
102
RTVSPropertyOp11
 70
     1
102
RTVSPropertyOp12
 70
     1
102
RTVSPropertyOp13
 70
     1
102
RTVSPropertyOp14
 70
     1
102
RTVSPropertyOp15
 70
     1
102
RTVSPropertyOp16
 70
     1
102
RTVSPropertyOp17
 70
     1
102
RTVSPropertyOp18
 70
     1
102
RTVSPropertyOp19
 70
     1
102
RTVSPropertyOp20
 70
     1
102
RTVSPropertyOp21
 70
     1
102
RTVSPropertyOp22
 70
     1
102
RTVSPropertyOp23
 70
     1
102
RTVSPropertyOp24
 70
     1
102
RTVSPropertyOp25
 70
     1
102
RTVSPropertyOp26
 70
     1
102
RTVSPropertyOp27
 70
     1
102
RTVSPropertyOp28
 70
     1
102
RTVSPropertyOp29
 70
     1
102
RTVSPropertyOp30
 70
     1
102
RTVSPropertyOp31
 70
     1
102
RTVSPropertyOp32
 70
     1
  0
XRECORD
  5
225
102
{ACAD_REACTORS
330
224
102
}
330
224
100
AcDbXrecord
280
     1
102
RTVSPropertyOp0
 70
     1
102
RTVSPropertyOp1
 70
     1
102
RTVSPropertyOp2
 70
     1
102
RTVSPropertyOp3
 70
     1
102
RTVSPropertyOp4
 70
     1
102
RTVSPropertyOp5
 70
     1
102
RTVSPropertyOp6
 70
     1
102
RTVSPropertyOp7
 70
     1
102
RTVSPropertyOp8
 70
     1
102
RTVSPropertyOp9
 70
     1
102
RTVSPropertyOp10
 70
     1
102
RTVSPropertyOp11
 70
     1
102
RTVSPropertyOp12
 70
     1
102
RTVSPropertyOp13
 70
     1
102
RTVSPropertyOp14
 70
     1
102
RTVSPropertyOp15
 70
     1
102
RTVSPropertyOp16
 70
     1
102
RTVSPropertyOp17
 70
     1
102
RTVSPropertyOp18
 70
     1
102
RTVSPropertyOp19
 70
     1
102
RTVSPropertyOp20
 70
     1
102
RTVSPropertyOp21
 70
     1
102
RTVSPropertyOp22
 70
     1
102
RTVSPropertyOp23
 70
     1
102
RTVSPropertyOp24
 70
     1
102
RTVSPropertyOp25
 70
     1
102
RTVSPropertyOp26
 70
     1
102
RTVSPropertyOp27
 70
     1
102
RTVSPropertyOp28
 70
     1
102
RTVSPropertyOp29
 70
     1
102
RTVSPropertyOp30
 70
     1
102
RTVSPropertyOp31
 70
     1
102
RTVSPropertyOp32
 70
     1
  0
XRECORD
  5
227
102
{ACAD_REACTORS
330
226
102
}
330
226
100
AcDbXrecord
280
     1
102
RTVSPropertyOp0
 70
     1
102
RTVSPropertyOp1
 70
     1
102
RTVSPropertyOp2
 70
     1
102
RTVSPropertyOp3
 70
     1
102
RTVSPropertyOp4
 70
     1
102
RTVSPropertyOp5
 70
     1
102
RTVSPropertyOp6
 70
     1
102
RTVSPropertyOp7
 70
     1
102
RTVSPropertyOp8
 70
     1
102
RTVSPropertyOp9
 70
     1
102
RTVSPropertyOp10
 70
     1
102
RTVSPropertyOp11
 70
     1
102
RTVSPropertyOp12
 70
     1
102
RTVSPropertyOp13
 70
     1
102
RTVSPropertyOp14
 70
     1
102
RTVSPropertyOp15
 70
     1
102
RTVSPropertyOp16
 70
     1
102
RTVSPropertyOp17
 70
     1
102
RTVSPropertyOp18
 70
     1
102
RTVSPropertyOp19
 70
     1
102
RTVSPropertyOp20
 70
     1
102
RTVSPropertyOp21
 70
     1
102
RTVSPropertyOp22
 70
     1
102
RTVSPropertyOp23
 70
     1
102
RTVSPropertyOp24
 70
     1
102
RTVSPropertyOp25
 70
     1
102
RTVSPropertyOp26
 70
     1
102
RTVSPropertyOp27
 70
     1
102
RTVSPropertyOp28
 70
     1
102
RTVSPropertyOp29
 70
     1
102
RTVSPropertyOp30
 70
     1
102
RTVSPropertyOp31
 70
     1
102
RTVSPropertyOp32
 70
     1
  0
XRECORD
  5
22F
102
{ACAD_REACTORS
330
22E
102
}
330
22E
100
AcDbXrecord
280
     1
102
RTVSPropertyOp0
 70
     1
102
RTVSPropertyOp1
 70
     1
102
RTVSPropertyOp2
 70
     1
102
RTVSPropertyOp3
 70
     1
102
RTVSPropertyOp4
 70
     1
102
RTVSPropertyOp5
 70
     1
102
RTVSPropertyOp6
 70
     1
102
RTVSPropertyOp7
 70
     1
102
RTVSPropertyOp8
 70
     1
102
RTVSPropertyOp9
 70
     1
102
RTVSPropertyOp10
 70
     1
102
RTVSPropertyOp11
 70
     1
102
RTVSPropertyOp12
 70
     1
102
RTVSPropertyOp13
 70
     1
102
RTVSPropertyOp14
 70
     1
102
RTVSPropertyOp15
 70
     1
102
RTVSPropertyOp16
 70
     1
102
RTVSPropertyOp17
 70
     1
102
RTVSPropertyOp18
 70
     1
102
RTVSPropertyOp19
 70
     1
102
RTVSPropertyOp20
 70
     1
102
RTVSPropertyOp21
 70
     1
102
RTVSPropertyOp22
 70
     1
102
RTVSPropertyOp23
 70
     1
102
RTVSPropertyOp24
 70
     1
102
RTVSPropertyOp25
 70
     1
102
RTVSPropertyOp26
 70
     1
102
RTVSPropertyOp27
 70
     1
102
RTVSPropertyOp28
 70
     1
102
RTVSPropertyOp29
 70
     1
102
RTVSPropertyOp30
 70
     1
102
RTVSPropertyOp31
 70
     1
102
RTVSPropertyOp32
 70
     1
  0
XRECORD
  5
24B
102
{ACAD_REACTORS
330
24A
102
}
330
24A
100
AcDbXrecord
280
     1
102
RTVSPropertyOp0
 70
     0
102
RTVSPropertyOp1
 70
     0
102
RTVSPropertyOp2
 70
     0
102
RTVSPropertyOp3
 70
     0
102
RTVSPropertyOp4
 70
     0
102
RTVSPropertyOp5
 70
     0
102
RTVSPropertyOp6
 70
     0
102
RTVSPropertyOp7
 70
     0
102
RTVSPropertyOp8
 70
     0
102
RTVSPropertyOp9
 70
     0
102
RTVSPropertyOp10
 70
     0
102
RTVSPropertyOp11
 70
     0
102
RTVSPropertyOp12
 70
     0
102
RTVSPropertyOp13
 70
     0
102
RTVSPropertyOp14
 70
     2
102
RTVSPropertyOp15
 70
     0
102
RTVSPropertyOp16
 70
     0
102
RTVSPropertyOp17
 70
     0
102
RTVSPropertyOp18
 70
     0
102
RTVSPropertyOp19
 70
     0
102
RTVSPropertyOp20
 70
     0
102
RTVSPropertyOp21
 70
     0
102
RTVSPropertyOp22
 70
     0
102
RTVSPropertyOp23
 70
     0
102
RTVSPropertyOp24
 70
     0
102
RTVSPropertyOp25
 70
     0
102
RTVSPropertyOp26
 70
     0
102
RTVSPropertyOp27
 70
     0
102
RTVSPropertyOp28
 70
     1
102
RTVSPropertyOp29
 70
     1
102
RTVSPropertyOp30
 70
     1
102
RTVSPropertyOp31
 70
     1
102
RTVSPropertyOp32
 70
     1
  0
XRECORD
  5
23B
102
{ACAD_REACTORS
330
23A
102
}
330
23A
100
AcDbXrecord
280
     1
102
RTVSPropertyOp0
 70
     1
102
RTVSPropertyOp1
 70
     1
102
RTVSPropertyOp2
 70
     1
102
RTVSPropertyOp3
 70
     1
102
RTVSPropertyOp4
 70
     1
102
RTVSPropertyOp5
 70
     1
102
RTVSPropertyOp6
 70
     1
102
RTVSPropertyOp7
 70
     1
102
RTVSPropertyOp8
 70
     1
102
RTVSPropertyOp9
 70
     1
102
RTVSPropertyOp10
 70
     1
102
RTVSPropertyOp11
 70
     1
102
RTVSPropertyOp12
 70
     1
102
RTVSPropertyOp13
 70
     1
102
RTVSPropertyOp14
 70
     1
102
RTVSPropertyOp15
 70
     1
102
RTVSPropertyOp16
 70
     1
102
RTVSPropertyOp17
 70
     1
102
RTVSPropertyOp18
 70
     1
102
RTVSPropertyOp19
 70
     1
102
RTVSPropertyOp20
 70
     1
102
RTVSPropertyOp21
 70
     1
102
RTVSPropertyOp22
 70
     1
102
RTVSPropertyOp23
 70
     1
102
RTVSPropertyOp24
 70
     1
102
RTVSPropertyOp25
 70
     1
102
RTVSPropertyOp26
 70
     1
102
RTVSPropertyOp27
 70
     1
102
RTVSPropertyOp28
 70
     1
102
RTVSPropertyOp29
 70
     1
102
RTVSPropertyOp30
 70
     1
102
RTVSPropertyOp31
 70
     1
102
RTVSPropertyOp32
 70
     1
  0
XRECORD
  5
24D
102
{ACAD_REACTORS
330
24C
102
}
330
24C
100
AcDbXrecord
280
     1
102
RTVSPropertyOp0
 70
     0
102
RTVSPropertyOp1
 70
     0
102
RTVSPropertyOp2
 70
     0
102
RTVSPropertyOp3
 70
     0
102
RTVSPropertyOp4
 70
     0
102
RTVSPropertyOp5
 70
     0
102
RTVSPropertyOp6
 70
     0
102
RTVSPropertyOp7
 70
     0
102
RTVSPropertyOp8
 70
     0
102
RTVSPropertyOp9
 70
     0
102
RTVSPropertyOp10
 70
     0
102
RTVSPropertyOp11
 70
     0
102
RTVSPropertyOp12
 70
     0
102
RTVSPropertyOp13
 70
     0
102
RTVSPropertyOp14
 70
     2
102
RTVSPropertyOp15
 70
     0
102
RTVSPropertyOp16
 70
     0
102
RTVSPropertyOp17
 70
     0
102
RTVSPropertyOp18
 70
     0
102
RTVSPropertyOp19
 70
     0
102
RTVSPropertyOp20
 70
     0
102
RTVSPropertyOp21
 70
     0
102
RTVSPropertyOp22
 70
     0
102
RTVSPropertyOp23
 70
     0
102
RTVSPropertyOp24
 70
     0
102
RTVSPropertyOp25
 70
     0
102
RTVSPropertyOp26
 70
     0
102
RTVSPropertyOp27
 70
     0
102
RTVSPropertyOp28
 70
     1
102
RTVSPropertyOp29
 70
     1
102
RTVSPropertyOp30
 70
     1
102
RTVSPropertyOp31
 70
     1
102
RTVSPropertyOp32
 70
     1
  0
XRECORD
  5
233
102
{ACAD_REACTORS
330
232
102
}
330
232
100
AcDbXrecord
280
     1
102
RTVSPropertyOp0
 70
     1
102
RTVSPropertyOp1
 70
     1
102
RTVSPropertyOp2
 70
     1
102
RTVSPropertyOp3
 70
     1
102
RTVSPropertyOp4
 70
     1
102
RTVSPropertyOp5
 70
     1
102
RTVSPropertyOp6
 70
     1
102
RTVSPropertyOp7
 70
     1
102
RTVSPropertyOp8
 70
     1
102
RTVSPropertyOp9
 70
     1
102
RTVSPropertyOp10
 70
     1
102
RTVSPropertyOp11
 70
     1
102
RTVSPropertyOp12
 70
     1
102
RTVSPropertyOp13
 70
     1
102
RTVSPropertyOp14
 70
     1
102
RTVSPropertyOp15
 70
     1
102
RTVSPropertyOp16
 70
     1
102
RTVSPropertyOp17
 70
     1
102
RTVSPropertyOp18
 70
     1
102
RTVSPropertyOp19
 70
     1
102
RTVSPropertyOp20
 70
     1
102
RTVSPropertyOp21
 70
     1
102
RTVSPropertyOp22
 70
     1
102
RTVSPropertyOp23
 70
     1
102
RTVSPropertyOp24
 70
     1
102
RTVSPropertyOp25
 70
     1
102
RTVSPropertyOp26
 70
     1
102
RTVSPropertyOp27
 70
     1
102
RTVSPropertyOp28
 70
     1
102
RTVSPropertyOp29
 70
     1
102
RTVSPropertyOp30
 70
     1
102
RTVSPropertyOp31
 70
     1
102
RTVSPropertyOp32
 70
     1
  0
XRECORD
  5
249
102
{ACAD_REACTORS
330
248
102
}
330
248
100
AcDbXrecord
280
     1
102
RTVSPropertyOp0
 70
     1
102
RTVSPropertyOp1
 70
     1
102
RTVSPropertyOp2
 70
     1
102
RTVSPropertyOp3
 70
     1
102
RTVSPropertyOp4
 70
     1
102
RTVSPropertyOp5
 70
     1
102
RTVSPropertyOp6
 70
     1
102
RTVSPropertyOp7
 70
     1
102
RTVSPropertyOp8
 70
     1
102
RTVSPropertyOp9
 70
     1
102
RTVSPropertyOp10
 70
     1
102
RTVSPropertyOp11
 70
     1
102
RTVSPropertyOp12
 70
     1
102
RTVSPropertyOp13
 70
     1
102
RTVSPropertyOp14
 70
     1
102
RTVSPropertyOp15
 70
     1
102
RTVSPropertyOp16
 70
     1
102
RTVSPropertyOp17
 70
     1
102
RTVSPropertyOp18
 70
     1
102
RTVSPropertyOp19
 70
     1
102
RTVSPropertyOp20
 70
     1
102
RTVSPropertyOp21
 70
     1
102
RTVSPropertyOp22
 70
     1
102
RTVSPropertyOp23
 70
     1
102
RTVSPropertyOp24
 70
     1
102
RTVSPropertyOp25
 70
     1
102
RTVSPropertyOp26
 70
     1
102
RTVSPropertyOp27
 70
     1
102
RTVSPropertyOp28
 70
     1
102
RTVSPropertyOp29
 70
     1
102
RTVSPropertyOp30
 70
     1
102
RTVSPropertyOp31
 70
     1
102
RTVSPropertyOp32
 70
     1
  0
XRECORD
  5
247
102
{ACAD_REACTORS
330
246
102
}
330
246
100
AcDbXrecord
280
     1
102
RTVSPropertyOp0
 70
     1
102
RTVSPropertyOp1
 70
     1
102
RTVSPropertyOp2
 70
     1
102
RTVSPropertyOp3
 70
     1
102
RTVSPropertyOp4
 70
     1
102
RTVSPropertyOp5
 70
     1
102
RTVSPropertyOp6
 70
     1
102
RTVSPropertyOp7
 70
     1
102
RTVSPropertyOp8
 70
     1
102
RTVSPropertyOp9
 70
     1
102
RTVSPropertyOp10
 70
     1
102
RTVSPropertyOp11
 70
     1
102
RTVSPropertyOp12
 70
     1
102
RTVSPropertyOp13
 70
     1
102
RTVSPropertyOp14
 70
     1
102
RTVSPropertyOp15
 70
     1
102
RTVSPropertyOp16
 70
     1
102
RTVSPropertyOp17
 70
     1
102
RTVSPropertyOp18
 70
     1
102
RTVSPropertyOp19
 70
     1
102
RTVSPropertyOp20
 70
     1
102
RTVSPropertyOp21
 70
     1
102
RTVSPropertyOp22
 70
     1
102
RTVSPropertyOp23
 70
     1
102
RTVSPropertyOp24
 70
     1
102
RTVSPropertyOp25
 70
     1
102
RTVSPropertyOp26
 70
     1
102
RTVSPropertyOp27
 70
     1
102
RTVSPropertyOp28
 70
     1
102
RTVSPropertyOp29
 70
     1
102
RTVSPropertyOp30
 70
     1
102
RTVSPropertyOp31
 70
     1
102
RTVSPropertyOp32
 70
     1
  0
XRECORD
  5
241
102
{ACAD_REACTORS
330
240
102
}
330
240
100
AcDbXrecord
280
     1
102
RTVSPropertyOp0
 70
     1
102
RTVSPropertyOp1
 70
     1
102
RTVSPropertyOp2
 70
     1
102
RTVSPropertyOp3
 70
     1
102
RTVSPropertyOp4
 70
     1
102
RTVSPropertyOp5
 70
     1
102
RTVSPropertyOp6
 70
     1
102
RTVSPropertyOp7
 70
     1
102
RTVSPropertyOp8
 70
     1
102
RTVSPropertyOp9
 70
     1
102
RTVSPropertyOp10
 70
     1
102
RTVSPropertyOp11
 70
     1
102
RTVSPropertyOp12
 70
     1
102
RTVSPropertyOp13
 70
     1
102
RTVSPropertyOp14
 70
     1
102
RTVSPropertyOp15
 70
     1
102
RTVSPropertyOp16
 70
     1
102
RTVSPropertyOp17
 70
     1
102
RTVSPropertyOp18
 70
     1
102
RTVSPropertyOp19
 70
     1
102
RTVSPropertyOp20
 70
     1
102
RTVSPropertyOp21
 70
     1
102
RTVSPropertyOp22
 70
     1
102
RTVSPropertyOp23
 70
     1
102
RTVSPropertyOp24
 70
     1
102
RTVSPropertyOp25
 70
     1
102
RTVSPropertyOp26
 70
     1
102
RTVSPropertyOp27
 70
     1
102
RTVSPropertyOp28
 70
     1
102
RTVSPropertyOp29
 70
     1
102
RTVSPropertyOp30
 70
     1
102
RTVSPropertyOp31
 70
     1
102
RTVSPropertyOp32
 70
     1
  0
XRECORD
  5
243
102
{ACAD_REACTORS
330
242
102
}
330
242
100
AcDbXrecord
280
     1
102
RTVSPropertyOp0
 70
     1
102
RTVSPropertyOp1
 70
     1
102
RTVSPropertyOp2
 70
     1
102
RTVSPropertyOp3
 70
     1
102
RTVSPropertyOp4
 70
     1
102
RTVSPropertyOp5
 70
     1
102
RTVSPropertyOp6
 70
     1
102
RTVSPropertyOp7
 70
     1
102
RTVSPropertyOp8
 70
     1
102
RTVSPropertyOp9
 70
     1
102
RTVSPropertyOp10
 70
     1
102
RTVSPropertyOp11
 70
     1
102
RTVSPropertyOp12
 70
     1
102
RTVSPropertyOp13
 70
     1
102
RTVSPropertyOp14
 70
     1
102
RTVSPropertyOp15
 70
     1
102
RTVSPropertyOp16
 70
     1
102
RTVSPropertyOp17
 70
     1
102
RTVSPropertyOp18
 70
     1
102
RTVSPropertyOp19
 70
     1
102
RTVSPropertyOp20
 70
     1
102
RTVSPropertyOp21
 70
     1
102
RTVSPropertyOp22
 70
     1
102
RTVSPropertyOp23
 70
     1
102
RTVSPropertyOp24
 70
     1
102
RTVSPropertyOp25
 70
     1
102
RTVSPropertyOp26
 70
     1
102
RTVSPropertyOp27
 70
     1
102
RTVSPropertyOp28
 70
     1
102
RTVSPropertyOp29
 70
     1
102
RTVSPropertyOp30
 70
     1
102
RTVSPropertyOp31
 70
     1
102
RTVSPropertyOp32
 70
     1
  0
XRECORD
  5
239
102
{ACAD_REACTORS
330
238
102
}
330
238
100
AcDbXrecord
280
     1
102
RTVSPropertyOp0
 70
     1
102
RTVSPropertyOp1
 70
     1
102
RTVSPropertyOp2
 70
     1
102
RTVSPropertyOp3
 70
     1
102
RTVSPropertyOp4
 70
     1
102
RTVSPropertyOp5
 70
     1
102
RTVSPropertyOp6
 70
     1
102
RTVSPropertyOp7
 70
     1
102
RTVSPropertyOp8
 70
     1
102
RTVSPropertyOp9
 70
     1
102
RTVSPropertyOp10
 70
     1
102
RTVSPropertyOp11
 70
     1
102
RTVSPropertyOp12
 70
     1
102
RTVSPropertyOp13
 70
     1
102
RTVSPropertyOp14
 70
     1
102
RTVSPropertyOp15
 70
     1
102
RTVSPropertyOp16
 70
     1
102
RTVSPropertyOp17
 70
     1
102
RTVSPropertyOp18
 70
     1
102
RTVSPropertyOp19
 70
     1
102
RTVSPropertyOp20
 70
     1
102
RTVSPropertyOp21
 70
     1
102
RTVSPropertyOp22
 70
     1
102
RTVSPropertyOp23
 70
     1
102
RTVSPropertyOp24
 70
     1
102
RTVSPropertyOp25
 70
     1
102
RTVSPropertyOp26
 70
     1
102
RTVSPropertyOp27
 70
     1
102
RTVSPropertyOp28
 70
     1
102
RTVSPropertyOp29
 70
     1
102
RTVSPropertyOp30
 70
     1
102
RTVSPropertyOp31
 70
     1
102
RTVSPropertyOp32
 70
     1
  0
XRECORD
  5
22D
102
{ACAD_REACTORS
330
22C
102
}
330
22C
100
AcDbXrecord
280
     1
102
RTVSPropertyOp0
 70
     1
102
RTVSPropertyOp1
 70
     1
102
RTVSPropertyOp2
 70
     1
102
RTVSPropertyOp3
 70
     1
102
RTVSPropertyOp4
 70
     1
102
RTVSPropertyOp5
 70
     1
102
RTVSPropertyOp6
 70
     1
102
RTVSPropertyOp7
 70
     1
102
RTVSPropertyOp8
 70
     1
102
RTVSPropertyOp9
 70
     1
102
RTVSPropertyOp10
 70
     1
102
RTVSPropertyOp11
 70
     1
102
RTVSPropertyOp12
 70
     1
102
RTVSPropertyOp13
 70
     1
102
RTVSPropertyOp14
 70
     1
102
RTVSPropertyOp15
 70
     1
102
RTVSPropertyOp16
 70
     1
102
RTVSPropertyOp17
 70
     1
102
RTVSPropertyOp18
 70
     1
102
RTVSPropertyOp19
 70
     1
102
RTVSPropertyOp20
 70
     1
102
RTVSPropertyOp21
 70
     1
102
RTVSPropertyOp22
 70
     1
102
RTVSPropertyOp23
 70
     1
102
RTVSPropertyOp24
 70
     1
102
RTVSPropertyOp25
 70
     1
102
RTVSPropertyOp26
 70
     1
102
RTVSPropertyOp27
 70
     1
102
RTVSPropertyOp28
 70
     1
102
RTVSPropertyOp29
 70
     1
102
RTVSPropertyOp30
 70
     1
102
RTVSPropertyOp31
 70
     1
102
RTVSPropertyOp32
 70
     1
  0
XRECORD
  5
245
102
{ACAD_REACTORS
330
244
102
}
330
244
100
AcDbXrecord
280
     1
102
RTVSPropertyOp0
 70
     1
102
RTVSPropertyOp1
 70
     1
102
RTVSPropertyOp2
 70
     1
102
RTVSPropertyOp3
 70
     1
102
RTVSPropertyOp4
 70
     1
102
RTVSPropertyOp5
 70
     1
102
RTVSPropertyOp6
 70
     1
102
RTVSPropertyOp7
 70
     1
102
RTVSPropertyOp8
 70
     1
102
RTVSPropertyOp9
 70
     1
102
RTVSPropertyOp10
 70
     1
102
RTVSPropertyOp11
 70
     1
102
RTVSPropertyOp12
 70
     1
102
RTVSPropertyOp13
 70
     1
102
RTVSPropertyOp14
 70
     1
102
RTVSPropertyOp15
 70
     1
102
RTVSPropertyOp16
 70
     1
102
RTVSPropertyOp17
 70
     1
102
RTVSPropertyOp18
 70
     1
102
RTVSPropertyOp19
 70
     1
102
RTVSPropertyOp20
 70
     1
102
RTVSPropertyOp21
 70
     1
102
RTVSPropertyOp22
 70
     1
102
RTVSPropertyOp23
 70
     1
102
RTVSPropertyOp24
 70
     1
102
RTVSPropertyOp25
 70
     1
102
RTVSPropertyOp26
 70
     1
102
RTVSPropertyOp27
 70
     1
102
RTVSPropertyOp28
 70
     1
102
RTVSPropertyOp29
 70
     1
102
RTVSPropertyOp30
 70
     1
102
RTVSPropertyOp31
 70
     1
102
RTVSPropertyOp32
 70
     1
  0
ENDSEC
  0
EOF
